<?xml version="1.0" encoding="UTF-8" standalone="no"?>
<!DOCTYPE svg PUBLIC "-//W3C//DTD SVG 1.1//EN" "http://www.w3.org/Graphics/SVG/1.1/DTD/svg11.dtd">
<svg width="100%" height="100%" viewBox="0 0 1800 2700" version="1.1" xmlns="http://www.w3.org/2000/svg" xmlns:xlink="http://www.w3.org/1999/xlink" xml:space="preserve" xmlns:serif="http://www.serif.com/" style="fill-rule:evenodd;clip-rule:evenodd;stroke-miterlimit:10;">
    <g transform="matrix(4.16667,0,0,4.16667,0,0)">
        <text x="196.273px" y="295.071px" style="font-family:'HelveticaNeue-Light', 'Helvetica Neue';font-weight:300;font-size:6.559px;fill:rgb(237,33,36);">k<tspan x="199.881px 203.613px 207.345px 211.438px 214.061px 215.603px 219.578px 223.553px 227.16px 228.702px 232.552px " y="295.071px 295.071px 295.071px 295.071px 295.071px 295.071px 295.071px 295.071px 295.071px 295.071px 295.071px ">eep looking</tspan></text>
    </g>
    <g transform="matrix(4.16667,0,0,4.16667,1439.76,2425.17)">
        <path d="M0,-5.801L-10.486,0L-4.709,0L2.039,-3.787L18.932,-3.787L25.681,0L31.457,0L20.972,-5.801L0,-5.801Z" style="fill:rgb(237,33,36);fill-rule:nonzero;"/>
    </g>
    <g transform="matrix(4.16667,0,0,4.16667,1439.75,2397.71)">
        <path d="M0,-5.885L-10.486,0L-5.644,0L1.074,-3.932L19.9,-3.932L26.617,0L31.459,0L20.974,-5.885L0,-5.885Z" style="fill:rgb(237,33,36);fill-rule:nonzero;"/>
    </g>
    <g transform="matrix(4.16667,0,0,4.16667,1439.75,2373.19)">
        <path d="M0,-5.428L-10.486,0L-6.736,0L0.883,-3.932L20.092,-3.932L27.71,0L31.459,0L20.974,-5.428L0,-5.428Z" style="fill:rgb(237,33,36);fill-rule:nonzero;"/>
    </g>
    <g transform="matrix(4.16667,0,0,4.16667,1439.75,2350.93)">
        <path d="M0,-4.633L-10.486,0L-7.185,0L0.883,-3.577L20.092,-3.577L28.159,0L31.459,0L20.974,-4.633L0,-4.633Z" style="fill:rgb(237,33,36);fill-rule:nonzero;"/>
    </g>
    <g transform="matrix(4.16667,0,0,4.16667,1439.75,2332.32)">
        <path d="M0,-3.918L-10.486,0L-7.986,0L0.883,-3.311L20.092,-3.311L28.96,0L31.459,0L20.974,-3.918L0,-3.918Z" style="fill:rgb(237,33,36);fill-rule:nonzero;"/>
    </g>
    <g transform="matrix(4.16667,0,0,4.16667,1413.69,2476.64)">
        <path d="M0,-5.233L-1.158,-1.634L-1.173,-1.634L-2.397,-5.233L-4.017,-5.233L-4.017,0L-2.939,0L-2.939,-3.672L-2.925,-3.672L-1.643,0L-0.755,0L0.527,-3.708L0.542,-3.708L0.542,0L1.62,0L1.62,-5.233L0,-5.233Z" style="fill:rgb(35,31,32);fill-rule:nonzero;"/>
    </g>
    <g transform="matrix(4.16667,0,0,4.16667,1427.8,2476.22)">
        <path d="M0,-3.687L0,-3.174L0.015,-3.174C0.151,-3.369 0.316,-3.521 0.509,-3.628C0.702,-3.736 0.924,-3.79 1.173,-3.79C1.412,-3.79 1.631,-3.743 1.829,-3.65C2.027,-3.558 2.177,-3.394 2.28,-3.159C2.392,-3.325 2.545,-3.472 2.738,-3.599C2.931,-3.726 3.159,-3.79 3.423,-3.79C3.623,-3.79 3.809,-3.765 3.98,-3.716C4.151,-3.667 4.298,-3.589 4.42,-3.482C4.542,-3.374 4.637,-3.234 4.706,-3.06C4.774,-2.887 4.808,-2.678 4.808,-2.434L4.808,0.103L3.768,0.103L3.768,-2.045C3.768,-2.172 3.763,-2.292 3.753,-2.404C3.743,-2.517 3.716,-2.614 3.672,-2.698C3.628,-2.781 3.563,-2.847 3.478,-2.895C3.392,-2.944 3.276,-2.969 3.13,-2.969C2.983,-2.969 2.865,-2.941 2.774,-2.884C2.684,-2.828 2.613,-2.755 2.562,-2.664C2.51,-2.574 2.476,-2.471 2.459,-2.357C2.442,-2.242 2.433,-2.126 2.433,-2.009L2.433,0.103L1.393,0.103L1.393,-2.023C1.393,-2.136 1.39,-2.247 1.385,-2.357C1.38,-2.467 1.36,-2.568 1.323,-2.661C1.286,-2.754 1.225,-2.828 1.14,-2.884C1.054,-2.941 0.928,-2.969 0.762,-2.969C0.713,-2.969 0.649,-2.958 0.568,-2.936C0.487,-2.914 0.409,-2.872 0.333,-2.811C0.258,-2.75 0.193,-2.662 0.139,-2.547C0.085,-2.432 0.059,-2.282 0.059,-2.097L0.059,0.103L-0.982,0.103L-0.982,-3.687L0,-3.687Z" style="fill:rgb(35,31,32);fill-rule:nonzero;"/>
    </g>
    <g transform="matrix(4.16667,0,0,4.16667,1461.34,2461.25)">
        <path d="M0,3.695L0,3.167L-0.022,3.167C-0.154,3.387 -0.325,3.546 -0.535,3.644C-0.745,3.741 -0.96,3.79 -1.18,3.79C-1.459,3.79 -1.687,3.754 -1.865,3.68C-2.044,3.607 -2.184,3.503 -2.287,3.369C-2.39,3.235 -2.462,3.071 -2.503,2.878C-2.545,2.685 -2.566,2.471 -2.566,2.236L-2.566,-0.095L-1.525,-0.095L-1.525,2.046C-1.525,2.359 -1.476,2.592 -1.378,2.746C-1.28,2.9 -1.107,2.977 -0.858,2.977C-0.574,2.977 -0.369,2.892 -0.242,2.724C-0.115,2.555 -0.051,2.278 -0.051,1.892L-0.051,-0.095L0.99,-0.095L0.99,3.695L0,3.695Z" style="fill:rgb(35,31,32);fill-rule:nonzero;"/>
    </g>
    <g transform="matrix(4.16667,0,0,4.16667,1471.8,2464.75)">
        <path d="M0,1.913C0.046,1.994 0.106,2.06 0.18,2.111C0.253,2.162 0.337,2.2 0.432,2.225C0.528,2.249 0.627,2.261 0.729,2.261C0.803,2.261 0.88,2.253 0.96,2.236C1.041,2.219 1.114,2.192 1.18,2.155C1.246,2.118 1.301,2.069 1.345,2.008C1.389,1.947 1.411,1.87 1.411,1.777C1.411,1.621 1.307,1.504 1.099,1.426C0.892,1.348 0.602,1.269 0.231,1.191C0.079,1.157 -0.068,1.117 -0.212,1.07C-0.357,1.024 -0.485,0.963 -0.597,0.887C-0.71,0.811 -0.8,0.716 -0.869,0.601C-0.937,0.486 -0.971,0.346 -0.971,0.18C-0.971,-0.065 -0.924,-0.265 -0.828,-0.422C-0.733,-0.578 -0.607,-0.701 -0.451,-0.792C-0.294,-0.882 -0.119,-0.946 0.077,-0.982C0.272,-1.019 0.473,-1.037 0.678,-1.037C0.883,-1.037 1.082,-1.018 1.275,-0.979C1.468,-0.939 1.641,-0.873 1.792,-0.781C1.943,-0.688 2.069,-0.565 2.17,-0.41C2.27,-0.257 2.33,-0.062 2.349,0.172L1.36,0.172C1.345,-0.028 1.269,-0.164 1.132,-0.235C0.996,-0.305 0.834,-0.341 0.649,-0.341C0.59,-0.341 0.526,-0.337 0.458,-0.33C0.39,-0.323 0.327,-0.307 0.271,-0.282C0.215,-0.258 0.167,-0.222 0.128,-0.176C0.089,-0.129 0.07,-0.067 0.07,0.011C0.07,0.104 0.104,0.18 0.172,0.238C0.241,0.297 0.33,0.344 0.44,0.381C0.55,0.418 0.675,0.451 0.817,0.48C0.959,0.509 1.103,0.541 1.25,0.575C1.401,0.61 1.549,0.651 1.693,0.7C1.837,0.749 1.966,0.813 2.078,0.894C2.19,0.975 2.281,1.075 2.349,1.195C2.418,1.315 2.452,1.462 2.452,1.638C2.452,1.887 2.402,2.096 2.302,2.265C2.201,2.433 2.071,2.569 1.909,2.672C1.748,2.774 1.564,2.846 1.356,2.888C1.148,2.929 0.937,2.95 0.722,2.95C0.502,2.95 0.287,2.928 0.077,2.884C-0.133,2.84 -0.32,2.767 -0.484,2.664C-0.648,2.562 -0.782,2.426 -0.887,2.258C-0.992,2.089 -1.049,1.878 -1.059,1.624L-0.07,1.624C-0.07,1.736 -0.046,1.832 0,1.913" style="fill:rgb(35,31,32);fill-rule:nonzero;"/>
    </g>
    <g transform="matrix(4.16667,0,0,4.16667,1493.48,2472.92)">
        <path d="M0,-2.008C-0.125,-2.145 -0.314,-2.213 -0.568,-2.213C-0.734,-2.213 -0.872,-2.185 -0.982,-2.129C-1.092,-2.073 -1.18,-2.003 -1.246,-1.92C-1.312,-1.837 -1.358,-1.749 -1.385,-1.656C-1.412,-1.563 -1.428,-1.48 -1.433,-1.407L0.26,-1.407C0.211,-1.671 0.125,-1.871 0,-2.008M-1.176,-0.014C-1.02,0.137 -0.795,0.213 -0.502,0.213C-0.292,0.213 -0.111,0.161 0.04,0.055C0.192,-0.05 0.285,-0.161 0.319,-0.278L1.235,-0.278C1.088,0.176 0.864,0.501 0.561,0.697C0.258,0.892 -0.109,0.99 -0.539,0.99C-0.837,0.99 -1.106,0.942 -1.345,0.847C-1.585,0.752 -1.787,0.616 -1.953,0.44C-2.12,0.264 -2.248,0.054 -2.338,-0.19C-2.429,-0.434 -2.474,-0.703 -2.474,-0.997C-2.474,-1.28 -2.427,-1.544 -2.335,-1.788C-2.242,-2.032 -2.11,-2.244 -1.939,-2.422C-1.768,-2.6 -1.564,-2.741 -1.327,-2.844C-1.09,-2.946 -0.827,-2.998 -0.539,-2.998C-0.216,-2.998 0.065,-2.935 0.304,-2.811C0.544,-2.686 0.74,-2.519 0.894,-2.308C1.048,-2.098 1.159,-1.859 1.228,-1.59C1.296,-1.321 1.32,-1.04 1.301,-0.747L-1.433,-0.747C-1.418,-0.41 -1.333,-0.166 -1.176,-0.014" style="fill:rgb(35,31,32);fill-rule:nonzero;"/>
    </g>
    <g transform="matrix(4.16667,0,0,4.16667,1511.55,2461.25)">
        <path d="M0,3.695L0,3.167L-0.022,3.167C-0.154,3.387 -0.325,3.546 -0.535,3.644C-0.745,3.741 -0.96,3.79 -1.18,3.79C-1.459,3.79 -1.687,3.754 -1.866,3.68C-2.044,3.607 -2.184,3.503 -2.287,3.369C-2.39,3.235 -2.462,3.071 -2.503,2.878C-2.545,2.685 -2.565,2.471 -2.565,2.236L-2.565,-0.095L-1.525,-0.095L-1.525,2.046C-1.525,2.359 -1.476,2.592 -1.378,2.746C-1.28,2.9 -1.107,2.977 -0.858,2.977C-0.574,2.977 -0.369,2.892 -0.242,2.724C-0.115,2.555 -0.051,2.278 -0.051,1.892L-0.051,-0.095L0.989,-0.095L0.989,3.695L0,3.695Z" style="fill:rgb(35,31,32);fill-rule:nonzero;"/>
    </g>
    <g transform="matrix(4.16667,0,0,4.16667,1522.57,2476.22)">
        <path d="M0,-3.687L0,-3.174L0.015,-3.174C0.151,-3.369 0.316,-3.521 0.509,-3.628C0.702,-3.736 0.924,-3.79 1.173,-3.79C1.412,-3.79 1.631,-3.743 1.829,-3.65C2.027,-3.558 2.177,-3.394 2.28,-3.159C2.392,-3.325 2.545,-3.472 2.738,-3.599C2.931,-3.726 3.159,-3.79 3.423,-3.79C3.623,-3.79 3.809,-3.765 3.98,-3.716C4.151,-3.667 4.298,-3.589 4.42,-3.482C4.542,-3.374 4.637,-3.234 4.706,-3.06C4.774,-2.887 4.809,-2.678 4.809,-2.434L4.809,0.103L3.768,0.103L3.768,-2.045C3.768,-2.172 3.763,-2.292 3.753,-2.404C3.743,-2.517 3.716,-2.614 3.672,-2.698C3.628,-2.781 3.564,-2.847 3.478,-2.895C3.393,-2.944 3.276,-2.969 3.13,-2.969C2.983,-2.969 2.865,-2.941 2.774,-2.884C2.684,-2.828 2.613,-2.755 2.562,-2.664C2.51,-2.574 2.476,-2.471 2.459,-2.357C2.442,-2.242 2.434,-2.126 2.434,-2.009L2.434,0.103L1.393,0.103L1.393,-2.023C1.393,-2.136 1.39,-2.247 1.385,-2.357C1.38,-2.467 1.36,-2.568 1.323,-2.661C1.286,-2.754 1.225,-2.828 1.14,-2.884C1.054,-2.941 0.928,-2.969 0.762,-2.969C0.713,-2.969 0.649,-2.958 0.568,-2.936C0.488,-2.914 0.409,-2.872 0.333,-2.811C0.258,-2.75 0.193,-2.662 0.139,-2.547C0.085,-2.432 0.059,-2.282 0.059,-2.097L0.059,0.103L-0.982,0.103L-0.982,-3.687L0,-3.687Z" style="fill:rgb(35,31,32);fill-rule:nonzero;"/>
    </g>
    <g transform="matrix(4.16667,0,0,4.16667,1549.63,2476.22)">
        <path d="M0,-3.687L0,-3.174L0.015,-3.174C0.151,-3.369 0.316,-3.521 0.509,-3.628C0.702,-3.736 0.924,-3.79 1.173,-3.79C1.412,-3.79 1.631,-3.743 1.829,-3.65C2.027,-3.558 2.177,-3.394 2.28,-3.159C2.392,-3.325 2.545,-3.472 2.738,-3.599C2.931,-3.726 3.159,-3.79 3.423,-3.79C3.623,-3.79 3.809,-3.765 3.98,-3.716C4.151,-3.667 4.298,-3.589 4.42,-3.482C4.542,-3.374 4.637,-3.234 4.706,-3.06C4.774,-2.887 4.809,-2.678 4.809,-2.434L4.809,0.103L3.768,0.103L3.768,-2.045C3.768,-2.172 3.763,-2.292 3.753,-2.404C3.743,-2.517 3.716,-2.614 3.672,-2.698C3.628,-2.781 3.564,-2.847 3.478,-2.895C3.393,-2.944 3.276,-2.969 3.13,-2.969C2.983,-2.969 2.865,-2.941 2.775,-2.884C2.684,-2.828 2.613,-2.755 2.562,-2.664C2.51,-2.574 2.476,-2.471 2.459,-2.357C2.442,-2.242 2.434,-2.126 2.434,-2.009L2.434,0.103L1.393,0.103L1.393,-2.023C1.393,-2.136 1.39,-2.247 1.385,-2.357C1.38,-2.467 1.36,-2.568 1.323,-2.661C1.286,-2.754 1.225,-2.828 1.14,-2.884C1.054,-2.941 0.928,-2.969 0.762,-2.969C0.713,-2.969 0.649,-2.958 0.568,-2.936C0.488,-2.914 0.409,-2.872 0.333,-2.811C0.258,-2.75 0.193,-2.662 0.139,-2.547C0.086,-2.432 0.059,-2.282 0.059,-2.097L0.059,0.103L-0.982,0.103L-0.982,-3.687L0,-3.687Z" style="fill:rgb(35,31,32);fill-rule:nonzero;"/>
    </g>
    <g transform="matrix(4.16667,0,0,4.16667,0,0)">
        <clipPath id="_clip1">
            <rect x="50.304" y="558.212" width="93.847" height="41.525" clip-rule="nonzero"/>
        </clipPath>
        <g clip-path="url(#_clip1)">
            <g transform="matrix(1,0,0,1,52.8929,593.099)">
                <path d="M0,3.326L0.748,3.257C0.812,3.609 0.933,3.864 1.112,4.023C1.29,4.181 1.52,4.261 1.799,4.261C2.039,4.261 2.248,4.206 2.428,4.096C2.609,3.987 2.757,3.84 2.872,3.657C2.988,3.474 3.084,3.227 3.162,2.915C3.24,2.604 3.279,2.287 3.279,1.963C3.279,1.929 3.277,1.877 3.274,1.808C3.119,2.056 2.906,2.257 2.636,2.411C2.366,2.566 2.075,2.643 1.76,2.643C1.236,2.643 0.791,2.452 0.428,2.072C0.065,1.691 -0.117,1.189 -0.117,0.567C-0.117,-0.076 0.073,-0.594 0.452,-0.987C0.831,-1.379 1.306,-1.575 1.877,-1.575C2.289,-1.575 2.667,-1.464 3.008,-1.242C3.35,-1.02 3.609,-0.703 3.787,-0.292C3.964,0.119 4.053,0.714 4.053,1.492C4.053,2.302 3.965,2.948 3.789,3.428C3.613,3.908 3.351,4.273 3.004,4.524C2.657,4.775 2.249,4.901 1.782,4.901C1.286,4.901 0.881,4.763 0.566,4.488C0.252,4.212 0.063,3.825 0,3.326M3.188,0.528C3.188,0.08 3.069,-0.274 2.831,-0.536C2.593,-0.799 2.307,-0.93 1.972,-0.93C1.626,-0.93 1.325,-0.789 1.068,-0.506C0.812,-0.224 0.683,0.142 0.683,0.593C0.683,0.996 0.805,1.324 1.049,1.576C1.292,1.829 1.593,1.955 1.951,1.955C2.311,1.955 2.607,1.829 2.84,1.576C3.072,1.324 3.188,0.975 3.188,0.528" style="fill-rule:nonzero;"/>
            </g>
            <g transform="matrix(1,0,0,1,65.4264,597.143)">
                <path d="M0,-4.762L0,-5.511L4.105,-5.511L4.105,-4.905C3.701,-4.475 3.301,-3.904 2.905,-3.192C2.508,-2.48 2.201,-1.747 1.985,-0.995C1.83,-0.464 1.73,0.117 1.687,0.749L0.886,0.749C0.895,0.25 0.993,-0.353 1.181,-1.06C1.368,-1.766 1.637,-2.447 1.988,-3.103C2.338,-3.759 2.711,-4.312 3.106,-4.762L0,-4.762Z" style="fill-rule:nonzero;"/>
            </g>
            <g transform="matrix(1,0,0,1,71.4997,595.072)">
                <path d="M0,-0.619C-0.323,-0.737 -0.563,-0.906 -0.718,-1.125C-0.874,-1.344 -0.952,-1.607 -0.952,-1.912C-0.952,-2.374 -0.786,-2.762 -0.455,-3.076C-0.123,-3.39 0.318,-3.547 0.869,-3.547C1.423,-3.547 1.869,-3.387 2.206,-3.065C2.543,-2.743 2.712,-2.352 2.712,-1.891C2.712,-1.597 2.635,-1.341 2.48,-1.123C2.326,-0.905 2.092,-0.737 1.778,-0.619C2.167,-0.492 2.463,-0.287 2.667,-0.005C2.87,0.278 2.972,0.615 2.972,1.007C2.972,1.549 2.779,2.005 2.396,2.374C2.013,2.743 1.508,2.928 0.882,2.928C0.256,2.928 -0.248,2.742 -0.632,2.372C-1.015,2.002 -1.207,1.539 -1.207,0.986C-1.207,0.573 -1.102,0.228 -0.894,-0.05C-0.684,-0.328 -0.386,-0.518 0,-0.619M-0.156,-1.938C-0.156,-1.638 -0.059,-1.394 0.134,-1.203C0.327,-1.013 0.578,-0.917 0.886,-0.917C1.187,-0.917 1.432,-1.012 1.624,-1.201C1.816,-1.39 1.912,-1.621 1.912,-1.895C1.912,-2.18 1.813,-2.421 1.616,-2.616C1.418,-2.81 1.172,-2.907 0.878,-2.907C0.581,-2.907 0.334,-2.812 0.138,-2.622C-0.058,-2.432 -0.156,-2.204 -0.156,-1.938M-0.407,0.99C-0.407,1.212 -0.354,1.427 -0.249,1.634C-0.144,1.842 0.013,2.003 0.22,2.117C0.428,2.231 0.652,2.288 0.891,2.288C1.263,2.288 1.57,2.168 1.812,1.928C2.055,1.689 2.175,1.385 2.175,1.016C2.175,0.641 2.051,0.331 1.801,0.086C1.552,-0.159 1.24,-0.282 0.865,-0.282C0.499,-0.282 0.195,-0.161 -0.045,0.081C-0.286,0.324 -0.407,0.627 -0.407,0.99" style="fill-rule:nonzero;"/>
            </g>
            <g transform="matrix(1,0,0,1,75.2281,594.76)">
                <path d="M0,0.004C0,-0.746 0.077,-1.349 0.231,-1.806C0.386,-2.263 0.615,-2.615 0.919,-2.863C1.224,-3.112 1.606,-3.236 2.067,-3.236C2.408,-3.236 2.706,-3.167 2.963,-3.03C3.22,-2.893 3.432,-2.696 3.599,-2.438C3.766,-2.18 3.897,-1.865 3.993,-1.495C4.088,-1.124 4.135,-0.624 4.135,0.004C4.135,0.748 4.059,1.349 3.906,1.806C3.753,2.263 3.525,2.616 3.22,2.865C2.916,3.115 2.532,3.24 2.067,3.24C1.456,3.24 0.976,3.02 0.627,2.582C0.209,2.054 0,1.195 0,0.004M0.8,0.004C0.8,1.045 0.922,1.738 1.165,2.082C1.409,2.427 1.71,2.6 2.067,2.6C2.425,2.6 2.726,2.426 2.969,2.08C3.213,1.734 3.335,1.042 3.335,0.004C3.335,-1.04 3.213,-1.733 2.969,-2.076C2.726,-2.419 2.422,-2.591 2.059,-2.591C1.701,-2.591 1.416,-2.44 1.203,-2.137C0.934,-1.751 0.8,-1.037 0.8,0.004" style="fill-rule:nonzero;"/>
            </g>
            <g transform="matrix(1,0,0,1,80.2715,593.099)">
                <path d="M0,3.326L0.749,3.257C0.812,3.609 0.933,3.864 1.112,4.023C1.291,4.181 1.52,4.261 1.799,4.261C2.039,4.261 2.248,4.206 2.429,4.096C2.609,3.987 2.757,3.84 2.872,3.657C2.988,3.474 3.084,3.227 3.162,2.915C3.24,2.604 3.279,2.287 3.279,1.963C3.279,1.929 3.277,1.877 3.274,1.808C3.119,2.056 2.906,2.257 2.637,2.411C2.367,2.566 2.075,2.643 1.761,2.643C1.236,2.643 0.792,2.452 0.429,2.072C0.065,1.691 -0.117,1.189 -0.117,0.567C-0.117,-0.076 0.073,-0.594 0.452,-0.987C0.832,-1.379 1.307,-1.575 1.877,-1.575C2.29,-1.575 2.667,-1.464 3.009,-1.242C3.35,-1.02 3.61,-0.703 3.787,-0.292C3.964,0.119 4.053,0.714 4.053,1.492C4.053,2.302 3.965,2.948 3.789,3.428C3.613,3.908 3.352,4.273 3.004,4.524C2.656,4.775 2.25,4.901 1.782,4.901C1.286,4.901 0.881,4.763 0.567,4.488C0.252,4.212 0.064,3.825 0,3.326M3.188,0.528C3.188,0.08 3.069,-0.274 2.831,-0.536C2.593,-0.799 2.307,-0.93 1.973,-0.93C1.627,-0.93 1.325,-0.789 1.069,-0.506C0.812,-0.224 0.684,0.142 0.684,0.593C0.684,0.996 0.806,1.324 1.049,1.576C1.293,1.829 1.593,1.955 1.951,1.955C2.312,1.955 2.608,1.829 2.84,1.576C3.072,1.324 3.188,0.975 3.188,0.528" style="fill-rule:nonzero;"/>
            </g>
            <g transform="matrix(1,0,0,1,85.1986,593.099)">
                <path d="M0,3.326L0.748,3.257C0.812,3.609 0.932,3.864 1.111,4.023C1.29,4.181 1.519,4.261 1.799,4.261C2.039,4.261 2.248,4.206 2.428,4.096C2.609,3.987 2.757,3.84 2.872,3.657C2.987,3.474 3.084,3.227 3.161,2.915C3.24,2.604 3.278,2.287 3.278,1.963C3.278,1.929 3.277,1.877 3.274,1.808C3.118,2.056 2.906,2.257 2.636,2.411C2.366,2.566 2.075,2.643 1.76,2.643C1.235,2.643 0.791,2.452 0.428,2.072C0.065,1.691 -0.117,1.189 -0.117,0.567C-0.117,-0.076 0.073,-0.594 0.452,-0.987C0.831,-1.379 1.306,-1.575 1.877,-1.575C2.289,-1.575 2.666,-1.464 3.008,-1.242C3.35,-1.02 3.609,-0.703 3.787,-0.292C3.964,0.119 4.053,0.714 4.053,1.492C4.053,2.302 3.965,2.948 3.789,3.428C3.613,3.908 3.351,4.273 3.004,4.524C2.657,4.775 2.249,4.901 1.782,4.901C1.286,4.901 0.881,4.763 0.566,4.488C0.252,4.212 0.063,3.825 0,3.326M3.187,0.528C3.187,0.08 3.069,-0.274 2.831,-0.536C2.593,-0.799 2.307,-0.93 1.972,-0.93C1.626,-0.93 1.325,-0.789 1.068,-0.506C0.812,-0.224 0.683,0.142 0.683,0.593C0.683,0.996 0.805,1.324 1.049,1.576C1.292,1.829 1.593,1.955 1.951,1.955C2.311,1.955 2.607,1.829 2.839,1.576C3.072,1.324 3.187,0.975 3.187,0.528" style="fill-rule:nonzero;"/>
            </g>
            <g transform="matrix(1,0,0,1,91.2065,595.072)">
                <path d="M0,-0.619C-0.323,-0.737 -0.563,-0.906 -0.718,-1.125C-0.874,-1.344 -0.952,-1.607 -0.952,-1.912C-0.952,-2.374 -0.786,-2.762 -0.454,-3.076C-0.122,-3.39 0.319,-3.547 0.869,-3.547C1.423,-3.547 1.869,-3.387 2.206,-3.065C2.544,-2.743 2.712,-2.352 2.712,-1.891C2.712,-1.597 2.635,-1.341 2.481,-1.123C2.327,-0.905 2.092,-0.737 1.778,-0.619C2.167,-0.492 2.463,-0.287 2.666,-0.005C2.87,0.278 2.972,0.615 2.972,1.007C2.972,1.549 2.78,2.005 2.396,2.374C2.013,2.743 1.508,2.928 0.883,2.928C0.257,2.928 -0.248,2.742 -0.632,2.372C-1.015,2.002 -1.207,1.539 -1.207,0.986C-1.207,0.573 -1.102,0.228 -0.893,-0.05C-0.684,-0.328 -0.386,-0.518 0,-0.619M-0.156,-1.938C-0.156,-1.638 -0.059,-1.394 0.134,-1.203C0.327,-1.013 0.578,-0.917 0.887,-0.917C1.187,-0.917 1.432,-1.012 1.624,-1.201C1.816,-1.39 1.912,-1.621 1.912,-1.895C1.912,-2.18 1.813,-2.421 1.616,-2.616C1.418,-2.81 1.172,-2.907 0.878,-2.907C0.581,-2.907 0.334,-2.812 0.138,-2.622C-0.058,-2.432 -0.156,-2.204 -0.156,-1.938M-0.406,0.99C-0.406,1.212 -0.354,1.427 -0.249,1.634C-0.143,1.842 0.013,2.003 0.221,2.117C0.429,2.231 0.652,2.288 0.891,2.288C1.263,2.288 1.57,2.168 1.812,1.928C2.055,1.689 2.176,1.385 2.176,1.016C2.176,0.641 2.051,0.331 1.802,0.086C1.552,-0.159 1.24,-0.282 0.865,-0.282C0.499,-0.282 0.195,-0.161 -0.045,0.081C-0.286,0.324 -0.406,0.627 -0.406,0.99" style="fill-rule:nonzero;"/>
            </g>
            <g transform="matrix(1,0,0,1,103.63,597.143)">
                <path d="M0,-4.762L0,-5.511L4.105,-5.511L4.105,-4.905C3.701,-4.475 3.301,-3.904 2.905,-3.192C2.508,-2.48 2.202,-1.747 1.985,-0.995C1.83,-0.464 1.73,0.117 1.687,0.749L0.887,0.749C0.895,0.25 0.993,-0.353 1.181,-1.06C1.368,-1.766 1.637,-2.447 1.988,-3.103C2.338,-3.759 2.711,-4.312 3.106,-4.762L0,-4.762Z" style="fill-rule:nonzero;"/>
            </g>
            <g transform="matrix(1,0,0,1,111.437,591.524)">
                <path d="M0,6.367L-0.778,6.367L-0.778,1.406C-0.966,1.584 -1.211,1.763 -1.516,1.942C-1.82,2.121 -2.093,2.255 -2.335,2.344L-2.335,1.592C-1.9,1.387 -1.519,1.139 -1.194,0.847C-0.868,0.556 -0.637,0.274 -0.502,0L0,0L0,6.367Z" style="fill-rule:nonzero;"/>
            </g>
            <g transform="matrix(1,0,0,1,115.927,591.55)">
                <path d="M0,6.341L0,4.823L-2.751,4.823L-2.751,4.109L0.143,0L0.778,0L0.778,4.109L1.635,4.109L1.635,4.823L0.778,4.823L0.778,6.341L0,6.341ZM0,4.109L0,1.25L-1.985,4.109L0,4.109Z" style="fill-rule:nonzero;"/>
            </g>
            <g transform="matrix(1,0,0,1,118.475,593.099)">
                <path d="M0,3.326L0.749,3.257C0.812,3.609 0.933,3.864 1.112,4.023C1.291,4.181 1.52,4.261 1.799,4.261C2.039,4.261 2.248,4.206 2.429,4.096C2.609,3.987 2.757,3.84 2.872,3.657C2.988,3.474 3.085,3.227 3.162,2.915C3.24,2.604 3.279,2.287 3.279,1.963C3.279,1.929 3.278,1.877 3.274,1.808C3.119,2.056 2.906,2.257 2.637,2.411C2.367,2.566 2.075,2.643 1.761,2.643C1.236,2.643 0.792,2.452 0.429,2.072C0.065,1.691 -0.117,1.189 -0.117,0.567C-0.117,-0.076 0.073,-0.594 0.452,-0.987C0.832,-1.379 1.307,-1.575 1.878,-1.575C2.29,-1.575 2.667,-1.464 3.009,-1.242C3.35,-1.02 3.61,-0.703 3.787,-0.292C3.964,0.119 4.053,0.714 4.053,1.492C4.053,2.302 3.965,2.948 3.789,3.428C3.613,3.908 3.352,4.273 3.004,4.524C2.657,4.775 2.25,4.901 1.782,4.901C1.286,4.901 0.881,4.763 0.567,4.488C0.252,4.212 0.064,3.825 0,3.326M3.188,0.528C3.188,0.08 3.069,-0.274 2.831,-0.536C2.593,-0.799 2.307,-0.93 1.973,-0.93C1.627,-0.93 1.326,-0.789 1.069,-0.506C0.812,-0.224 0.684,0.142 0.684,0.593C0.684,0.996 0.806,1.324 1.049,1.576C1.293,1.829 1.593,1.955 1.951,1.955C2.312,1.955 2.608,1.829 2.84,1.576C3.072,1.324 3.188,0.975 3.188,0.528" style="fill-rule:nonzero;"/>
            </g>
            <g transform="matrix(1,0,0,1,123.285,593.405)">
                <path d="M0,2.825L0.817,2.756C0.878,3.154 1.019,3.453 1.239,3.653C1.459,3.854 1.726,3.954 2.037,3.954C2.412,3.954 2.729,3.813 2.989,3.53C3.248,3.247 3.378,2.873 3.378,2.405C3.378,1.961 3.253,1.611 3.004,1.354C2.755,1.098 2.428,0.969 2.024,0.969C1.773,0.969 1.547,1.026 1.345,1.14C1.143,1.254 0.984,1.401 0.869,1.584L0.138,1.488L0.752,-1.769L3.906,-1.769L3.906,-1.025L1.375,-1.025L1.034,0.68C1.414,0.414 1.814,0.281 2.232,0.281C2.786,0.281 3.253,0.473 3.633,0.857C4.014,1.24 4.204,1.733 4.204,2.336C4.204,2.91 4.037,3.406 3.702,3.824C3.296,4.338 2.741,4.594 2.037,4.594C1.461,4.594 0.99,4.432 0.625,4.11C0.26,3.787 0.052,3.358 0,2.825" style="fill-rule:nonzero;"/>
            </g>
            <g transform="matrix(1,0,0,1,128.212,594.76)">
                <path d="M0,0.004C0,-0.746 0.077,-1.349 0.231,-1.806C0.386,-2.263 0.615,-2.615 0.919,-2.863C1.224,-3.112 1.606,-3.236 2.067,-3.236C2.408,-3.236 2.706,-3.167 2.963,-3.03C3.22,-2.893 3.432,-2.696 3.599,-2.438C3.766,-2.18 3.897,-1.865 3.993,-1.495C4.088,-1.124 4.135,-0.624 4.135,0.004C4.135,0.748 4.059,1.349 3.906,1.806C3.753,2.263 3.525,2.616 3.22,2.865C2.916,3.115 2.532,3.24 2.067,3.24C1.456,3.24 0.976,3.02 0.627,2.582C0.209,2.054 0,1.195 0,0.004M0.8,0.004C0.8,1.045 0.922,1.738 1.166,2.082C1.41,2.427 1.71,2.6 2.067,2.6C2.425,2.6 2.726,2.426 2.969,2.08C3.213,1.734 3.335,1.042 3.335,0.004C3.335,-1.04 3.213,-1.733 2.969,-2.076C2.726,-2.419 2.422,-2.591 2.059,-2.591C1.701,-2.591 1.416,-2.44 1.203,-2.137C0.935,-1.751 0.8,-1.037 0.8,0.004" style="fill-rule:nonzero;"/>
            </g>
            <g transform="matrix(-1,0,0,1,152.709,446.041)">
                <rect x="92.439" y="86.632" width="0.831" height="61.695"/>
            </g>
            <g transform="matrix(-1,0,0,1,156.031,446.041)">
                <rect x="94.1" y="86.632" width="0.831" height="61.695"/>
            </g>
            <g transform="matrix(-1,0,0,1,160.951,441.886)">
                <rect x="95.698" y="90.787" width="2.555" height="57.54"/>
            </g>
            <g transform="matrix(-1,0,0,1,166.766,441.886)">
                <rect x="99.021" y="90.787" width="1.724" height="57.54"/>
            </g>
            <g transform="matrix(-1,0,0,1,174.367,441.886)">
                <rect x="103.3" y="90.787" width="0.767" height="57.54"/>
            </g>
            <g transform="matrix(-1,0,0,1,179.349,441.886)">
                <rect x="105.791" y="90.787" width="0.767" height="57.54"/>
            </g>
            <g transform="matrix(-1,0,0,1,182.607,441.886)">
                <rect x="107.388" y="90.787" width="0.831" height="57.54"/>
            </g>
            <g transform="matrix(-1,0,0,1,189.252,441.886)">
                <rect x="109.88" y="90.787" width="2.492" height="57.54"/>
            </g>
            <g transform="matrix(-1,0,0,1,197.557,441.886)">
                <rect x="114.863" y="90.787" width="0.831" height="57.54"/>
            </g>
            <g transform="matrix(-1,0,0,1,201.709,441.886)">
                <rect x="116.524" y="90.787" width="1.661" height="57.54"/>
            </g>
            <g transform="matrix(-1,0,0,1,207.523,441.886)">
                <rect x="119.846" y="90.787" width="0.831" height="57.54"/>
            </g>
            <g transform="matrix(-1,0,0,1,212.506,441.886)">
                <rect x="121.507" y="90.787" width="2.492" height="57.54"/>
            </g>
            <g transform="matrix(-1,0,0,1,218.256,441.886)">
                <rect x="124.766" y="90.787" width="1.724" height="57.54"/>
            </g>
            <g transform="matrix(-1,0,0,1,224.07,441.886)">
                <rect x="127.258" y="90.787" width="2.554" height="57.54"/>
            </g>
            <g transform="matrix(-1,0,0,1,229.115,446.041)">
                <rect x="130.642" y="86.632" width="0.831" height="61.695"/>
            </g>
            <g transform="matrix(-1,0,0,1,232.437,446.041)">
                <rect x="132.303" y="86.632" width="0.831" height="61.695"/>
            </g>
            <g transform="matrix(-1,0,0,1,235.698,441.886)">
                <rect x="133.965" y="90.787" width="0.768" height="57.54"/>
            </g>
            <g transform="matrix(-1,0,0,1,242.342,441.886)">
                <rect x="137.287" y="90.787" width="0.768" height="57.54"/>
            </g>
            <g transform="matrix(-1,0,0,1,248.282,441.886)">
                <rect x="139.779" y="90.787" width="1.724" height="57.54"/>
            </g>
            <g transform="matrix(-1,0,0,1,254.926,441.886)">
                <rect x="143.101" y="90.787" width="1.724" height="57.54"/>
            </g>
            <g transform="matrix(-1,0,0,1,259.015,441.886)">
                <rect x="145.592" y="90.787" width="0.831" height="57.54"/>
            </g>
            <g transform="matrix(-1,0,0,1,263.998,441.886)">
                <rect x="147.253" y="90.787" width="2.492" height="57.54"/>
            </g>
            <g transform="matrix(-1,0,0,1,272.302,441.886)">
                <rect x="151.405" y="90.787" width="2.492" height="57.54"/>
            </g>
            <g transform="matrix(-1,0,0,1,277.285,441.886)">
                <rect x="154.727" y="90.787" width="0.831" height="57.54"/>
            </g>
            <g transform="matrix(-1,0,0,1,282.269,441.886)">
                <rect x="157.219" y="90.787" width="0.831" height="57.54"/>
            </g>
            <g transform="matrix(-1,0,0,1,288.914,441.886)">
                <rect x="159.711" y="90.787" width="2.492" height="57.54"/>
            </g>
            <g transform="matrix(-1,0,0,1,295.558,441.886)">
                <rect x="163.033" y="90.787" width="2.492" height="57.54"/>
            </g>
            <g transform="matrix(-1,0,0,1,302.201,441.886)">
                <rect x="167.185" y="90.787" width="0.831" height="57.54"/>
            </g>
            <g transform="matrix(-1,0,0,1,305.523,446.041)">
                <rect x="168.846" y="86.632" width="0.831" height="61.695"/>
            </g>
            <g transform="matrix(-1,0,0,1,308.845,446.041)">
                <rect x="170.507" y="86.632" width="0.831" height="61.695"/>
            </g>
        </g>
    </g>
    <g transform="matrix(4.16667,0,0,4.16667,-75,2700)">
        <path d="M0,-648L-15,-648M989.352,-648L1004.35,-648M0,0L-15,0M989.352,0L1004.35,0M18,-666L18,-681M18,18L18,33M971.352,-666L971.352,-681M971.352,18L971.352,33" style="fill:none;fill-rule:nonzero;stroke:white;stroke-width:2.5px;"/>
    </g>
    <g transform="matrix(4.16667,0,0,4.16667,-75,2700)">
        <path d="M0,-648L-15,-648M989.352,-648L1004.35,-648M0,0L-15,0M989.352,0L1004.35,0M18,-666L18,-681M18,18L18,33M971.352,-666L971.352,-681M971.352,18L971.352,33" style="fill:none;fill-rule:nonzero;stroke:black;stroke-width:0.5px;"/>
    </g>
</svg>
