<?xml version="1.0" encoding="UTF-8" standalone="no"?>
<!DOCTYPE svg PUBLIC "-//W3C//DTD SVG 1.1//EN" "http://www.w3.org/Graphics/SVG/1.1/DTD/svg11.dtd">
<svg width="100%" height="100%" viewBox="0 0 1800 2700" version="1.1" xmlns="http://www.w3.org/2000/svg" xmlns:xlink="http://www.w3.org/1999/xlink" xml:space="preserve" xmlns:serif="http://www.serif.com/" style="fill-rule:evenodd;clip-rule:evenodd;stroke-miterlimit:10;">
    <g transform="matrix(1,0,0,1,-2172,0)">
        <g transform="matrix(4.16667,0,0,4.16667,0,0)">
            <text x="719.684px" y="594.856px" style="font-family:'HelveticaNeue-Light', 'Helvetica Neue';font-weight:300;font-size:14px;fill:rgb(237,33,36);">2<tspan x="728.868px 738.052px 747.236px " y="594.856px 594.856px 594.856px ">020</tspan></text>
        </g>
        <g transform="matrix(4.16667,0,0,4.16667,2784.44,1360.78)">
            <path d="M0,-38.227L-69.097,0L-31.029,0L13.435,-24.952L124.759,-24.952L169.224,0L207.292,0L138.194,-38.227L0,-38.227Z" style="fill:rgb(237,33,36);fill-rule:nonzero;"/>
        </g>
        <g transform="matrix(4.16667,0,0,4.16667,2784.35,1179.84)">
            <path d="M0,-38.786L-69.097,0L-37.188,0L7.078,-25.911L131.137,-25.911L175.402,0L207.311,0L138.215,-38.786L0,-38.786Z" style="fill:rgb(237,33,36);fill-rule:nonzero;"/>
        </g>
        <g transform="matrix(4.16667,0,0,4.16667,2784.35,1018.23)">
            <path d="M0,-35.769L-69.097,0L-44.385,0L5.819,-25.912L132.396,-25.912L182.599,0L207.311,0L138.214,-35.769L0,-35.769Z" style="fill:rgb(237,33,36);fill-rule:nonzero;"/>
        </g>
        <g transform="matrix(4.16667,0,0,4.16667,2784.35,871.529)">
            <path d="M0,-30.529L-69.097,0L-47.345,0L5.818,-23.571L132.396,-23.571L185.559,0L207.311,0L138.215,-30.529L0,-30.529Z" style="fill:rgb(237,33,36);fill-rule:nonzero;"/>
        </g>
        <g transform="matrix(4.16667,0,0,4.16667,2784.35,748.907)">
            <path d="M0,-25.811L-69.097,0L-52.623,0L5.818,-21.813L132.396,-21.813L190.838,0L207.311,0L138.215,-25.811L0,-25.811Z" style="fill:rgb(237,33,36);fill-rule:nonzero;"/>
        </g>
        <g transform="matrix(4.16667,0,0,4.16667,2546.85,1699.95)">
            <path d="M0,-34.488L8.066,-10.771L8.163,-10.771L15.794,-34.488L26.47,-34.488L26.47,0L19.369,0L19.369,-24.441L19.272,-24.441L10.819,0L4.975,0L-3.478,-24.199L-3.574,-24.199L-3.574,0L-10.674,0L-10.674,-34.488L0,-34.488Z" style="fill:rgb(35,31,32);fill-rule:nonzero;"/>
        </g>
        <g transform="matrix(4.16667,0,0,4.16667,2705.64,1697.13)">
            <path d="M0,-24.295L0,-20.915L0.097,-20.915C0.998,-22.202 2.084,-23.2 3.357,-23.909C4.629,-24.617 6.086,-24.972 7.728,-24.972C9.305,-24.972 10.747,-24.665 12.052,-24.054C13.356,-23.442 14.345,-22.363 15.022,-20.818C15.762,-21.912 16.768,-22.878 18.04,-23.715C19.313,-24.553 20.817,-24.972 22.556,-24.972C23.877,-24.972 25.1,-24.81 26.228,-24.489C27.354,-24.166 28.32,-23.651 29.125,-22.943C29.929,-22.235 30.558,-21.308 31.009,-20.166C31.46,-19.023 31.686,-17.645 31.686,-16.036L31.686,0.677L24.827,0.677L24.827,-13.477C24.827,-14.313 24.794,-15.101 24.73,-15.842C24.666,-16.583 24.489,-17.227 24.199,-17.775C23.909,-18.322 23.481,-18.757 22.919,-19.078C22.355,-19.4 21.591,-19.562 20.624,-19.562C19.658,-19.562 18.877,-19.377 18.282,-19.006C17.686,-18.637 17.219,-18.153 16.881,-17.557C16.543,-16.961 16.317,-16.285 16.205,-15.528C16.092,-14.771 16.035,-14.007 16.035,-13.235L16.035,0.677L9.177,0.677L9.177,-13.331C9.177,-14.072 9.16,-14.804 9.128,-15.528C9.097,-16.253 8.96,-16.921 8.718,-17.533C8.477,-18.144 8.074,-18.637 7.51,-19.006C6.947,-19.377 6.118,-19.562 5.023,-19.562C4.701,-19.562 4.274,-19.489 3.743,-19.345C3.212,-19.199 2.697,-18.926 2.198,-18.524C1.699,-18.12 1.272,-17.541 0.917,-16.785C0.562,-16.028 0.386,-15.038 0.386,-13.814L0.386,0.677L-6.473,0.677L-6.473,-24.295L0,-24.295Z" style="fill:rgb(35,31,32);fill-rule:nonzero;"/>
        </g>
        <g transform="matrix(4.16667,0,0,4.16667,2926.62,1598.51)">
            <path d="M0,24.344L0,20.866L-0.145,20.866C-1.014,22.315 -2.142,23.362 -3.526,24.005C-4.911,24.649 -6.327,24.972 -7.776,24.972C-9.612,24.972 -11.117,24.73 -12.292,24.247C-13.468,23.764 -14.394,23.081 -15.07,22.195C-15.746,21.309 -16.221,20.231 -16.495,18.958C-16.768,17.687 -16.906,16.278 -16.906,14.732L-16.906,-0.628L-10.047,-0.628L-10.047,13.477C-10.047,15.537 -9.725,17.074 -9.08,18.089C-8.437,19.103 -7.294,19.61 -5.652,19.61C-3.784,19.61 -2.432,19.055 -1.594,17.944C-0.757,16.834 -0.338,15.006 -0.338,12.462L-0.338,-0.628L6.521,-0.628L6.521,24.344L0,24.344Z" style="fill:rgb(35,31,32);fill-rule:nonzero;"/>
        </g>
        <g transform="matrix(4.16667,0,0,4.16667,2995.55,1621.56)">
            <path d="M0,12.606C0.305,13.138 0.701,13.572 1.183,13.91C1.666,14.249 2.222,14.498 2.849,14.66C3.478,14.821 4.13,14.901 4.806,14.901C5.289,14.901 5.796,14.845 6.327,14.732C6.859,14.619 7.342,14.442 7.776,14.2C8.211,13.958 8.574,13.637 8.864,13.234C9.153,12.832 9.297,12.325 9.297,11.713C9.297,10.683 8.613,9.909 7.245,9.394C5.876,8.88 3.968,8.364 1.521,7.849C0.523,7.624 -0.451,7.358 -1.4,7.051C-2.351,6.746 -3.197,6.344 -3.937,5.844C-4.677,5.346 -5.273,4.717 -5.724,3.96C-6.176,3.204 -6.4,2.278 -6.4,1.183C-6.4,-0.426 -6.086,-1.747 -5.458,-2.778C-4.83,-3.808 -4.001,-4.62 -2.97,-5.216C-1.94,-5.812 -0.781,-6.232 0.507,-6.472C1.795,-6.714 3.115,-6.835 4.468,-6.835C5.82,-6.835 7.132,-6.706 8.404,-6.448C9.676,-6.19 10.811,-5.756 11.81,-5.144C12.807,-4.532 13.636,-3.72 14.297,-2.705C14.957,-1.69 15.352,-0.41 15.481,1.135L8.96,1.135C8.864,-0.186 8.364,-1.079 7.462,-1.546C6.56,-2.012 5.498,-2.247 4.274,-2.247C3.889,-2.247 3.469,-2.222 3.019,-2.174C2.567,-2.126 2.157,-2.02 1.787,-1.86C1.417,-1.698 1.103,-1.465 0.845,-1.16C0.587,-0.853 0.459,-0.443 0.459,0.072C0.459,0.684 0.683,1.183 1.135,1.57C1.585,1.955 2.174,2.269 2.898,2.511C3.623,2.752 4.451,2.97 5.386,3.163C6.319,3.357 7.27,3.567 8.236,3.79C9.233,4.017 10.207,4.291 11.157,4.613C12.107,4.935 12.953,5.36 13.694,5.892C14.434,6.424 15.03,7.084 15.481,7.873C15.932,8.663 16.156,9.636 16.156,10.795C16.156,12.437 15.826,13.814 15.167,14.925C14.506,16.036 13.645,16.929 12.582,17.606C11.52,18.282 10.304,18.757 8.936,19.03C7.567,19.304 6.175,19.441 4.758,19.441C3.309,19.441 1.892,19.296 0.507,19.006C-0.878,18.716 -2.109,18.234 -3.188,17.557C-4.267,16.88 -5.152,15.987 -5.844,14.877C-6.537,13.765 -6.915,12.373 -6.98,10.699L-0.459,10.699C-0.459,11.439 -0.306,12.074 0,12.606" style="fill:rgb(35,31,32);fill-rule:nonzero;"/>
        </g>
        <g transform="matrix(4.16667,0,0,4.16667,3138.43,1675.39)">
            <path d="M0,-13.234C-0.82,-14.135 -2.069,-14.586 -3.743,-14.586C-4.839,-14.586 -5.747,-14.401 -6.472,-14.031C-7.197,-13.66 -7.777,-13.202 -8.212,-12.654C-8.647,-12.106 -8.952,-11.528 -9.129,-10.915C-9.306,-10.303 -9.412,-9.757 -9.443,-9.273L1.715,-9.273C1.393,-11.013 0.82,-12.333 0,-13.234M-7.752,-0.097C-6.723,0.902 -5.241,1.401 -3.308,1.401C-1.925,1.401 -0.733,1.056 0.265,0.363C1.263,-0.33 1.875,-1.062 2.101,-1.835L8.138,-1.835C7.173,1.159 5.692,3.301 3.696,4.588C1.699,5.877 -0.717,6.521 -3.55,6.521C-5.514,6.521 -7.286,6.207 -8.863,5.58C-10.441,4.951 -11.777,4.058 -12.872,2.899C-13.967,1.74 -14.813,0.355 -15.409,-1.256C-16.005,-2.865 -16.302,-4.636 -16.302,-6.569C-16.302,-8.436 -15.996,-10.175 -15.384,-11.785C-14.773,-13.395 -13.903,-14.788 -12.776,-15.963C-11.65,-17.138 -10.305,-18.064 -8.743,-18.741C-7.18,-19.416 -5.451,-19.755 -3.55,-19.755C-1.424,-19.755 0.426,-19.344 2.005,-18.524C3.581,-17.702 4.878,-16.599 5.893,-15.214C6.907,-13.83 7.639,-12.252 8.091,-10.482C8.54,-8.71 8.701,-6.858 8.574,-4.927L-9.443,-4.927C-9.346,-2.704 -8.783,-1.094 -7.752,-0.097" style="fill:rgb(35,31,32);fill-rule:nonzero;"/>
        </g>
        <g transform="matrix(4.16667,0,0,4.16667,3257.48,1598.51)">
            <path d="M0,24.344L0,20.866L-0.145,20.866C-1.015,22.315 -2.142,23.362 -3.527,24.005C-4.911,24.649 -6.328,24.972 -7.777,24.972C-9.613,24.972 -11.118,24.73 -12.294,24.247C-13.469,23.764 -14.394,23.081 -15.07,22.195C-15.746,21.309 -16.221,20.231 -16.495,18.958C-16.769,17.687 -16.906,16.278 -16.906,14.732L-16.906,-0.628L-10.047,-0.628L-10.047,13.477C-10.047,15.537 -9.725,17.074 -9.081,18.089C-8.438,19.103 -7.295,19.61 -5.652,19.61C-3.784,19.61 -2.432,19.055 -1.594,17.944C-0.757,16.834 -0.339,15.006 -0.339,12.462L-0.339,-0.628L6.52,-0.628L6.52,24.344L0,24.344Z" style="fill:rgb(35,31,32);fill-rule:nonzero;"/>
        </g>
        <g transform="matrix(4.16667,0,0,4.16667,3330.12,1697.13)">
            <path d="M0,-24.295L0,-20.915L0.097,-20.915C0.998,-22.202 2.085,-23.2 3.357,-23.909C4.629,-24.617 6.086,-24.972 7.729,-24.972C9.306,-24.972 10.747,-24.665 12.052,-24.054C13.356,-23.442 14.345,-22.363 15.022,-20.818C15.763,-21.912 16.768,-22.878 18.041,-23.715C19.313,-24.553 20.818,-24.972 22.557,-24.972C23.877,-24.972 25.1,-24.81 26.228,-24.489C27.355,-24.166 28.321,-23.651 29.126,-22.943C29.93,-22.235 30.559,-21.308 31.01,-20.166C31.46,-19.023 31.687,-17.645 31.687,-16.036L31.687,0.677L24.827,0.677L24.827,-13.477C24.827,-14.313 24.795,-15.101 24.731,-15.842C24.666,-16.583 24.489,-17.227 24.199,-17.775C23.909,-18.322 23.482,-18.757 22.919,-19.078C22.356,-19.4 21.591,-19.562 20.624,-19.562C19.659,-19.562 18.878,-19.377 18.283,-19.006C17.687,-18.637 17.219,-18.153 16.882,-17.557C16.543,-16.961 16.318,-16.285 16.206,-15.528C16.093,-14.771 16.036,-14.007 16.036,-13.235L16.036,0.677L9.177,0.677L9.177,-13.331C9.177,-14.072 9.161,-14.804 9.129,-15.528C9.097,-16.253 8.961,-16.921 8.719,-17.533C8.477,-18.144 8.074,-18.637 7.511,-19.006C6.947,-19.377 6.118,-19.562 5.023,-19.562C4.701,-19.562 4.275,-19.489 3.744,-19.345C3.213,-19.199 2.698,-18.926 2.198,-18.524C1.699,-18.12 1.272,-17.541 0.918,-16.785C0.563,-16.028 0.387,-15.038 0.387,-13.814L0.387,0.677L-6.472,0.677L-6.472,-24.295L0,-24.295Z" style="fill:rgb(35,31,32);fill-rule:nonzero;"/>
        </g>
        <g transform="matrix(4.16667,0,0,4.16667,3508.44,1697.13)">
            <path d="M0,-24.295L0,-20.915L0.097,-20.915C0.998,-22.202 2.085,-23.2 3.357,-23.909C4.628,-24.617 6.086,-24.972 7.729,-24.972C9.306,-24.972 10.747,-24.665 12.052,-24.054C13.356,-23.442 14.345,-22.363 15.022,-20.818C15.763,-21.912 16.768,-22.878 18.041,-23.715C19.312,-24.553 20.818,-24.972 22.557,-24.972C23.877,-24.972 25.1,-24.81 26.228,-24.489C27.355,-24.166 28.321,-23.651 29.126,-22.943C29.93,-22.235 30.559,-21.308 31.01,-20.166C31.46,-19.023 31.687,-17.645 31.687,-16.036L31.687,0.677L24.827,0.677L24.827,-13.477C24.827,-14.313 24.795,-15.101 24.731,-15.842C24.666,-16.583 24.489,-17.227 24.199,-17.775C23.909,-18.322 23.482,-18.757 22.919,-19.078C22.356,-19.4 21.591,-19.562 20.624,-19.562C19.659,-19.562 18.878,-19.377 18.283,-19.006C17.687,-18.637 17.219,-18.153 16.882,-17.557C16.543,-16.961 16.318,-16.285 16.206,-15.528C16.093,-14.771 16.036,-14.007 16.036,-13.235L16.036,0.677L9.177,0.677L9.177,-13.331C9.177,-14.072 9.161,-14.804 9.129,-15.528C9.097,-16.253 8.96,-16.921 8.719,-17.533C8.477,-18.144 8.074,-18.637 7.511,-19.006C6.947,-19.377 6.118,-19.562 5.023,-19.562C4.701,-19.562 4.275,-19.489 3.744,-19.345C3.213,-19.199 2.698,-18.926 2.198,-18.524C1.699,-18.12 1.271,-17.541 0.918,-16.785C0.563,-16.028 0.387,-15.038 0.387,-13.814L0.387,0.677L-6.472,0.677L-6.472,-24.295L0,-24.295Z" style="fill:rgb(35,31,32);fill-rule:nonzero;"/>
        </g>
        <g transform="matrix(4.16667,0,0,4.16667,-75,2700)">
            <path d="M0,-648L-15,-648M989.352,-648L1004.35,-648M0,0L-15,0M989.352,0L1004.35,0M18,-666L18,-681M18,18L18,33M971.352,-666L971.352,-681M971.352,18L971.352,33" style="fill:none;fill-rule:nonzero;stroke:white;stroke-width:2.5px;"/>
        </g>
        <g transform="matrix(4.16667,0,0,4.16667,-75,2700)">
            <path d="M0,-648L-15,-648M989.352,-648L1004.35,-648M0,0L-15,0M989.352,0L1004.35,0M18,-666L18,-681M18,18L18,33M971.352,-666L971.352,-681M971.352,18L971.352,33" style="fill:none;fill-rule:nonzero;stroke:black;stroke-width:0.5px;"/>
        </g>
    </g>
</svg>
