<?xml version="1.0" encoding="UTF-8" standalone="no"?>
<!DOCTYPE svg PUBLIC "-//W3C//DTD SVG 1.1//EN" "http://www.w3.org/Graphics/SVG/1.1/DTD/svg11.dtd">
<svg width="100%" height="100%" viewBox="0 0 1800 2700" version="1.1" xmlns="http://www.w3.org/2000/svg" xmlns:xlink="http://www.w3.org/1999/xlink" xml:space="preserve" xmlns:serif="http://www.serif.com/" style="fill-rule:evenodd;clip-rule:evenodd;stroke-linejoin:round;stroke-miterlimit:2;">
    <g transform="matrix(1,0,0,1,-2063,0)">
        <g id="Cover-Wrap" serif:id="Cover Wrap" transform="matrix(2.14606,0,0,1,-17237.9,0)">
            <rect x="8032.33" y="0" width="1800" height="2700" style="fill:none;"/>
            <clipPath id="_clip1">
                <rect x="8032.33" y="0" width="1800" height="2700"/>
            </clipPath>
            <g clip-path="url(#_clip1)">
                <g transform="matrix(0.978639,0,0,1,-2252.58,0)">
                    <rect x="10491.6" y="-37.5" width="1875" height="2775" style="fill:#fae985;"/>
                </g>
                <g transform="matrix(-0.0360517,-0.288745,0.18182,-0.104553,9150.38,2196.02)">
                    <rect x="-37.5" y="-37.5" width="1875" height="2775" style="fill:#f64528;"/>
                </g>
                <g transform="matrix(-0.0360517,-0.288745,0.18182,-0.104553,9010.36,1074.59)">
                    <rect x="-37.5" y="-37.5" width="1875" height="2775" style="fill:#f64528;"/>
                </g>
                <g transform="matrix(-0.0360517,-0.288745,0.18182,-0.104553,9332.64,1490.24)">
                    <rect x="-37.5" y="-37.5" width="1875" height="2775" style="fill:#f64528;"/>
                </g>
                <g transform="matrix(-0.0360517,-0.288745,0.18182,-0.104553,9192.63,368.803)">
                    <rect x="-37.5" y="-37.5" width="1875" height="2775" style="fill:#f64528;"/>
                </g>
                <g transform="matrix(-0.0722111,-0.578354,0.269496,-0.154969,9822.73,8773.39)">
                    <g transform="matrix(239.734,0,0,239.734,10733.8,648.342)">
                        <path d="M0.156,-0.512L0.156,-0L0.326,-0L0.326,-0.512L0.476,-0.512L0.476,-0.66L0.005,-0.66L0.005,-0.512L0.156,-0.512Z" style="fill:#5f5500;fill-rule:nonzero;"/>
                    </g>
                    <g transform="matrix(239.734,0,0,239.734,10857.3,648.342)">
                        <path d="M0.406,-0.257L0.406,-0L0.576,-0L0.576,-0.66L0.406,-0.66L0.406,-0.405L0.207,-0.405L0.207,-0.66L0.037,-0.66L0.037,-0L0.207,-0L0.207,-0.257L0.406,-0.257Z" style="fill:#5f5500;fill-rule:nonzero;"/>
                    </g>
                    <g transform="matrix(239.734,0,0,239.734,11011.8,648.342)">
                        <path d="M0.037,-0.66L0.037,-0L0.469,-0L0.469,-0.149L0.207,-0.149L0.207,-0.259L0.468,-0.259L0.468,-0.403L0.207,-0.403L0.207,-0.512L0.469,-0.512L0.469,-0.66L0.037,-0.66Z" style="fill:#5f5500;fill-rule:nonzero;"/>
                    </g>
                    <g transform="matrix(239.734,0,0,239.734,11205.6,648.342)">
                        <path d="M0.043,-0.66L0.043,-0L0.307,-0C0.443,-0 0.523,-0.076 0.523,-0.189C0.523,-0.294 0.462,-0.344 0.39,-0.353C0.449,-0.367 0.497,-0.421 0.497,-0.498C0.497,-0.617 0.397,-0.66 0.283,-0.66L0.043,-0.66ZM0.213,-0.404L0.213,-0.525L0.255,-0.525C0.3,-0.525 0.328,-0.514 0.328,-0.467C0.328,-0.425 0.303,-0.404 0.257,-0.404L0.213,-0.404ZM0.213,-0.136L0.213,-0.271L0.26,-0.271C0.312,-0.271 0.343,-0.254 0.343,-0.205C0.343,-0.157 0.316,-0.136 0.262,-0.136L0.213,-0.136Z" style="fill:#5f5500;fill-rule:nonzero;"/>
                    </g>
                    <g transform="matrix(239.734,0,0,239.734,11341.6,648.342)">
                        <path d="M0.033,-0.66L0.033,-0L0.204,-0L0.204,-0.257L0.217,-0.257L0.356,-0L0.548,-0L0.388,-0.27C0.439,-0.279 0.517,-0.33 0.517,-0.456C0.517,-0.583 0.432,-0.66 0.315,-0.66L0.033,-0.66ZM0.204,-0.373L0.204,-0.527L0.255,-0.527C0.299,-0.527 0.342,-0.51 0.342,-0.45C0.342,-0.391 0.298,-0.373 0.254,-0.373L0.204,-0.373Z" style="fill:#5f5500;fill-rule:nonzero;"/>
                    </g>
                    <g transform="matrix(239.734,0,0,239.734,11486.3,648.342)">
                        <rect x="0.042" y="-0.66" width="0.171" height="0.66" style="fill:#5f5500;fill-rule:nonzero;"/>
                    </g>
                    <g transform="matrix(239.734,0,0,239.734,11554,648.342)">
                        <path d="M0.396,-0.157C0.265,-0.157 0.211,-0.245 0.211,-0.331C0.211,-0.416 0.265,-0.503 0.396,-0.503C0.45,-0.503 0.502,-0.483 0.526,-0.467L0.599,-0.611C0.567,-0.638 0.487,-0.672 0.383,-0.672C0.188,-0.672 0.026,-0.526 0.026,-0.329C0.026,-0.133 0.188,0.012 0.383,0.012C0.487,0.012 0.567,-0.023 0.599,-0.049L0.526,-0.194C0.502,-0.178 0.45,-0.157 0.396,-0.157Z" style="fill:#5f5500;fill-rule:nonzero;"/>
                    </g>
                    <g transform="matrix(239.734,0,0,239.734,11709.5,648.342)">
                        <path d="M0.342,-0.344L0.558,-0.66L0.366,-0.66L0.194,-0.401L0.194,-0.66L0.023,-0.66L0.023,-0L0.194,-0L0.194,-0.284L0.383,-0L0.586,-0L0.342,-0.344Z" style="fill:#5f5500;fill-rule:nonzero;"/>
                    </g>
                    <g transform="matrix(239.734,0,0,239.734,11100.5,888.075)">
                        <path d="M0.406,-0.257L0.406,-0L0.576,-0L0.576,-0.66L0.406,-0.66L0.406,-0.405L0.207,-0.405L0.207,-0.66L0.037,-0.66L0.037,-0L0.207,-0L0.207,-0.257L0.406,-0.257Z" style="fill:#5f5500;fill-rule:nonzero;"/>
                    </g>
                    <g transform="matrix(239.734,0,0,239.734,11255.1,888.075)">
                        <path d="M0.02,-0.331C0.02,-0.138 0.156,0.012 0.363,0.012C0.565,0.012 0.705,-0.138 0.705,-0.331C0.705,-0.523 0.56,-0.672 0.363,-0.672C0.168,-0.672 0.02,-0.523 0.02,-0.331ZM0.198,-0.331C0.198,-0.432 0.264,-0.513 0.363,-0.513C0.461,-0.513 0.528,-0.432 0.528,-0.331C0.528,-0.229 0.461,-0.148 0.363,-0.148C0.264,-0.148 0.198,-0.229 0.198,-0.331Z" style="fill:#5f5500;fill-rule:nonzero;"/>
                    </g>
                    <g transform="matrix(239.734,0,0,239.734,11434.6,888.075)">
                        <path d="M0.408,-0.66L0.408,-0.265C0.408,-0.183 0.372,-0.143 0.309,-0.143C0.244,-0.143 0.208,-0.183 0.208,-0.265L0.208,-0.66L0.038,-0.66L0.038,-0.256C0.038,-0.093 0.136,0.012 0.309,0.012C0.481,0.012 0.579,-0.093 0.579,-0.256L0.579,-0.66L0.408,-0.66Z" style="fill:#5f5500;fill-rule:nonzero;"/>
                    </g>
                    <g transform="matrix(239.734,0,0,239.734,11588.4,888.075)">
                        <path d="M0.289,-0.672C0.17,-0.672 0.059,-0.601 0.059,-0.485C0.059,-0.369 0.14,-0.316 0.225,-0.283C0.312,-0.251 0.345,-0.229 0.345,-0.195C0.345,-0.164 0.32,-0.145 0.268,-0.145C0.2,-0.145 0.109,-0.194 0.095,-0.206L0.011,-0.063C0.025,-0.049 0.126,0.012 0.268,0.012C0.396,0.012 0.523,-0.047 0.523,-0.187C0.523,-0.298 0.445,-0.361 0.345,-0.396C0.265,-0.424 0.234,-0.443 0.234,-0.474C0.234,-0.505 0.264,-0.518 0.308,-0.518C0.359,-0.518 0.416,-0.485 0.431,-0.472L0.513,-0.609C0.499,-0.62 0.414,-0.672 0.289,-0.672Z" style="fill:#5f5500;fill-rule:nonzero;"/>
                    </g>
                    <g transform="matrix(239.734,0,0,239.734,11725.1,888.075)">
                        <path d="M0.037,-0.66L0.037,-0L0.469,-0L0.469,-0.149L0.207,-0.149L0.207,-0.259L0.468,-0.259L0.468,-0.403L0.207,-0.403L0.207,-0.512L0.469,-0.512L0.469,-0.66L0.037,-0.66Z" style="fill:#5f5500;fill-rule:nonzero;"/>
                    </g>
                </g>
                <g transform="matrix(0.269496,-0.154969,0.0722111,0.578354,6409.04,3382.1)">
                    <g transform="matrix(239.734,0,0,239.734,10733.8,648.342)">
                        <path d="M0.256,-0.66L-0.011,-0L0.172,-0L0.218,-0.124L0.463,-0.124L0.508,-0L0.69,-0L0.424,-0.66L0.256,-0.66ZM0.275,-0.273L0.34,-0.455L0.341,-0.455L0.406,-0.273L0.275,-0.273Z" style="fill:#5f5500;fill-rule:nonzero;"/>
                    </g>
                    <g transform="matrix(239.734,0,0,239.734,10901.5,648.342)">
                        <path d="M0.037,-0.66L0.037,-0L0.207,-0L0.207,-0.241L0.294,-0.241C0.422,-0.241 0.522,-0.32 0.522,-0.455C0.522,-0.59 0.422,-0.66 0.294,-0.66L0.037,-0.66ZM0.207,-0.374L0.207,-0.527L0.247,-0.527C0.3,-0.527 0.34,-0.506 0.34,-0.451C0.34,-0.396 0.3,-0.374 0.247,-0.374L0.207,-0.374Z" style="fill:#5f5500;fill-rule:nonzero;"/>
                    </g>
                    <g transform="matrix(239.734,0,0,239.734,11036.8,648.342)">
                        <path d="M0.037,-0.66L0.037,-0L0.207,-0L0.207,-0.241L0.294,-0.241C0.422,-0.241 0.522,-0.32 0.522,-0.455C0.522,-0.59 0.422,-0.66 0.294,-0.66L0.037,-0.66ZM0.207,-0.374L0.207,-0.527L0.247,-0.527C0.3,-0.527 0.34,-0.506 0.34,-0.451C0.34,-0.396 0.3,-0.374 0.247,-0.374L0.207,-0.374Z" style="fill:#5f5500;fill-rule:nonzero;"/>
                    </g>
                    <g transform="matrix(239.734,0,0,239.734,11154.1,648.342)">
                        <path d="M0.256,-0.66L-0.011,-0L0.172,-0L0.218,-0.124L0.463,-0.124L0.508,-0L0.69,-0L0.424,-0.66L0.256,-0.66ZM0.275,-0.273L0.34,-0.455L0.341,-0.455L0.406,-0.273L0.275,-0.273Z" style="fill:#5f5500;fill-rule:nonzero;"/>
                    </g>
                    <g transform="matrix(239.734,0,0,239.734,11321.8,648.342)">
                        <path d="M0.033,-0.66L0.033,-0L0.204,-0L0.204,-0.257L0.217,-0.257L0.356,-0L0.548,-0L0.388,-0.27C0.439,-0.279 0.517,-0.33 0.517,-0.456C0.517,-0.583 0.432,-0.66 0.315,-0.66L0.033,-0.66ZM0.204,-0.373L0.204,-0.527L0.255,-0.527C0.299,-0.527 0.342,-0.51 0.342,-0.45C0.342,-0.391 0.298,-0.373 0.254,-0.373L0.204,-0.373Z" style="fill:#5f5500;fill-rule:nonzero;"/>
                    </g>
                    <g transform="matrix(239.734,0,0,239.734,11466.5,648.342)">
                        <path d="M0.037,-0.66L0.037,-0L0.469,-0L0.469,-0.149L0.207,-0.149L0.207,-0.259L0.468,-0.259L0.468,-0.403L0.207,-0.403L0.207,-0.512L0.469,-0.512L0.469,-0.66L0.037,-0.66Z" style="fill:#5f5500;fill-rule:nonzero;"/>
                    </g>
                    <g transform="matrix(239.734,0,0,239.734,11595.4,648.342)">
                        <path d="M0.436,-0L0.669,-0L0.669,-0.66L0.499,-0.66L0.499,-0.185L0.269,-0.66L0.037,-0.66L0.037,-0L0.208,-0L0.208,-0.478L0.436,-0Z" style="fill:#5f5500;fill-rule:nonzero;"/>
                    </g>
                    <g transform="matrix(239.734,0,0,239.734,11772.2,648.342)">
                        <path d="M0.156,-0.512L0.156,-0L0.326,-0L0.326,-0.512L0.476,-0.512L0.476,-0.66L0.005,-0.66L0.005,-0.512L0.156,-0.512Z" style="fill:#5f5500;fill-rule:nonzero;"/>
                    </g>
                    <g transform="matrix(239.734,0,0,239.734,11058,888.075)">
                        <path d="M0.02,-0.331C0.02,-0.173 0.111,-0.044 0.258,-0.002C0.208,0.013 0.167,0.039 0.141,0.071L0.208,0.151C0.21,0.148 0.25,0.114 0.312,0.114C0.416,0.114 0.438,0.172 0.539,0.172C0.62,0.172 0.677,0.132 0.698,0.095L0.643,-0.016C0.639,-0.01 0.593,0.016 0.537,0.016C0.507,0.016 0.481,0.009 0.454,0.001C0.606,-0.037 0.705,-0.168 0.705,-0.331C0.705,-0.523 0.56,-0.672 0.363,-0.672C0.168,-0.672 0.02,-0.523 0.02,-0.331ZM0.198,-0.331C0.198,-0.432 0.264,-0.513 0.363,-0.513C0.461,-0.513 0.528,-0.432 0.528,-0.331C0.528,-0.229 0.461,-0.148 0.363,-0.148C0.264,-0.148 0.198,-0.229 0.198,-0.331Z" style="fill:#5f5500;fill-rule:nonzero;"/>
                    </g>
                    <g transform="matrix(239.734,0,0,239.734,11234.8,888.075)">
                        <path d="M0.408,-0.66L0.408,-0.265C0.408,-0.183 0.372,-0.143 0.309,-0.143C0.244,-0.143 0.208,-0.183 0.208,-0.265L0.208,-0.66L0.038,-0.66L0.038,-0.256C0.038,-0.093 0.136,0.012 0.309,0.012C0.481,0.012 0.579,-0.093 0.579,-0.256L0.579,-0.66L0.408,-0.66Z" style="fill:#5f5500;fill-rule:nonzero;"/>
                    </g>
                    <g transform="matrix(239.734,0,0,239.734,11381.9,888.075)">
                        <path d="M0.256,-0.66L-0.011,-0L0.172,-0L0.218,-0.124L0.463,-0.124L0.508,-0L0.69,-0L0.424,-0.66L0.256,-0.66ZM0.275,-0.273L0.34,-0.455L0.341,-0.455L0.406,-0.273L0.275,-0.273Z" style="fill:#5f5500;fill-rule:nonzero;"/>
                    </g>
                    <g transform="matrix(239.734,0,0,239.734,11549.6,888.075)">
                        <path d="M0.033,-0.66L0.033,-0L0.204,-0L0.204,-0.257L0.217,-0.257L0.356,-0L0.548,-0L0.388,-0.27C0.439,-0.279 0.517,-0.33 0.517,-0.456C0.517,-0.583 0.432,-0.66 0.315,-0.66L0.033,-0.66ZM0.204,-0.373L0.204,-0.527L0.255,-0.527C0.299,-0.527 0.342,-0.51 0.342,-0.45C0.342,-0.391 0.298,-0.373 0.254,-0.373L0.204,-0.373Z" style="fill:#5f5500;fill-rule:nonzero;"/>
                    </g>
                    <g transform="matrix(239.734,0,0,239.734,11688.7,888.075)">
                        <path d="M0.156,-0.512L0.156,-0L0.326,-0L0.326,-0.512L0.476,-0.512L0.476,-0.66L0.005,-0.66L0.005,-0.512L0.156,-0.512Z" style="fill:#5f5500;fill-rule:nonzero;"/>
                    </g>
                    <g transform="matrix(239.734,0,0,239.734,11812.3,888.075)">
                        <path d="M0.037,-0.66L0.037,-0L0.469,-0L0.469,-0.149L0.207,-0.149L0.207,-0.259L0.468,-0.259L0.468,-0.403L0.207,-0.403L0.207,-0.512L0.469,-0.512L0.469,-0.66L0.037,-0.66Z" style="fill:#5f5500;fill-rule:nonzero;"/>
                    </g>
                    <g transform="matrix(239.734,0,0,239.734,11941.2,888.075)">
                        <path d="M0.033,-0.66L0.033,-0L0.204,-0L0.204,-0.257L0.217,-0.257L0.356,-0L0.548,-0L0.388,-0.27C0.439,-0.279 0.517,-0.33 0.517,-0.456C0.517,-0.583 0.432,-0.66 0.315,-0.66L0.033,-0.66ZM0.204,-0.373L0.204,-0.527L0.255,-0.527C0.299,-0.527 0.342,-0.51 0.342,-0.45C0.342,-0.391 0.298,-0.373 0.254,-0.373L0.204,-0.373Z" style="fill:#5f5500;fill-rule:nonzero;"/>
                    </g>
                    <g transform="matrix(239.734,0,0,239.734,12085.9,888.075)">
                        <path d="M0.043,-0.66L0.043,-0L0.446,-0L0.446,-0.149L0.213,-0.149L0.213,-0.66L0.043,-0.66Z" style="fill:#5f5500;fill-rule:nonzero;"/>
                    </g>
                    <g transform="matrix(239.734,0,0,239.734,12185,888.075)">
                        <path d="M0.207,-0.238L0.207,-0L0.377,-0L0.377,-0.238L0.606,-0.66L0.399,-0.66L0.292,-0.432L0.184,-0.66L-0.023,-0.66L0.207,-0.238Z" style="fill:#5f5500;fill-rule:nonzero;"/>
                    </g>
                </g>
                <g id="Names">
                    <g transform="matrix(0.0152323,0.121999,-0.0568478,0.0326895,9320.61,-883.111)">
                        <g transform="matrix(239.821,0,0,239.821,9451.83,348.267)">
                            <path d="M0.742,-0.66L0.535,-0.66L0.4,-0.217L0.391,-0.166L0.382,-0.217L0.248,-0.66L0.041,-0.66L0.041,-0L0.188,-0L0.188,-0.392L0.182,-0.501L0.207,-0.376L0.319,-0.053L0.463,-0.053L0.576,-0.376L0.601,-0.501L0.595,-0.392L0.595,-0L0.742,-0L0.742,-0.66Z" style="fill:#595219;fill-rule:nonzero;"/>
                        </g>
                        <g transform="matrix(239.821,0,0,239.821,9648.25,348.267)">
                            <path d="M0.021,-0.331C0.021,-0.138 0.157,0.012 0.359,0.012C0.558,0.012 0.698,-0.138 0.698,-0.331C0.698,-0.523 0.554,-0.672 0.359,-0.672C0.167,-0.672 0.021,-0.523 0.021,-0.331ZM0.174,-0.331C0.174,-0.444 0.25,-0.535 0.359,-0.535C0.469,-0.535 0.545,-0.444 0.545,-0.331C0.545,-0.217 0.469,-0.127 0.359,-0.127C0.25,-0.127 0.174,-0.217 0.174,-0.331Z" style="fill:#595219;fill-rule:nonzero;"/>
                        </g>
                        <g transform="matrix(239.821,0,0,239.821,9826.07,348.267)">
                            <path d="M0.021,-0.331C0.021,-0.138 0.157,0.012 0.359,0.012C0.558,0.012 0.698,-0.138 0.698,-0.331C0.698,-0.523 0.554,-0.672 0.359,-0.672C0.167,-0.672 0.021,-0.523 0.021,-0.331ZM0.174,-0.331C0.174,-0.444 0.25,-0.535 0.359,-0.535C0.469,-0.535 0.545,-0.444 0.545,-0.331C0.545,-0.217 0.469,-0.127 0.359,-0.127C0.25,-0.127 0.174,-0.217 0.174,-0.331Z" style="fill:#595219;fill-rule:nonzero;"/>
                        </g>
                        <g transform="matrix(239.821,0,0,239.821,10003.9,348.267)">
                            <path d="M0.039,-0.66L0.039,-0L0.187,-0L0.187,-0.263L0.225,-0.263L0.368,-0L0.534,-0L0.373,-0.274C0.426,-0.282 0.507,-0.334 0.507,-0.459C0.507,-0.585 0.422,-0.66 0.307,-0.66L0.039,-0.66ZM0.187,-0.365L0.187,-0.544L0.255,-0.544C0.309,-0.544 0.355,-0.522 0.355,-0.455C0.355,-0.388 0.308,-0.365 0.254,-0.365L0.187,-0.365Z" style="fill:#595219;fill-rule:nonzero;"/>
                        </g>
                        <g transform="matrix(239.821,0,0,239.821,10145.4,348.267)">
                            <path d="M0.042,-0.66L0.042,-0L0.463,-0L0.463,-0.129L0.189,-0.129L0.189,-0.268L0.46,-0.268L0.46,-0.394L0.189,-0.394L0.189,-0.531L0.463,-0.531L0.463,-0.66L0.042,-0.66Z" style="fill:#595219;fill-rule:nonzero;"/>
                        </g>
                    </g>
                    <g transform="matrix(0.0152323,0.121999,-0.0568478,0.0326895,9335.79,-761.478)">
                        <g transform="matrix(240.026,0,0,240.026,9451.83,348.267)">
                            <path d="M0.308,-0.341L0.534,-0.66L0.368,-0.66L0.179,-0.389L0.179,-0.66L0.032,-0.66L0.032,-0L0.179,-0L0.179,-0.289L0.384,-0L0.56,-0L0.308,-0.341Z" style="fill:#595219;fill-rule:nonzero;"/>
                        </g>
                        <g transform="matrix(240.026,0,0,240.026,9590.21,348.267)">
                            <path d="M0.256,-0.66L-0.005,-0L0.153,-0L0.202,-0.134L0.457,-0.134L0.505,-0L0.662,-0L0.402,-0.66L0.256,-0.66ZM0.251,-0.263L0.329,-0.483L0.33,-0.483L0.408,-0.263L0.251,-0.263Z" style="fill:#595219;fill-rule:nonzero;"/>
                        </g>
                        <g transform="matrix(240.026,0,0,240.026,9736.5,348.267)">
                            <path d="M0.165,-0.531L0.165,-0L0.313,-0L0.313,-0.531L0.471,-0.531L0.471,-0.66L0.008,-0.66L0.008,-0.531L0.165,-0.531Z" style="fill:#595219;fill-rule:nonzero;"/>
                        </g>
                        <g transform="matrix(240.026,0,0,240.026,9858.8,348.267)">
                            <path d="M0.052,-0.66L0.052,-0.531L0.334,-0.531L0.006,-0L0.571,-0L0.571,-0.129L0.263,-0.129L0.592,-0.66L0.052,-0.66Z" style="fill:#595219;fill-rule:nonzero;"/>
                        </g>
                        <g transform="matrix(240.026,0,0,240.026,10009.8,348.267)">
                            <path d="M0.042,-0.66L0.042,-0L0.463,-0L0.463,-0.129L0.189,-0.129L0.189,-0.268L0.46,-0.268L0.46,-0.394L0.189,-0.394L0.189,-0.531L0.463,-0.531L0.463,-0.66L0.042,-0.66Z" style="fill:#595219;fill-rule:nonzero;"/>
                        </g>
                        <g transform="matrix(240.026,0,0,240.026,10138.1,348.267)">
                            <path d="M0.448,-0L0.65,-0L0.65,-0.66L0.503,-0.66L0.503,-0.159L0.243,-0.66L0.042,-0.66L0.042,-0L0.189,-0L0.189,-0.504L0.448,-0Z" style="fill:#595219;fill-rule:nonzero;"/>
                        </g>
                        <g transform="matrix(240.026,0,0,240.026,10311.2,348.267)">
                            <path d="M0.282,-0.672C0.164,-0.672 0.059,-0.602 0.059,-0.492C0.059,-0.381 0.138,-0.329 0.225,-0.294C0.312,-0.26 0.356,-0.234 0.356,-0.19C0.356,-0.15 0.325,-0.124 0.263,-0.124C0.189,-0.124 0.103,-0.173 0.088,-0.185L0.014,-0.061C0.027,-0.048 0.126,0.012 0.262,0.012C0.39,0.012 0.51,-0.05 0.51,-0.183C0.51,-0.295 0.427,-0.356 0.329,-0.392C0.248,-0.422 0.21,-0.445 0.21,-0.483C0.21,-0.52 0.245,-0.538 0.297,-0.538C0.354,-0.538 0.409,-0.504 0.425,-0.491L0.496,-0.61C0.484,-0.62 0.404,-0.672 0.282,-0.672Z" style="fill:#595219;fill-rule:nonzero;"/>
                        </g>
                        <g transform="matrix(240.026,0,0,240.026,10445.3,348.267)">
                            <path d="M0.165,-0.531L0.165,-0L0.313,-0L0.313,-0.531L0.471,-0.531L0.471,-0.66L0.008,-0.66L0.008,-0.531L0.165,-0.531Z" style="fill:#595219;fill-rule:nonzero;"/>
                        </g>
                        <g transform="matrix(240.026,0,0,240.026,10567.6,348.267)">
                            <path d="M0.042,-0.66L0.042,-0L0.463,-0L0.463,-0.129L0.189,-0.129L0.189,-0.268L0.46,-0.268L0.46,-0.394L0.189,-0.394L0.189,-0.531L0.463,-0.531L0.463,-0.66L0.042,-0.66Z" style="fill:#595219;fill-rule:nonzero;"/>
                        </g>
                        <g transform="matrix(240.026,0,0,240.026,10695.9,348.267)">
                            <rect x="0.048" y="-0.66" width="0.148" height="0.66" style="fill:#595219;fill-rule:nonzero;"/>
                        </g>
                        <g transform="matrix(240.026,0,0,240.026,10760.6,348.267)">
                            <path d="M0.448,-0L0.65,-0L0.65,-0.66L0.503,-0.66L0.503,-0.159L0.243,-0.66L0.042,-0.66L0.042,-0L0.189,-0L0.189,-0.504L0.448,-0Z" style="fill:#595219;fill-rule:nonzero;"/>
                        </g>
                    </g>
                    <g transform="matrix(0.0152323,0.121999,-0.0568478,0.0326895,9361.07,-558.973)">
                        <g transform="matrix(240.026,0,0,240.026,9451.83,348.267)">
                            <path d="M0.354,-0.369L0.354,-0.256L0.525,-0.256C0.518,-0.18 0.455,-0.127 0.359,-0.127C0.25,-0.127 0.174,-0.219 0.174,-0.331C0.174,-0.442 0.25,-0.535 0.359,-0.535C0.437,-0.535 0.482,-0.498 0.51,-0.456L0.649,-0.522C0.608,-0.591 0.525,-0.672 0.359,-0.672C0.156,-0.672 0.021,-0.521 0.021,-0.331C0.021,-0.14 0.156,0.012 0.359,0.012C0.557,0.012 0.691,-0.138 0.691,-0.327L0.691,-0.369L0.354,-0.369Z" style="fill:#595219;fill-rule:nonzero;"/>
                        </g>
                        <g transform="matrix(240.026,0,0,240.026,9628.13,348.267)">
                            <path d="M0.039,-0.66L0.039,-0L0.187,-0L0.187,-0.263L0.225,-0.263L0.368,-0L0.534,-0L0.373,-0.274C0.426,-0.282 0.507,-0.334 0.507,-0.459C0.507,-0.585 0.422,-0.66 0.307,-0.66L0.039,-0.66ZM0.187,-0.365L0.187,-0.544L0.255,-0.544C0.309,-0.544 0.355,-0.522 0.355,-0.455C0.355,-0.388 0.308,-0.365 0.254,-0.365L0.187,-0.365Z" style="fill:#595219;fill-rule:nonzero;"/>
                        </g>
                        <g transform="matrix(240.026,0,0,240.026,9769.75,348.267)">
                            <path d="M0.042,-0.66L0.042,-0L0.463,-0L0.463,-0.129L0.189,-0.129L0.189,-0.268L0.46,-0.268L0.46,-0.394L0.189,-0.394L0.189,-0.531L0.463,-0.531L0.463,-0.66L0.042,-0.66Z" style="fill:#595219;fill-rule:nonzero;"/>
                        </g>
                        <g transform="matrix(240.026,0,0,240.026,9898.04,348.267)">
                            <path d="M0.042,-0.66L0.042,-0L0.463,-0L0.463,-0.129L0.189,-0.129L0.189,-0.268L0.46,-0.268L0.46,-0.394L0.189,-0.394L0.189,-0.531L0.463,-0.531L0.463,-0.66L0.042,-0.66Z" style="fill:#595219;fill-rule:nonzero;"/>
                        </g>
                        <g transform="matrix(240.026,0,0,240.026,10026.3,348.267)">
                            <path d="M0.039,-0.66L0.039,-0L0.187,-0L0.187,-0.263L0.225,-0.263L0.368,-0L0.534,-0L0.373,-0.274C0.426,-0.282 0.507,-0.334 0.507,-0.459C0.507,-0.585 0.422,-0.66 0.307,-0.66L0.039,-0.66ZM0.187,-0.365L0.187,-0.544L0.255,-0.544C0.309,-0.544 0.355,-0.522 0.355,-0.455C0.355,-0.388 0.308,-0.365 0.254,-0.365L0.187,-0.365Z" style="fill:#595219;fill-rule:nonzero;"/>
                        </g>
                        <g transform="matrix(240.026,0,0,240.026,10231.4,348.267)">
                            <path d="M0.018,-0.178C0.018,-0.054 0.122,0.012 0.237,0.012C0.342,0.012 0.409,-0.029 0.461,-0.07L0.526,-0L0.711,-0L0.572,-0.147C0.604,-0.173 0.643,-0.22 0.659,-0.245L0.562,-0.333C0.527,-0.285 0.493,-0.25 0.476,-0.237L0.38,-0.339C0.426,-0.362 0.516,-0.421 0.516,-0.507C0.516,-0.601 0.451,-0.672 0.321,-0.672C0.186,-0.672 0.113,-0.595 0.113,-0.509C0.113,-0.437 0.161,-0.382 0.191,-0.366C0.151,-0.355 0.018,-0.302 0.018,-0.178ZM0.32,-0.561C0.359,-0.561 0.382,-0.537 0.382,-0.507C0.382,-0.458 0.322,-0.425 0.306,-0.419C0.301,-0.424 0.257,-0.469 0.257,-0.507C0.257,-0.534 0.279,-0.561 0.32,-0.561ZM0.263,-0.278L0.367,-0.168C0.347,-0.15 0.306,-0.126 0.265,-0.126C0.22,-0.126 0.185,-0.146 0.185,-0.191C0.185,-0.241 0.243,-0.269 0.263,-0.278Z" style="fill:#595219;fill-rule:nonzero;"/>
                        </g>
                        <g transform="matrix(240.026,0,0,240.026,10462.1,348.267)">
                            <path d="M0.282,-0.672C0.164,-0.672 0.059,-0.602 0.059,-0.492C0.059,-0.381 0.138,-0.329 0.225,-0.294C0.312,-0.26 0.356,-0.234 0.356,-0.19C0.356,-0.15 0.325,-0.124 0.263,-0.124C0.189,-0.124 0.103,-0.173 0.088,-0.185L0.014,-0.061C0.027,-0.048 0.126,0.012 0.262,0.012C0.39,0.012 0.51,-0.05 0.51,-0.183C0.51,-0.295 0.427,-0.356 0.329,-0.392C0.248,-0.422 0.21,-0.445 0.21,-0.483C0.21,-0.52 0.245,-0.538 0.297,-0.538C0.354,-0.538 0.409,-0.504 0.425,-0.491L0.496,-0.61C0.484,-0.62 0.404,-0.672 0.282,-0.672Z" style="fill:#595219;fill-rule:nonzero;"/>
                        </g>
                        <g transform="matrix(240.026,0,0,240.026,10596.2,348.267)">
                            <rect x="0.048" y="-0.66" width="0.148" height="0.66" style="fill:#595219;fill-rule:nonzero;"/>
                        </g>
                        <g transform="matrix(240.026,0,0,240.026,10660.8,348.267)">
                            <path d="M0.042,-0.66L0.042,-0L0.463,-0L0.463,-0.129L0.189,-0.129L0.189,-0.268L0.46,-0.268L0.46,-0.394L0.189,-0.394L0.189,-0.531L0.463,-0.531L0.463,-0.66L0.042,-0.66Z" style="fill:#595219;fill-rule:nonzero;"/>
                        </g>
                        <g transform="matrix(240.026,0,0,240.026,10789.1,348.267)">
                            <path d="M0.354,-0.369L0.354,-0.256L0.525,-0.256C0.518,-0.18 0.455,-0.127 0.359,-0.127C0.25,-0.127 0.174,-0.219 0.174,-0.331C0.174,-0.442 0.25,-0.535 0.359,-0.535C0.437,-0.535 0.482,-0.498 0.51,-0.456L0.649,-0.522C0.608,-0.591 0.525,-0.672 0.359,-0.672C0.156,-0.672 0.021,-0.521 0.021,-0.331C0.021,-0.14 0.156,0.012 0.359,0.012C0.557,0.012 0.691,-0.138 0.691,-0.327L0.691,-0.369L0.354,-0.369Z" style="fill:#595219;fill-rule:nonzero;"/>
                        </g>
                        <g transform="matrix(240.026,0,0,240.026,10965.4,348.267)">
                            <path d="M0.042,-0.66L0.042,-0L0.463,-0L0.463,-0.129L0.189,-0.129L0.189,-0.268L0.46,-0.268L0.46,-0.394L0.189,-0.394L0.189,-0.531L0.463,-0.531L0.463,-0.66L0.042,-0.66Z" style="fill:#595219;fill-rule:nonzero;"/>
                        </g>
                        <g transform="matrix(240.026,0,0,240.026,11093.7,348.267)">
                            <path d="M0.046,-0.66L0.046,-0L0.434,-0L0.434,-0.129L0.194,-0.129L0.194,-0.66L0.046,-0.66Z" style="fill:#595219;fill-rule:nonzero;"/>
                        </g>
                    </g>
                    <g transform="matrix(0.0152323,0.121999,-0.0568478,0.0326895,9459.96,233.078)">
                        <g transform="matrix(240.026,0,0,240.026,9451.83,348.267)">
                            <path d="M0.046,-0.66L0.046,-0L0.193,-0L0.193,-0.267L0.409,-0.267L0.409,-0.395L0.193,-0.395L0.193,-0.531L0.426,-0.531L0.426,-0.66L0.046,-0.66Z" style="fill:#595219;fill-rule:nonzero;"/>
                        </g>
                        <g transform="matrix(240.026,0,0,240.026,9566.8,348.267)">
                            <path d="M0.021,-0.331C0.021,-0.138 0.157,0.012 0.359,0.012C0.558,0.012 0.698,-0.138 0.698,-0.331C0.698,-0.523 0.554,-0.672 0.359,-0.672C0.167,-0.672 0.021,-0.523 0.021,-0.331ZM0.174,-0.331C0.174,-0.444 0.25,-0.535 0.359,-0.535C0.469,-0.535 0.545,-0.444 0.545,-0.331C0.545,-0.217 0.469,-0.127 0.359,-0.127C0.25,-0.127 0.174,-0.217 0.174,-0.331Z" style="fill:#595219;fill-rule:nonzero;"/>
                        </g>
                        <g transform="matrix(240.026,0,0,240.026,9744.78,348.267)">
                            <path d="M0.039,-0.66L0.039,-0L0.187,-0L0.187,-0.263L0.225,-0.263L0.368,-0L0.534,-0L0.373,-0.274C0.426,-0.282 0.507,-0.334 0.507,-0.459C0.507,-0.585 0.422,-0.66 0.307,-0.66L0.039,-0.66ZM0.187,-0.365L0.187,-0.544L0.255,-0.544C0.309,-0.544 0.355,-0.522 0.355,-0.455C0.355,-0.388 0.308,-0.365 0.254,-0.365L0.187,-0.365Z" style="fill:#595219;fill-rule:nonzero;"/>
                        </g>
                        <g transform="matrix(240.026,0,0,240.026,9886.4,348.267)">
                            <path d="M0.042,-0.66L0.042,-0L0.463,-0L0.463,-0.129L0.189,-0.129L0.189,-0.268L0.46,-0.268L0.46,-0.394L0.189,-0.394L0.189,-0.531L0.463,-0.531L0.463,-0.66L0.042,-0.66Z" style="fill:#595219;fill-rule:nonzero;"/>
                        </g>
                        <g transform="matrix(240.026,0,0,240.026,10014.7,348.267)">
                            <path d="M0.715,-0L0.866,-0.66L0.697,-0.66L0.617,-0.199L0.494,-0.66L0.382,-0.66L0.259,-0.199L0.179,-0.66L0.01,-0.66L0.161,-0L0.338,-0L0.438,-0.41L0.538,-0L0.715,-0Z" style="fill:#595219;fill-rule:nonzero;"/>
                        </g>
                        <g transform="matrix(240.026,0,0,240.026,10230.8,348.267)">
                            <path d="M0.021,-0.331C0.021,-0.138 0.157,0.012 0.359,0.012C0.558,0.012 0.698,-0.138 0.698,-0.331C0.698,-0.523 0.554,-0.672 0.359,-0.672C0.167,-0.672 0.021,-0.523 0.021,-0.331ZM0.174,-0.331C0.174,-0.444 0.25,-0.535 0.359,-0.535C0.469,-0.535 0.545,-0.444 0.545,-0.331C0.545,-0.217 0.469,-0.127 0.359,-0.127C0.25,-0.127 0.174,-0.217 0.174,-0.331Z" style="fill:#595219;fill-rule:nonzero;"/>
                        </g>
                        <g transform="matrix(240.026,0,0,240.026,10408.8,348.267)">
                            <path d="M0.039,-0.66L0.039,-0L0.187,-0L0.187,-0.263L0.225,-0.263L0.368,-0L0.534,-0L0.373,-0.274C0.426,-0.282 0.507,-0.334 0.507,-0.459C0.507,-0.585 0.422,-0.66 0.307,-0.66L0.039,-0.66ZM0.187,-0.365L0.187,-0.544L0.255,-0.544C0.309,-0.544 0.355,-0.522 0.355,-0.455C0.355,-0.388 0.308,-0.365 0.254,-0.365L0.187,-0.365Z" style="fill:#595219;fill-rule:nonzero;"/>
                        </g>
                        <g transform="matrix(240.026,0,0,240.026,10550.4,348.267)">
                            <path d="M0.044,-0.66L0.044,-0L0.241,-0C0.451,-0 0.554,-0.138 0.554,-0.331C0.554,-0.523 0.451,-0.66 0.241,-0.66L0.044,-0.66ZM0.19,-0.529L0.227,-0.529C0.342,-0.529 0.398,-0.444 0.397,-0.33C0.397,-0.216 0.341,-0.131 0.227,-0.131L0.19,-0.131L0.19,-0.529Z" style="fill:#595219;fill-rule:nonzero;"/>
                        </g>
                        <g transform="matrix(240.026,0,0,240.026,10757.8,348.267)">
                            <path d="M0.046,-0.66L0.046,-0L0.298,-0C0.435,-0 0.511,-0.077 0.511,-0.188C0.511,-0.294 0.443,-0.343 0.377,-0.351C0.433,-0.364 0.483,-0.42 0.483,-0.499C0.483,-0.618 0.384,-0.66 0.271,-0.66L0.046,-0.66ZM0.193,-0.395L0.193,-0.542L0.25,-0.542C0.303,-0.542 0.337,-0.527 0.337,-0.472C0.337,-0.426 0.309,-0.395 0.256,-0.395L0.193,-0.395ZM0.193,-0.118L0.193,-0.28L0.261,-0.28C0.321,-0.28 0.356,-0.255 0.356,-0.201C0.356,-0.149 0.329,-0.118 0.263,-0.118L0.193,-0.118Z" style="fill:#595219;fill-rule:nonzero;"/>
                        </g>
                        <g transform="matrix(240.026,0,0,240.026,10886,348.267)">
                            <path d="M0.211,-0.238L0.211,-0L0.358,-0L0.358,-0.238L0.584,-0.66L0.406,-0.66L0.284,-0.406L0.162,-0.66L-0.017,-0.66L0.211,-0.238Z" style="fill:#595219;fill-rule:nonzero;"/>
                        </g>
                        <g transform="matrix(240.026,0,0,240.026,11093.1,348.267)">
                            <path d="M0.043,-0.66L0.043,-0L0.191,-0L0.191,-0.246L0.282,-0.246C0.408,-0.246 0.508,-0.322 0.508,-0.458C0.508,-0.594 0.408,-0.66 0.282,-0.66L0.043,-0.66ZM0.191,-0.363L0.191,-0.544L0.241,-0.544C0.302,-0.544 0.35,-0.521 0.35,-0.454C0.35,-0.388 0.302,-0.363 0.241,-0.363L0.191,-0.363Z" style="fill:#595219;fill-rule:nonzero;"/>
                        </g>
                        <g transform="matrix(240.026,0,0,240.026,11207.6,348.267)">
                            <path d="M0.256,-0.66L-0.005,-0L0.153,-0L0.202,-0.134L0.457,-0.134L0.505,-0L0.662,-0L0.402,-0.66L0.256,-0.66ZM0.251,-0.263L0.329,-0.483L0.33,-0.483L0.408,-0.263L0.251,-0.263Z" style="fill:#595219;fill-rule:nonzero;"/>
                        </g>
                        <g transform="matrix(240.026,0,0,240.026,11369.3,348.267)">
                            <path d="M0.425,-0.66L0.425,-0.263C0.425,-0.171 0.379,-0.122 0.307,-0.122C0.234,-0.122 0.188,-0.171 0.188,-0.263L0.188,-0.66L0.041,-0.66L0.041,-0.255C0.041,-0.091 0.141,0.012 0.307,0.012C0.472,0.012 0.572,-0.091 0.572,-0.255L0.572,-0.66L0.425,-0.66Z" style="fill:#595219;fill-rule:nonzero;"/>
                        </g>
                        <g transform="matrix(240.026,0,0,240.026,11521.9,348.267)">
                            <path d="M0.046,-0.66L0.046,-0L0.434,-0L0.434,-0.129L0.194,-0.129L0.194,-0.66L0.046,-0.66Z" style="fill:#595219;fill-rule:nonzero;"/>
                        </g>
                        <g transform="matrix(240.026,0,0,240.026,11702.8,348.267)">
                            <path d="M0.046,-0.66L0.046,-0L0.193,-0L0.193,-0.267L0.409,-0.267L0.409,-0.395L0.193,-0.395L0.193,-0.531L0.426,-0.531L0.426,-0.66L0.046,-0.66Z" style="fill:#595219;fill-rule:nonzero;"/>
                        </g>
                        <g transform="matrix(240.026,0,0,240.026,11817.8,348.267)">
                            <path d="M0.021,-0.331C0.021,-0.138 0.157,0.012 0.359,0.012C0.558,0.012 0.698,-0.138 0.698,-0.331C0.698,-0.523 0.554,-0.672 0.359,-0.672C0.167,-0.672 0.021,-0.523 0.021,-0.331ZM0.174,-0.331C0.174,-0.444 0.25,-0.535 0.359,-0.535C0.469,-0.535 0.545,-0.444 0.545,-0.331C0.545,-0.217 0.469,-0.127 0.359,-0.127C0.25,-0.127 0.174,-0.217 0.174,-0.331Z" style="fill:#595219;fill-rule:nonzero;"/>
                        </g>
                        <g transform="matrix(240.026,0,0,240.026,11995.7,348.267)">
                            <path d="M0.039,-0.66L0.039,-0L0.187,-0L0.187,-0.263L0.225,-0.263L0.368,-0L0.534,-0L0.373,-0.274C0.426,-0.282 0.507,-0.334 0.507,-0.459C0.507,-0.585 0.422,-0.66 0.307,-0.66L0.039,-0.66ZM0.187,-0.365L0.187,-0.544L0.255,-0.544C0.309,-0.544 0.355,-0.522 0.355,-0.455C0.355,-0.388 0.308,-0.365 0.254,-0.365L0.187,-0.365Z" style="fill:#595219;fill-rule:nonzero;"/>
                        </g>
                        <g transform="matrix(240.026,0,0,240.026,12137.4,348.267)">
                            <path d="M0.044,-0.66L0.044,-0L0.241,-0C0.451,-0 0.554,-0.138 0.554,-0.331C0.554,-0.523 0.451,-0.66 0.241,-0.66L0.044,-0.66ZM0.19,-0.529L0.227,-0.529C0.342,-0.529 0.398,-0.444 0.397,-0.33C0.397,-0.216 0.341,-0.131 0.227,-0.131L0.19,-0.131L0.19,-0.529Z" style="fill:#595219;fill-rule:nonzero;"/>
                        </g>
                    </g>
                    <g transform="matrix(-0.0568478,0.0326895,-0.0152323,-0.121999,10033.6,543.352)">
                        <g transform="matrix(240.026,0,0,240.026,9451.83,348.267)">
                            <path d="M0.354,-0.369L0.354,-0.256L0.525,-0.256C0.518,-0.18 0.455,-0.127 0.359,-0.127C0.25,-0.127 0.174,-0.219 0.174,-0.331C0.174,-0.442 0.25,-0.535 0.359,-0.535C0.437,-0.535 0.482,-0.498 0.51,-0.456L0.649,-0.522C0.608,-0.591 0.525,-0.672 0.359,-0.672C0.156,-0.672 0.021,-0.521 0.021,-0.331C0.021,-0.14 0.156,0.012 0.359,0.012C0.557,0.012 0.691,-0.138 0.691,-0.327L0.691,-0.369L0.354,-0.369Z" style="fill:#595219;fill-rule:nonzero;"/>
                        </g>
                        <g transform="matrix(240.026,0,0,240.026,9628.13,348.267)">
                            <path d="M0.425,-0.66L0.425,-0.263C0.425,-0.171 0.379,-0.122 0.307,-0.122C0.234,-0.122 0.188,-0.171 0.188,-0.263L0.188,-0.66L0.041,-0.66L0.041,-0.255C0.041,-0.091 0.141,0.012 0.307,0.012C0.472,0.012 0.572,-0.091 0.572,-0.255L0.572,-0.66L0.425,-0.66Z" style="fill:#595219;fill-rule:nonzero;"/>
                        </g>
                        <g transform="matrix(240.026,0,0,240.026,9780.79,348.267)">
                            <path d="M0.039,-0.66L0.039,-0L0.187,-0L0.187,-0.263L0.225,-0.263L0.368,-0L0.534,-0L0.373,-0.274C0.426,-0.282 0.507,-0.334 0.507,-0.459C0.507,-0.585 0.422,-0.66 0.307,-0.66L0.039,-0.66ZM0.187,-0.365L0.187,-0.544L0.255,-0.544C0.309,-0.544 0.355,-0.522 0.355,-0.455C0.355,-0.388 0.308,-0.365 0.254,-0.365L0.187,-0.365Z" style="fill:#595219;fill-rule:nonzero;"/>
                        </g>
                        <g transform="matrix(240.026,0,0,240.026,9922.4,348.267)">
                            <path d="M0.046,-0.66L0.046,-0L0.298,-0C0.435,-0 0.511,-0.077 0.511,-0.188C0.511,-0.294 0.443,-0.343 0.377,-0.351C0.433,-0.364 0.483,-0.42 0.483,-0.499C0.483,-0.618 0.384,-0.66 0.271,-0.66L0.046,-0.66ZM0.193,-0.395L0.193,-0.542L0.25,-0.542C0.303,-0.542 0.337,-0.527 0.337,-0.472C0.337,-0.426 0.309,-0.395 0.256,-0.395L0.193,-0.395ZM0.193,-0.118L0.193,-0.28L0.261,-0.28C0.321,-0.28 0.356,-0.255 0.356,-0.201C0.356,-0.149 0.329,-0.118 0.263,-0.118L0.193,-0.118Z" style="fill:#595219;fill-rule:nonzero;"/>
                        </g>
                        <g transform="matrix(240.026,0,0,240.026,10054.4,348.267)">
                            <path d="M0.256,-0.66L-0.005,-0L0.153,-0L0.202,-0.134L0.457,-0.134L0.505,-0L0.662,-0L0.402,-0.66L0.256,-0.66ZM0.251,-0.263L0.329,-0.483L0.33,-0.483L0.408,-0.263L0.251,-0.263Z" style="fill:#595219;fill-rule:nonzero;"/>
                        </g>
                    </g>
                    <g transform="matrix(-0.0568478,0.0326895,-0.0152323,-0.121999,9865.17,640.185)">
                        <g transform="matrix(240.026,0,0,240.026,9451.83,348.267)">
                            <path d="M0.742,-0.66L0.535,-0.66L0.4,-0.217L0.391,-0.166L0.382,-0.217L0.248,-0.66L0.041,-0.66L0.041,-0L0.188,-0L0.188,-0.392L0.182,-0.501L0.207,-0.376L0.319,-0.053L0.463,-0.053L0.576,-0.376L0.601,-0.501L0.595,-0.392L0.595,-0L0.742,-0L0.742,-0.66Z" style="fill:#595219;fill-rule:nonzero;"/>
                        </g>
                        <g transform="matrix(240.026,0,0,240.026,9648.41,348.267)">
                            <path d="M0.021,-0.331C0.021,-0.138 0.157,0.012 0.359,0.012C0.558,0.012 0.698,-0.138 0.698,-0.331C0.698,-0.523 0.554,-0.672 0.359,-0.672C0.167,-0.672 0.021,-0.523 0.021,-0.331ZM0.174,-0.331C0.174,-0.444 0.25,-0.535 0.359,-0.535C0.469,-0.535 0.545,-0.444 0.545,-0.331C0.545,-0.217 0.469,-0.127 0.359,-0.127C0.25,-0.127 0.174,-0.217 0.174,-0.331Z" style="fill:#595219;fill-rule:nonzero;"/>
                        </g>
                        <g transform="matrix(240.026,0,0,240.026,9826.39,348.267)">
                            <path d="M0.282,-0.672C0.164,-0.672 0.059,-0.602 0.059,-0.492C0.059,-0.381 0.138,-0.329 0.225,-0.294C0.312,-0.26 0.356,-0.234 0.356,-0.19C0.356,-0.15 0.325,-0.124 0.263,-0.124C0.189,-0.124 0.103,-0.173 0.088,-0.185L0.014,-0.061C0.027,-0.048 0.126,0.012 0.262,0.012C0.39,0.012 0.51,-0.05 0.51,-0.183C0.51,-0.295 0.427,-0.356 0.329,-0.392C0.248,-0.422 0.21,-0.445 0.21,-0.483C0.21,-0.52 0.245,-0.538 0.297,-0.538C0.354,-0.538 0.409,-0.504 0.425,-0.491L0.496,-0.61C0.484,-0.62 0.404,-0.672 0.282,-0.672Z" style="fill:#595219;fill-rule:nonzero;"/>
                        </g>
                        <g transform="matrix(240.026,0,0,240.026,9960.45,348.267)">
                            <path d="M0.308,-0.341L0.534,-0.66L0.368,-0.66L0.179,-0.389L0.179,-0.66L0.032,-0.66L0.032,-0L0.179,-0L0.179,-0.289L0.384,-0L0.56,-0L0.308,-0.341Z" style="fill:#595219;fill-rule:nonzero;"/>
                        </g>
                        <g transform="matrix(240.026,0,0,240.026,10098.8,348.267)">
                            <path d="M0.021,-0.331C0.021,-0.138 0.157,0.012 0.359,0.012C0.558,0.012 0.698,-0.138 0.698,-0.331C0.698,-0.523 0.554,-0.672 0.359,-0.672C0.167,-0.672 0.021,-0.523 0.021,-0.331ZM0.174,-0.331C0.174,-0.444 0.25,-0.535 0.359,-0.535C0.469,-0.535 0.545,-0.444 0.545,-0.331C0.545,-0.217 0.469,-0.127 0.359,-0.127C0.25,-0.127 0.174,-0.217 0.174,-0.331Z" style="fill:#595219;fill-rule:nonzero;"/>
                        </g>
                        <g transform="matrix(240.026,0,0,240.026,10274.5,348.267)">
                            <path d="M0.406,-0L0.641,-0.66L0.475,-0.66L0.322,-0.188L0.17,-0.66L0.004,-0.66L0.239,-0L0.406,-0Z" style="fill:#595219;fill-rule:nonzero;"/>
                        </g>
                        <g transform="matrix(240.026,0,0,240.026,10436.1,348.267)">
                            <rect x="0.048" y="-0.66" width="0.148" height="0.66" style="fill:#595219;fill-rule:nonzero;"/>
                        </g>
                        <g transform="matrix(240.026,0,0,240.026,10498.8,348.267)">
                            <path d="M0.165,-0.531L0.165,-0L0.313,-0L0.313,-0.531L0.471,-0.531L0.471,-0.66L0.008,-0.66L0.008,-0.531L0.165,-0.531Z" style="fill:#595219;fill-rule:nonzero;"/>
                        </g>
                        <g transform="matrix(240.026,0,0,240.026,10621.1,348.267)">
                            <path d="M0.052,-0.66L0.052,-0.531L0.334,-0.531L0.006,-0L0.571,-0L0.571,-0.129L0.263,-0.129L0.592,-0.66L0.052,-0.66Z" style="fill:#595219;fill-rule:nonzero;"/>
                        </g>
                    </g>
                    <g transform="matrix(-0.0152323,-0.121999,0.0568478,-0.0326895,9397.5,2238.13)">
                        <g transform="matrix(240.026,0,0,240.026,9451.83,348.267)">
                            <path d="M0.046,-0.66L0.046,-0L0.434,-0L0.434,-0.129L0.194,-0.129L0.194,-0.66L0.046,-0.66Z" style="fill:#595219;fill-rule:nonzero;"/>
                        </g>
                        <g transform="matrix(240.026,0,0,240.026,9548.68,348.267)">
                            <path d="M0.211,-0.238L0.211,-0L0.358,-0L0.358,-0.238L0.584,-0.66L0.406,-0.66L0.284,-0.406L0.162,-0.66L-0.017,-0.66L0.211,-0.238Z" style="fill:#595219;fill-rule:nonzero;"/>
                        </g>
                        <g transform="matrix(240.026,0,0,240.026,9683.1,348.267)">
                            <path d="M0.282,-0.672C0.164,-0.672 0.059,-0.602 0.059,-0.492C0.059,-0.381 0.138,-0.329 0.225,-0.294C0.312,-0.26 0.356,-0.234 0.356,-0.19C0.356,-0.15 0.325,-0.124 0.263,-0.124C0.189,-0.124 0.103,-0.173 0.088,-0.185L0.014,-0.061C0.027,-0.048 0.126,0.012 0.262,0.012C0.39,0.012 0.51,-0.05 0.51,-0.183C0.51,-0.295 0.427,-0.356 0.329,-0.392C0.248,-0.422 0.21,-0.445 0.21,-0.483C0.21,-0.52 0.245,-0.538 0.297,-0.538C0.354,-0.538 0.409,-0.504 0.425,-0.491L0.496,-0.61C0.484,-0.62 0.404,-0.672 0.282,-0.672Z" style="fill:#595219;fill-rule:nonzero;"/>
                        </g>
                        <g transform="matrix(240.026,0,0,240.026,9817.15,348.267)">
                            <path d="M0.165,-0.531L0.165,-0L0.313,-0L0.313,-0.531L0.471,-0.531L0.471,-0.66L0.008,-0.66L0.008,-0.531L0.165,-0.531Z" style="fill:#595219;fill-rule:nonzero;"/>
                        </g>
                        <g transform="matrix(240.026,0,0,240.026,9939.44,348.267)">
                            <path d="M0.042,-0.66L0.042,-0L0.463,-0L0.463,-0.129L0.189,-0.129L0.189,-0.268L0.46,-0.268L0.46,-0.394L0.189,-0.394L0.189,-0.531L0.463,-0.531L0.463,-0.66L0.042,-0.66Z" style="fill:#595219;fill-rule:nonzero;"/>
                        </g>
                        <g transform="matrix(240.026,0,0,240.026,10067.7,348.267)">
                            <path d="M0.039,-0.66L0.039,-0L0.187,-0L0.187,-0.263L0.225,-0.263L0.368,-0L0.534,-0L0.373,-0.274C0.426,-0.282 0.507,-0.334 0.507,-0.459C0.507,-0.585 0.422,-0.66 0.307,-0.66L0.039,-0.66ZM0.187,-0.365L0.187,-0.544L0.255,-0.544C0.309,-0.544 0.355,-0.522 0.355,-0.455C0.355,-0.388 0.308,-0.365 0.254,-0.365L0.187,-0.365Z" style="fill:#595219;fill-rule:nonzero;"/>
                        </g>
                    </g>
                    <g transform="matrix(-0.0152323,-0.121999,0.0568478,-0.0326895,9423.85,2449.17)">
                        <g transform="matrix(240.026,0,0,240.026,9451.83,348.267)">
                            <path d="M0.308,-0.341L0.534,-0.66L0.368,-0.66L0.179,-0.389L0.179,-0.66L0.032,-0.66L0.032,-0L0.179,-0L0.179,-0.289L0.384,-0L0.56,-0L0.308,-0.341Z" style="fill:#595219;fill-rule:nonzero;"/>
                        </g>
                        <g transform="matrix(240.026,0,0,240.026,9590.21,348.267)">
                            <path d="M0.256,-0.66L-0.005,-0L0.153,-0L0.202,-0.134L0.457,-0.134L0.505,-0L0.662,-0L0.402,-0.66L0.256,-0.66ZM0.251,-0.263L0.329,-0.483L0.33,-0.483L0.408,-0.263L0.251,-0.263Z" style="fill:#595219;fill-rule:nonzero;"/>
                        </g>
                        <g transform="matrix(240.026,0,0,240.026,9751.86,348.267)">
                            <path d="M0.448,-0L0.65,-0L0.65,-0.66L0.503,-0.66L0.503,-0.159L0.243,-0.66L0.042,-0.66L0.042,-0L0.189,-0L0.189,-0.504L0.448,-0Z" style="fill:#595219;fill-rule:nonzero;"/>
                        </g>
                        <g transform="matrix(240.026,0,0,240.026,9925.04,348.267)">
                            <rect x="0.048" y="-0.66" width="0.148" height="0.66" style="fill:#595219;fill-rule:nonzero;"/>
                        </g>
                        <g transform="matrix(240.026,0,0,240.026,9989.73,348.267)">
                            <path d="M0.448,-0L0.65,-0L0.65,-0.66L0.503,-0.66L0.503,-0.159L0.243,-0.66L0.042,-0.66L0.042,-0L0.189,-0L0.189,-0.504L0.448,-0Z" style="fill:#595219;fill-rule:nonzero;"/>
                        </g>
                        <g transform="matrix(240.026,0,0,240.026,10226.4,348.267)">
                            <path d="M0.018,-0.178C0.018,-0.054 0.122,0.012 0.237,0.012C0.342,0.012 0.409,-0.029 0.461,-0.07L0.526,-0L0.711,-0L0.572,-0.147C0.604,-0.173 0.643,-0.22 0.659,-0.245L0.562,-0.333C0.527,-0.285 0.493,-0.25 0.476,-0.237L0.38,-0.339C0.426,-0.362 0.516,-0.421 0.516,-0.507C0.516,-0.601 0.451,-0.672 0.321,-0.672C0.186,-0.672 0.113,-0.595 0.113,-0.509C0.113,-0.437 0.161,-0.382 0.191,-0.366C0.151,-0.355 0.018,-0.302 0.018,-0.178ZM0.32,-0.561C0.359,-0.561 0.382,-0.537 0.382,-0.507C0.382,-0.458 0.322,-0.425 0.306,-0.419C0.301,-0.424 0.257,-0.469 0.257,-0.507C0.257,-0.534 0.279,-0.561 0.32,-0.561ZM0.263,-0.278L0.367,-0.168C0.347,-0.15 0.306,-0.126 0.265,-0.126C0.22,-0.126 0.185,-0.146 0.185,-0.191C0.185,-0.241 0.243,-0.269 0.263,-0.278Z" style="fill:#595219;fill-rule:nonzero;"/>
                        </g>
                        <g transform="matrix(240.026,0,0,240.026,10457.1,348.267)">
                            <path d="M0.282,-0.672C0.164,-0.672 0.059,-0.602 0.059,-0.492C0.059,-0.381 0.138,-0.329 0.225,-0.294C0.312,-0.26 0.356,-0.234 0.356,-0.19C0.356,-0.15 0.325,-0.124 0.263,-0.124C0.189,-0.124 0.103,-0.173 0.088,-0.185L0.014,-0.061C0.027,-0.048 0.126,0.012 0.262,0.012C0.39,0.012 0.51,-0.05 0.51,-0.183C0.51,-0.295 0.427,-0.356 0.329,-0.392C0.248,-0.422 0.21,-0.445 0.21,-0.483C0.21,-0.52 0.245,-0.538 0.297,-0.538C0.354,-0.538 0.409,-0.504 0.425,-0.491L0.496,-0.61C0.484,-0.62 0.404,-0.672 0.282,-0.672Z" style="fill:#595219;fill-rule:nonzero;"/>
                        </g>
                        <g transform="matrix(240.026,0,0,240.026,10591.1,348.267)">
                            <path d="M0.021,-0.331C0.021,-0.138 0.157,0.012 0.359,0.012C0.558,0.012 0.698,-0.138 0.698,-0.331C0.698,-0.523 0.554,-0.672 0.359,-0.672C0.167,-0.672 0.021,-0.523 0.021,-0.331ZM0.174,-0.331C0.174,-0.444 0.25,-0.535 0.359,-0.535C0.469,-0.535 0.545,-0.444 0.545,-0.331C0.545,-0.217 0.469,-0.127 0.359,-0.127C0.25,-0.127 0.174,-0.217 0.174,-0.331Z" style="fill:#595219;fill-rule:nonzero;"/>
                        </g>
                        <g transform="matrix(240.026,0,0,240.026,10769.1,348.267)">
                            <path d="M0.448,-0L0.65,-0L0.65,-0.66L0.503,-0.66L0.503,-0.159L0.243,-0.66L0.042,-0.66L0.042,-0L0.189,-0L0.189,-0.504L0.448,-0Z" style="fill:#595219;fill-rule:nonzero;"/>
                        </g>
                        <g transform="matrix(240.026,0,0,240.026,10942.3,348.267)">
                            <path d="M0.042,-0.66L0.042,-0L0.463,-0L0.463,-0.129L0.189,-0.129L0.189,-0.268L0.46,-0.268L0.46,-0.394L0.189,-0.394L0.189,-0.531L0.463,-0.531L0.463,-0.66L0.042,-0.66Z" style="fill:#595219;fill-rule:nonzero;"/>
                        </g>
                    </g>
                    <g transform="matrix(-0.0152323,-0.121999,0.0568478,-0.0326895,9439.87,2577.53)">
                        <g transform="matrix(240.026,0,0,240.026,9451.83,348.267)">
                            <path d="M0.282,-0.672C0.164,-0.672 0.059,-0.602 0.059,-0.492C0.059,-0.381 0.138,-0.329 0.225,-0.294C0.312,-0.26 0.356,-0.234 0.356,-0.19C0.356,-0.15 0.325,-0.124 0.263,-0.124C0.189,-0.124 0.103,-0.173 0.088,-0.185L0.014,-0.061C0.027,-0.048 0.126,0.012 0.262,0.012C0.39,0.012 0.51,-0.05 0.51,-0.183C0.51,-0.295 0.427,-0.356 0.329,-0.392C0.248,-0.422 0.21,-0.445 0.21,-0.483C0.21,-0.52 0.245,-0.538 0.297,-0.538C0.354,-0.538 0.409,-0.504 0.425,-0.491L0.496,-0.61C0.484,-0.62 0.404,-0.672 0.282,-0.672Z" style="fill:#595219;fill-rule:nonzero;"/>
                        </g>
                        <g transform="matrix(240.026,0,0,240.026,9585.89,348.267)">
                            <path d="M0.256,-0.66L-0.005,-0L0.153,-0L0.202,-0.134L0.457,-0.134L0.505,-0L0.662,-0L0.402,-0.66L0.256,-0.66ZM0.251,-0.263L0.329,-0.483L0.33,-0.483L0.408,-0.263L0.251,-0.263Z" style="fill:#595219;fill-rule:nonzero;"/>
                        </g>
                        <g transform="matrix(240.026,0,0,240.026,9747.54,348.267)">
                            <path d="M0.046,-0.66L0.046,-0L0.434,-0L0.434,-0.129L0.194,-0.129L0.194,-0.66L0.046,-0.66Z" style="fill:#595219;fill-rule:nonzero;"/>
                        </g>
                        <g transform="matrix(240.026,0,0,240.026,9864.92,348.267)">
                            <path d="M0.256,-0.66L-0.005,-0L0.153,-0L0.202,-0.134L0.457,-0.134L0.505,-0L0.662,-0L0.402,-0.66L0.256,-0.66ZM0.251,-0.263L0.329,-0.483L0.33,-0.483L0.408,-0.263L0.251,-0.263Z" style="fill:#595219;fill-rule:nonzero;"/>
                        </g>
                        <g transform="matrix(240.026,0,0,240.026,10016.1,348.267)">
                            <path d="M0.715,-0L0.866,-0.66L0.697,-0.66L0.617,-0.199L0.494,-0.66L0.382,-0.66L0.259,-0.199L0.179,-0.66L0.01,-0.66L0.161,-0L0.338,-0L0.438,-0.41L0.538,-0L0.715,-0Z" style="fill:#595219;fill-rule:nonzero;"/>
                        </g>
                        <g transform="matrix(240.026,0,0,240.026,10235,348.267)">
                            <path d="M0.425,-0.66L0.425,-0.263C0.425,-0.171 0.379,-0.122 0.307,-0.122C0.234,-0.122 0.188,-0.171 0.188,-0.263L0.188,-0.66L0.041,-0.66L0.041,-0.255C0.041,-0.091 0.141,0.012 0.307,0.012C0.472,0.012 0.572,-0.091 0.572,-0.255L0.572,-0.66L0.425,-0.66Z" style="fill:#595219;fill-rule:nonzero;"/>
                        </g>
                    </g>
                    <g transform="matrix(-0.0152323,-0.121999,0.0568478,-0.0326895,9453.92,2690.03)">
                        <g transform="matrix(240.026,0,0,240.026,9451.83,348.267)">
                            <path d="M0.448,-0L0.65,-0L0.65,-0.66L0.503,-0.66L0.503,-0.159L0.243,-0.66L0.042,-0.66L0.042,-0L0.189,-0L0.189,-0.504L0.448,-0Z" style="fill:#595219;fill-rule:nonzero;"/>
                        </g>
                        <g transform="matrix(240.026,0,0,240.026,9625.01,348.267)">
                            <path d="M0.021,-0.331C0.021,-0.138 0.157,0.012 0.359,0.012C0.558,0.012 0.698,-0.138 0.698,-0.331C0.698,-0.523 0.554,-0.672 0.359,-0.672C0.167,-0.672 0.021,-0.523 0.021,-0.331ZM0.174,-0.331C0.174,-0.444 0.25,-0.535 0.359,-0.535C0.469,-0.535 0.545,-0.444 0.545,-0.331C0.545,-0.217 0.469,-0.127 0.359,-0.127C0.25,-0.127 0.174,-0.217 0.174,-0.331Z" style="fill:#595219;fill-rule:nonzero;"/>
                        </g>
                        <g transform="matrix(240.026,0,0,240.026,9802.99,348.267)">
                            <path d="M0.046,-0.66L0.046,-0L0.434,-0L0.434,-0.129L0.194,-0.129L0.194,-0.66L0.046,-0.66Z" style="fill:#595219;fill-rule:nonzero;"/>
                        </g>
                        <g transform="matrix(240.026,0,0,240.026,9920.36,348.267)">
                            <path d="M0.256,-0.66L-0.005,-0L0.153,-0L0.202,-0.134L0.457,-0.134L0.505,-0L0.662,-0L0.402,-0.66L0.256,-0.66ZM0.251,-0.263L0.329,-0.483L0.33,-0.483L0.408,-0.263L0.251,-0.263Z" style="fill:#595219;fill-rule:nonzero;"/>
                        </g>
                        <g transform="matrix(240.026,0,0,240.026,10082,348.267)">
                            <path d="M0.448,-0L0.65,-0L0.65,-0.66L0.503,-0.66L0.503,-0.159L0.243,-0.66L0.042,-0.66L0.042,-0L0.189,-0L0.189,-0.504L0.448,-0Z" style="fill:#595219;fill-rule:nonzero;"/>
                        </g>
                    </g>
                    <g transform="matrix(-0.0568478,0.0326895,-0.0152323,-0.121999,9972.05,578.726)">
                        <g transform="matrix(217.731,0,0,217.731,9451.83,348.267)">
                            <path d="M0.213,-0L0.213,-0.596L0.03,-0.596L0.03,-0.727L0.573,-0.727L0.573,-0.596L0.389,-0.596L0.389,-0L0.213,-0Z" style="fill:#595219;fill-rule:nonzero;"/>
                        </g>
                        <g transform="matrix(217.731,0,0,217.731,9582.87,348.267)">
                            <path d="M0.046,-0L0.046,-0.727L0.222,-0.727L0.222,-0.469L0.38,-0.469L0.38,-0.727L0.555,-0.727L0.555,-0L0.38,-0L0.38,-0.338L0.222,-0.338L0.222,-0L0.046,-0Z" style="fill:#595219;fill-rule:nonzero;"/>
                        </g>
                        <g transform="matrix(217.731,0,0,217.731,9713.9,348.267)">
                            <path d="M0.046,-0L0.046,-0.727L0.554,-0.727L0.554,-0.596L0.222,-0.596L0.222,-0.453L0.512,-0.453L0.512,-0.322L0.222,-0.322L0.222,-0.131L0.554,-0.131L0.554,-0L0.046,-0Z" style="fill:#595219;fill-rule:nonzero;"/>
                        </g>
                        <g transform="matrix(217.731,0,0,217.731,9844.94,348.267)">
                            <rect x="0.058" y="0.034" width="0.485" height="0.148" style="fill:#595219;fill-rule:nonzero;"/>
                        </g>
                        <g transform="matrix(217.731,0,0,217.731,9975.97,348.267)">
                            <path d="M0.248,-0.223L0.175,-0.471L0.195,-0L0.041,-0L0.041,-0.727L0.199,-0.727L0.304,-0.391L0.406,-0.727L0.561,-0.727L0.561,-0L0.407,-0L0.426,-0.462L0.355,-0.223L0.248,-0.223Z" style="fill:#595219;fill-rule:nonzero;"/>
                        </g>
                        <g transform="matrix(217.731,0,0,217.731,10107,348.267)">
                            <path d="M0.365,-0.299L0.305,-0.599L0.239,-0.299L0.365,-0.299ZM0.424,-0L0.391,-0.168L0.209,-0.168L0.172,-0L0.015,-0L0.193,-0.727L0.41,-0.727L0.588,-0L0.424,-0Z" style="fill:#595219;fill-rule:nonzero;"/>
                        </g>
                        <g transform="matrix(217.731,0,0,217.731,10238,348.267)">
                            <path d="M0.313,0.009C0.224,0.009 0.158,-0.011 0.114,-0.051C0.07,-0.092 0.048,-0.152 0.048,-0.232L0.048,-0.492C0.048,-0.573 0.07,-0.634 0.115,-0.675C0.159,-0.716 0.225,-0.736 0.314,-0.736C0.402,-0.736 0.467,-0.716 0.507,-0.675C0.547,-0.633 0.569,-0.566 0.574,-0.474L0.398,-0.465C0.395,-0.522 0.388,-0.56 0.376,-0.578C0.365,-0.596 0.343,-0.605 0.312,-0.605C0.28,-0.605 0.257,-0.596 0.244,-0.576C0.23,-0.556 0.224,-0.522 0.224,-0.475L0.224,-0.248C0.224,-0.203 0.23,-0.17 0.243,-0.151C0.256,-0.132 0.279,-0.122 0.312,-0.122C0.343,-0.122 0.365,-0.131 0.376,-0.148C0.387,-0.166 0.395,-0.203 0.398,-0.259L0.574,-0.25C0.57,-0.158 0.548,-0.092 0.507,-0.052C0.466,-0.011 0.401,0.009 0.313,0.009Z" style="fill:#595219;fill-rule:nonzero;"/>
                        </g>
                        <g transform="matrix(217.731,0,0,217.731,10369.1,348.267)">
                            <path d="M0.046,-0L0.046,-0.727L0.222,-0.727L0.222,-0.469L0.38,-0.469L0.38,-0.727L0.555,-0.727L0.555,-0L0.38,-0L0.38,-0.338L0.222,-0.338L0.222,-0L0.046,-0Z" style="fill:#595219;fill-rule:nonzero;"/>
                        </g>
                        <g transform="matrix(217.731,0,0,217.731,10500.1,348.267)">
                            <path d="M0.046,-0L0.046,-0.131L0.213,-0.131L0.213,-0.596L0.046,-0.596L0.046,-0.727L0.555,-0.727L0.555,-0.596L0.389,-0.596L0.389,-0.131L0.555,-0.131L0.555,-0L0.046,-0Z" style="fill:#595219;fill-rule:nonzero;"/>
                        </g>
                        <g transform="matrix(217.731,0,0,217.731,10631.1,348.267)">
                            <path d="M0.354,-0L0.195,-0.486L0.195,-0L0.046,-0L0.046,-0.727L0.235,-0.727L0.406,-0.212L0.406,-0.727L0.555,-0.727L0.555,-0L0.354,-0Z" style="fill:#595219;fill-rule:nonzero;"/>
                        </g>
                        <g transform="matrix(217.731,0,0,217.731,10762.2,348.267)">
                            <path d="M0.046,-0L0.046,-0.727L0.554,-0.727L0.554,-0.596L0.222,-0.596L0.222,-0.453L0.512,-0.453L0.512,-0.322L0.222,-0.322L0.222,-0.131L0.554,-0.131L0.554,-0L0.046,-0Z" style="fill:#595219;fill-rule:nonzero;"/>
                        </g>
                        <g transform="matrix(217.731,0,0,217.731,10893.2,348.267)">
                            <path d="M0.288,0.009C0.237,0.009 0.192,0.003 0.151,-0.01C0.111,-0.023 0.074,-0.04 0.041,-0.061L0.076,-0.192C0.11,-0.171 0.143,-0.154 0.177,-0.141C0.21,-0.128 0.248,-0.122 0.291,-0.122C0.324,-0.122 0.347,-0.129 0.361,-0.143C0.375,-0.157 0.382,-0.176 0.382,-0.198C0.382,-0.227 0.373,-0.247 0.354,-0.258C0.336,-0.269 0.304,-0.281 0.259,-0.295C0.185,-0.315 0.133,-0.342 0.102,-0.375C0.072,-0.408 0.056,-0.454 0.056,-0.512C0.056,-0.575 0.077,-0.629 0.118,-0.671C0.159,-0.714 0.222,-0.735 0.305,-0.735C0.345,-0.735 0.384,-0.729 0.424,-0.715C0.464,-0.701 0.496,-0.687 0.522,-0.671L0.495,-0.546C0.463,-0.565 0.432,-0.579 0.402,-0.589C0.373,-0.599 0.343,-0.604 0.312,-0.604C0.285,-0.604 0.264,-0.598 0.251,-0.585C0.238,-0.573 0.232,-0.555 0.232,-0.532C0.232,-0.508 0.24,-0.49 0.256,-0.477C0.273,-0.464 0.305,-0.45 0.355,-0.436C0.428,-0.415 0.481,-0.387 0.511,-0.353C0.542,-0.319 0.557,-0.272 0.557,-0.212C0.557,-0.143 0.534,-0.089 0.486,-0.05C0.439,-0.01 0.373,0.009 0.288,0.009Z" style="fill:#595219;fill-rule:nonzero;"/>
                        </g>
                    </g>
                    <g transform="matrix(0.0568721,-0.0327035,0.0152388,0.122051,8646.62,669.531)">
                        <g transform="matrix(239.923,0,0,239.923,9451.83,348.267)">
                            <path d="M0.165,-0.531L0.165,-0L0.313,-0L0.313,-0.531L0.471,-0.531L0.471,-0.66L0.008,-0.66L0.008,-0.531L0.165,-0.531Z" style="fill:#595219;fill-rule:nonzero;"/>
                        </g>
                        <g transform="matrix(239.923,0,0,239.923,9574.07,348.267)">
                            <path d="M0.265,-0.688L0.454,-0.799L0.383,-0.889L0.22,-0.749L0.265,-0.688ZM0.425,-0.66L0.425,-0.263C0.425,-0.171 0.379,-0.122 0.307,-0.122C0.234,-0.122 0.188,-0.171 0.188,-0.263L0.188,-0.66L0.041,-0.66L0.041,-0.255C0.041,-0.091 0.141,0.012 0.307,0.012C0.472,0.012 0.572,-0.091 0.572,-0.255L0.572,-0.66L0.425,-0.66Z" style="fill:#595219;fill-rule:nonzero;"/>
                        </g>
                        <g transform="matrix(239.923,0,0,239.923,9726.66,348.267)">
                            <path d="M0.046,-0.66L0.046,-0L0.298,-0C0.435,-0 0.511,-0.077 0.511,-0.188C0.511,-0.294 0.443,-0.343 0.377,-0.351C0.433,-0.364 0.483,-0.42 0.483,-0.499C0.483,-0.618 0.384,-0.66 0.271,-0.66L0.046,-0.66ZM0.193,-0.395L0.193,-0.542L0.25,-0.542C0.303,-0.542 0.337,-0.527 0.337,-0.472C0.337,-0.426 0.309,-0.395 0.256,-0.395L0.193,-0.395ZM0.193,-0.118L0.193,-0.28L0.261,-0.28C0.321,-0.28 0.356,-0.255 0.356,-0.201C0.356,-0.149 0.329,-0.118 0.263,-0.118L0.193,-0.118Z" style="fill:#595219;fill-rule:nonzero;"/>
                        </g>
                        <g transform="matrix(239.923,0,0,239.923,9860.54,348.267)">
                            <path d="M0.021,-0.331C0.021,-0.138 0.157,0.012 0.359,0.012C0.558,0.012 0.698,-0.138 0.698,-0.331C0.698,-0.523 0.554,-0.672 0.359,-0.672C0.167,-0.672 0.021,-0.523 0.021,-0.331ZM0.174,-0.331C0.174,-0.444 0.25,-0.535 0.359,-0.535C0.469,-0.535 0.545,-0.444 0.545,-0.331C0.545,-0.217 0.469,-0.127 0.359,-0.127C0.25,-0.127 0.174,-0.217 0.174,-0.331ZM0.359,0.174C0.327,0.174 0.302,0.201 0.302,0.232C0.302,0.263 0.327,0.289 0.359,0.289C0.39,0.289 0.416,0.263 0.416,0.232C0.416,0.201 0.39,0.174 0.359,0.174Z" style="fill:#595219;fill-rule:nonzero;"/>
                        </g>
                        <g transform="matrix(239.923,0,0,239.923,9908.17,288.406)">
                            <path d="M0.241,-0.471L0.286,-0.531L0.123,-0.671L0.052,-0.581L0.241,-0.471Z" style="fill:#595219;fill-rule:nonzero;"/>
                        </g>
                        <g transform="matrix(239.923,0,0,239.923,10034.6,348.267)">
                            <path d="M0.282,-0.672C0.164,-0.672 0.059,-0.602 0.059,-0.492C0.059,-0.381 0.138,-0.329 0.225,-0.294C0.312,-0.26 0.356,-0.234 0.356,-0.19C0.356,-0.15 0.325,-0.124 0.263,-0.124C0.189,-0.124 0.103,-0.173 0.088,-0.185L0.014,-0.061C0.027,-0.048 0.126,0.012 0.262,0.012C0.39,0.012 0.51,-0.05 0.51,-0.183C0.51,-0.295 0.427,-0.356 0.329,-0.392C0.248,-0.422 0.21,-0.445 0.21,-0.483C0.21,-0.52 0.245,-0.538 0.297,-0.538C0.354,-0.538 0.409,-0.504 0.425,-0.491L0.496,-0.61C0.484,-0.62 0.404,-0.672 0.282,-0.672Z" style="fill:#595219;fill-rule:nonzero;"/>
                        </g>
                        <g transform="matrix(239.923,0,0,239.923,10168.6,348.267)">
                            <path d="M0.265,-0.688L0.454,-0.799L0.383,-0.889L0.22,-0.749L0.265,-0.688ZM0.425,-0.66L0.425,-0.263C0.425,-0.171 0.379,-0.122 0.307,-0.122C0.234,-0.122 0.188,-0.171 0.188,-0.263L0.188,-0.66L0.041,-0.66L0.041,-0.255C0.041,-0.091 0.141,0.012 0.307,0.012C0.472,0.012 0.572,-0.091 0.572,-0.255L0.572,-0.66L0.425,-0.66Z" style="fill:#595219;fill-rule:nonzero;"/>
                        </g>
                        <g transform="matrix(239.923,0,0,239.923,10321.2,348.267)">
                            <path d="M0.448,-0L0.65,-0L0.65,-0.66L0.503,-0.66L0.503,-0.159L0.243,-0.66L0.042,-0.66L0.042,-0L0.189,-0L0.189,-0.504L0.448,-0Z" style="fill:#595219;fill-rule:nonzero;"/>
                        </g>
                    </g>
                    <g transform="matrix(0.0568721,-0.0327035,0.0152388,0.122051,8798.3,1784.27)">
                        <g transform="matrix(239.923,0,0,239.923,9451.83,348.267)">
                            <path d="M0.742,-0.66L0.535,-0.66L0.4,-0.217L0.391,-0.166L0.382,-0.217L0.248,-0.66L0.041,-0.66L0.041,-0L0.188,-0L0.188,-0.392L0.182,-0.501L0.207,-0.376L0.319,-0.053L0.463,-0.053L0.576,-0.376L0.601,-0.501L0.595,-0.392L0.595,-0L0.742,-0L0.742,-0.66Z" style="fill:#595219;fill-rule:nonzero;"/>
                        </g>
                        <g transform="matrix(239.923,0,0,239.923,9648.33,348.267)">
                            <path d="M0.256,-0.66L-0.005,-0L0.153,-0L0.202,-0.134L0.457,-0.134L0.505,-0L0.662,-0L0.402,-0.66L0.256,-0.66ZM0.251,-0.263L0.329,-0.483L0.33,-0.483L0.408,-0.263L0.251,-0.263Z" style="fill:#595219;fill-rule:nonzero;"/>
                        </g>
                        <g transform="matrix(239.923,0,0,239.923,9803.08,348.267)">
                            <path d="M0.391,-0.134C0.255,-0.134 0.186,-0.227 0.186,-0.331C0.186,-0.433 0.255,-0.526 0.391,-0.526C0.452,-0.526 0.507,-0.504 0.532,-0.486L0.595,-0.611C0.564,-0.638 0.484,-0.672 0.38,-0.672C0.185,-0.672 0.027,-0.524 0.027,-0.329C0.027,-0.135 0.186,0.012 0.38,0.012C0.484,0.012 0.564,-0.023 0.595,-0.049L0.532,-0.174C0.507,-0.157 0.452,-0.134 0.391,-0.134Z" style="fill:#595219;fill-rule:nonzero;"/>
                        </g>
                        <g transform="matrix(239.923,0,0,239.923,9957.59,348.267)">
                            <path d="M0.046,-0.66L0.046,-0L0.434,-0L0.434,-0.129L0.194,-0.129L0.194,-0.66L0.046,-0.66Z" style="fill:#595219;fill-rule:nonzero;"/>
                        </g>
                        <g transform="matrix(239.923,0,0,239.923,10074.9,348.267)">
                            <path d="M0.042,-0.66L0.042,-0L0.463,-0L0.463,-0.129L0.189,-0.129L0.189,-0.268L0.46,-0.268L0.46,-0.394L0.189,-0.394L0.189,-0.531L0.463,-0.531L0.463,-0.66L0.042,-0.66Z" style="fill:#595219;fill-rule:nonzero;"/>
                        </g>
                        <g transform="matrix(239.923,0,0,239.923,10203.2,348.267)">
                            <path d="M0.021,-0.331C0.021,-0.138 0.157,0.012 0.359,0.012C0.558,0.012 0.698,-0.138 0.698,-0.331C0.698,-0.523 0.554,-0.672 0.359,-0.672C0.167,-0.672 0.021,-0.523 0.021,-0.331ZM0.174,-0.331C0.174,-0.444 0.25,-0.535 0.359,-0.535C0.469,-0.535 0.545,-0.444 0.545,-0.331C0.545,-0.217 0.469,-0.127 0.359,-0.127C0.25,-0.127 0.174,-0.217 0.174,-0.331Z" style="fill:#595219;fill-rule:nonzero;"/>
                        </g>
                        <g transform="matrix(239.923,0,0,239.923,10381.1,348.267)">
                            <path d="M0.044,-0.66L0.044,-0L0.241,-0C0.451,-0 0.554,-0.138 0.554,-0.331C0.554,-0.523 0.451,-0.66 0.241,-0.66L0.044,-0.66ZM0.19,-0.529L0.227,-0.529C0.342,-0.529 0.398,-0.444 0.397,-0.33C0.397,-0.216 0.341,-0.131 0.227,-0.131L0.19,-0.131L0.19,-0.529Z" style="fill:#595219;fill-rule:nonzero;"/>
                        </g>
                    </g>
                    <g transform="matrix(0.0568721,-0.0327035,0.0152388,0.122051,8870.46,1742.77)">
                        <g transform="matrix(239.923,0,0,239.923,9451.83,348.267)">
                            <path d="M0.282,-0.672C0.164,-0.672 0.059,-0.602 0.059,-0.492C0.059,-0.381 0.138,-0.329 0.225,-0.294C0.312,-0.26 0.356,-0.234 0.356,-0.19C0.356,-0.15 0.325,-0.124 0.263,-0.124C0.189,-0.124 0.103,-0.173 0.088,-0.185L0.014,-0.061C0.027,-0.048 0.126,0.012 0.262,0.012C0.39,0.012 0.51,-0.05 0.51,-0.183C0.51,-0.295 0.427,-0.356 0.329,-0.392C0.248,-0.422 0.21,-0.445 0.21,-0.483C0.21,-0.52 0.245,-0.538 0.297,-0.538C0.354,-0.538 0.409,-0.504 0.425,-0.491L0.496,-0.61C0.484,-0.62 0.404,-0.672 0.282,-0.672Z" style="fill:#595219;fill-rule:nonzero;"/>
                        </g>
                        <g transform="matrix(239.923,0,0,239.923,9585.83,348.267)">
                            <path d="M0.42,-0.267L0.42,-0L0.566,-0L0.566,-0.66L0.42,-0.66L0.42,-0.395L0.189,-0.395L0.189,-0.66L0.042,-0.66L0.042,-0L0.189,-0L0.189,-0.267L0.42,-0.267Z" style="fill:#595219;fill-rule:nonzero;"/>
                        </g>
                        <g transform="matrix(239.923,0,0,239.923,9738.9,348.267)">
                            <path d="M0.256,-0.66L-0.005,-0L0.153,-0L0.202,-0.134L0.457,-0.134L0.505,-0L0.662,-0L0.402,-0.66L0.256,-0.66ZM0.251,-0.263L0.329,-0.483L0.33,-0.483L0.408,-0.263L0.251,-0.263Z" style="fill:#595219;fill-rule:nonzero;"/>
                        </g>
                        <g transform="matrix(239.923,0,0,239.923,9890.05,348.267)">
                            <path d="M0.715,-0L0.866,-0.66L0.697,-0.66L0.617,-0.199L0.494,-0.66L0.382,-0.66L0.259,-0.199L0.179,-0.66L0.01,-0.66L0.161,-0L0.338,-0L0.438,-0.41L0.538,-0L0.715,-0Z" style="fill:#595219;fill-rule:nonzero;"/>
                        </g>
                    </g>
                    <g transform="matrix(0.0568721,-0.0327035,0.0152388,0.122051,8918.97,1714.88)">
                        <g transform="matrix(239.923,0,0,239.923,9451.83,348.267)">
                            <path d="M0.282,-0.672C0.164,-0.672 0.059,-0.602 0.059,-0.492C0.059,-0.381 0.138,-0.329 0.225,-0.294C0.312,-0.26 0.356,-0.234 0.356,-0.19C0.356,-0.15 0.325,-0.124 0.263,-0.124C0.189,-0.124 0.103,-0.173 0.088,-0.185L0.014,-0.061C0.027,-0.048 0.126,0.012 0.262,0.012C0.39,0.012 0.51,-0.05 0.51,-0.183C0.51,-0.295 0.427,-0.356 0.329,-0.392C0.248,-0.422 0.21,-0.445 0.21,-0.483C0.21,-0.52 0.245,-0.538 0.297,-0.538C0.354,-0.538 0.409,-0.504 0.425,-0.491L0.496,-0.61C0.484,-0.62 0.404,-0.672 0.282,-0.672Z" style="fill:#595219;fill-rule:nonzero;"/>
                        </g>
                        <g transform="matrix(239.923,0,0,239.923,9585.83,348.267)">
                            <path d="M0.391,-0.134C0.255,-0.134 0.186,-0.227 0.186,-0.331C0.186,-0.433 0.255,-0.526 0.391,-0.526C0.452,-0.526 0.507,-0.504 0.532,-0.486L0.595,-0.611C0.564,-0.638 0.484,-0.672 0.38,-0.672C0.185,-0.672 0.027,-0.524 0.027,-0.329C0.027,-0.135 0.186,0.012 0.38,0.012C0.484,0.012 0.564,-0.023 0.595,-0.049L0.532,-0.174C0.507,-0.157 0.452,-0.134 0.391,-0.134Z" style="fill:#595219;fill-rule:nonzero;"/>
                        </g>
                        <g transform="matrix(239.923,0,0,239.923,9740.34,348.267)">
                            <path d="M0.021,-0.331C0.021,-0.138 0.157,0.012 0.359,0.012C0.558,0.012 0.698,-0.138 0.698,-0.331C0.698,-0.523 0.554,-0.672 0.359,-0.672C0.167,-0.672 0.021,-0.523 0.021,-0.331ZM0.174,-0.331C0.174,-0.444 0.25,-0.535 0.359,-0.535C0.469,-0.535 0.545,-0.444 0.545,-0.331C0.545,-0.217 0.469,-0.127 0.359,-0.127C0.25,-0.127 0.174,-0.217 0.174,-0.331Z" style="fill:#595219;fill-rule:nonzero;"/>
                        </g>
                        <g transform="matrix(239.923,0,0,239.923,9918.24,348.267)">
                            <path d="M0.391,-0.134C0.255,-0.134 0.186,-0.227 0.186,-0.331C0.186,-0.433 0.255,-0.526 0.391,-0.526C0.452,-0.526 0.507,-0.504 0.532,-0.486L0.595,-0.611C0.564,-0.638 0.484,-0.672 0.38,-0.672C0.185,-0.672 0.027,-0.524 0.027,-0.329C0.027,-0.135 0.186,0.012 0.38,0.012C0.484,0.012 0.564,-0.023 0.595,-0.049L0.532,-0.174C0.507,-0.157 0.452,-0.134 0.391,-0.134Z" style="fill:#595219;fill-rule:nonzero;"/>
                        </g>
                        <g transform="matrix(239.923,0,0,239.923,10072.8,348.267)">
                            <path d="M0.391,-0.134C0.255,-0.134 0.186,-0.227 0.186,-0.331C0.186,-0.433 0.255,-0.526 0.391,-0.526C0.452,-0.526 0.507,-0.504 0.532,-0.486L0.595,-0.611C0.564,-0.638 0.484,-0.672 0.38,-0.672C0.185,-0.672 0.027,-0.524 0.027,-0.329C0.027,-0.135 0.186,0.012 0.38,0.012C0.484,0.012 0.564,-0.023 0.595,-0.049L0.532,-0.174C0.507,-0.157 0.452,-0.134 0.391,-0.134Z" style="fill:#595219;fill-rule:nonzero;"/>
                        </g>
                        <g transform="matrix(239.923,0,0,239.923,10227.3,348.267)">
                            <path d="M0.256,-0.66L-0.005,-0L0.153,-0L0.202,-0.134L0.457,-0.134L0.505,-0L0.662,-0L0.402,-0.66L0.256,-0.66ZM0.251,-0.263L0.329,-0.483L0.33,-0.483L0.408,-0.263L0.251,-0.263Z" style="fill:#595219;fill-rule:nonzero;"/>
                        </g>
                    </g>
                    <g transform="matrix(0.0568721,-0.0327035,0.0152388,0.122051,8983.43,1677.81)">
                        <g transform="matrix(239.923,0,0,239.923,9451.83,348.267)">
                            <path d="M0.046,-0.66L0.046,-0L0.298,-0C0.435,-0 0.511,-0.077 0.511,-0.188C0.511,-0.294 0.443,-0.343 0.377,-0.351C0.433,-0.364 0.483,-0.42 0.483,-0.499C0.483,-0.618 0.384,-0.66 0.271,-0.66L0.046,-0.66ZM0.193,-0.395L0.193,-0.542L0.25,-0.542C0.303,-0.542 0.337,-0.527 0.337,-0.472C0.337,-0.426 0.309,-0.395 0.256,-0.395L0.193,-0.395ZM0.193,-0.118L0.193,-0.28L0.261,-0.28C0.321,-0.28 0.356,-0.255 0.356,-0.201C0.356,-0.149 0.329,-0.118 0.263,-0.118L0.193,-0.118Z" style="fill:#595219;fill-rule:nonzero;"/>
                        </g>
                        <g transform="matrix(239.923,0,0,239.923,9585.71,348.267)">
                            <path d="M0.425,-0.66L0.425,-0.263C0.425,-0.171 0.379,-0.122 0.307,-0.122C0.234,-0.122 0.188,-0.171 0.188,-0.263L0.188,-0.66L0.041,-0.66L0.041,-0.255C0.041,-0.091 0.141,0.012 0.307,0.012C0.472,0.012 0.572,-0.091 0.572,-0.255L0.572,-0.66L0.425,-0.66Z" style="fill:#595219;fill-rule:nonzero;"/>
                        </g>
                        <g transform="matrix(239.923,0,0,239.923,9738.3,348.267)">
                            <path d="M0.282,-0.672C0.164,-0.672 0.059,-0.602 0.059,-0.492C0.059,-0.381 0.138,-0.329 0.225,-0.294C0.312,-0.26 0.356,-0.234 0.356,-0.19C0.356,-0.15 0.325,-0.124 0.263,-0.124C0.189,-0.124 0.103,-0.173 0.088,-0.185L0.014,-0.061C0.027,-0.048 0.126,0.012 0.262,0.012C0.39,0.012 0.51,-0.05 0.51,-0.183C0.51,-0.295 0.427,-0.356 0.329,-0.392C0.248,-0.422 0.21,-0.445 0.21,-0.483C0.21,-0.52 0.245,-0.538 0.297,-0.538C0.354,-0.538 0.409,-0.504 0.425,-0.491L0.496,-0.61C0.484,-0.62 0.404,-0.672 0.282,-0.672Z" style="fill:#595219;fill-rule:nonzero;"/>
                        </g>
                        <g transform="matrix(239.923,0,0,239.923,9872.3,348.267)">
                            <path d="M0.165,-0.531L0.165,-0L0.313,-0L0.313,-0.531L0.471,-0.531L0.471,-0.66L0.008,-0.66L0.008,-0.531L0.165,-0.531Z" style="fill:#595219;fill-rule:nonzero;"/>
                        </g>
                        <g transform="matrix(239.923,0,0,239.923,9994.54,348.267)">
                            <rect x="0.048" y="-0.66" width="0.148" height="0.66" style="fill:#595219;fill-rule:nonzero;"/>
                        </g>
                        <g transform="matrix(239.923,0,0,239.923,10059.2,348.267)">
                            <path d="M0.046,-0.66L0.046,-0L0.434,-0L0.434,-0.129L0.194,-0.129L0.194,-0.66L0.046,-0.66Z" style="fill:#595219;fill-rule:nonzero;"/>
                        </g>
                        <g transform="matrix(239.923,0,0,239.923,10176.5,348.267)">
                            <path d="M0.046,-0.66L0.046,-0L0.434,-0L0.434,-0.129L0.194,-0.129L0.194,-0.66L0.046,-0.66Z" style="fill:#595219;fill-rule:nonzero;"/>
                        </g>
                        <g transform="matrix(239.923,0,0,239.923,10290,348.267)">
                            <path d="M0.021,-0.331C0.021,-0.138 0.157,0.012 0.359,0.012C0.558,0.012 0.698,-0.138 0.698,-0.331C0.698,-0.523 0.554,-0.672 0.359,-0.672C0.167,-0.672 0.021,-0.523 0.021,-0.331ZM0.174,-0.331C0.174,-0.444 0.25,-0.535 0.359,-0.535C0.469,-0.535 0.545,-0.444 0.545,-0.331C0.545,-0.217 0.469,-0.127 0.359,-0.127C0.25,-0.127 0.174,-0.217 0.174,-0.331Z" style="fill:#595219;fill-rule:nonzero;"/>
                        </g>
                        <g transform="matrix(239.923,0,0,239.923,10467.9,348.267)">
                            <path d="M0.282,-0.672C0.164,-0.672 0.059,-0.602 0.059,-0.492C0.059,-0.381 0.138,-0.329 0.225,-0.294C0.312,-0.26 0.356,-0.234 0.356,-0.19C0.356,-0.15 0.325,-0.124 0.263,-0.124C0.189,-0.124 0.103,-0.173 0.088,-0.185L0.014,-0.061C0.027,-0.048 0.126,0.012 0.262,0.012C0.39,0.012 0.51,-0.05 0.51,-0.183C0.51,-0.295 0.427,-0.356 0.329,-0.392C0.248,-0.422 0.21,-0.445 0.21,-0.483C0.21,-0.52 0.245,-0.538 0.297,-0.538C0.354,-0.538 0.409,-0.504 0.425,-0.491L0.496,-0.61C0.484,-0.62 0.404,-0.672 0.282,-0.672Z" style="fill:#595219;fill-rule:nonzero;"/>
                        </g>
                    </g>
                    <g transform="matrix(0.0568721,-0.0327035,0.0152388,0.122051,8719.64,627.537)">
                        <g transform="matrix(239.836,0,0,239.836,9451.83,348.267)">
                            <path d="M0.039,-0.66L0.039,-0L0.187,-0L0.187,-0.263L0.225,-0.263L0.368,-0L0.534,-0L0.373,-0.274C0.426,-0.282 0.507,-0.334 0.507,-0.459C0.507,-0.585 0.422,-0.66 0.307,-0.66L0.039,-0.66ZM0.187,-0.365L0.187,-0.544L0.255,-0.544C0.309,-0.544 0.355,-0.522 0.355,-0.455C0.355,-0.388 0.308,-0.365 0.254,-0.365L0.187,-0.365Z" style="fill:#595219;fill-rule:nonzero;"/>
                        </g>
                        <g transform="matrix(239.836,0,0,239.836,9585.06,348.267)">
                            <path d="M0.021,-0.331C0.021,-0.138 0.157,0.012 0.359,0.012C0.558,0.012 0.698,-0.138 0.698,-0.331C0.698,-0.523 0.554,-0.672 0.359,-0.672C0.167,-0.672 0.021,-0.523 0.021,-0.331ZM0.174,-0.331C0.174,-0.444 0.25,-0.535 0.359,-0.535C0.469,-0.535 0.545,-0.444 0.545,-0.331C0.545,-0.217 0.469,-0.127 0.359,-0.127C0.25,-0.127 0.174,-0.217 0.174,-0.331Z" style="fill:#595219;fill-rule:nonzero;"/>
                        </g>
                        <g transform="matrix(239.836,0,0,239.836,9762.9,348.267)">
                            <path d="M0.046,-0.66L0.046,-0L0.434,-0L0.434,-0.129L0.194,-0.129L0.194,-0.66L0.046,-0.66Z" style="fill:#595219;fill-rule:nonzero;"/>
                        </g>
                        <g transform="matrix(239.836,0,0,239.836,9880.18,348.267)">
                            <path d="M0.046,-0.66L0.046,-0L0.434,-0L0.434,-0.129L0.194,-0.129L0.194,-0.66L0.046,-0.66Z" style="fill:#595219;fill-rule:nonzero;"/>
                        </g>
                        <g transform="matrix(239.836,0,0,239.836,9997.46,348.267)">
                            <path d="M0.042,-0.66L0.042,-0L0.463,-0L0.463,-0.129L0.189,-0.129L0.189,-0.268L0.46,-0.268L0.46,-0.394L0.189,-0.394L0.189,-0.531L0.463,-0.531L0.463,-0.66L0.042,-0.66Z" style="fill:#595219;fill-rule:nonzero;"/>
                        </g>
                        <g transform="matrix(239.836,0,0,239.836,10125.6,348.267)">
                            <path d="M0.039,-0.66L0.039,-0L0.187,-0L0.187,-0.263L0.225,-0.263L0.368,-0L0.534,-0L0.373,-0.274C0.426,-0.282 0.507,-0.334 0.507,-0.459C0.507,-0.585 0.422,-0.66 0.307,-0.66L0.039,-0.66ZM0.187,-0.365L0.187,-0.544L0.255,-0.544C0.309,-0.544 0.355,-0.522 0.355,-0.455C0.355,-0.388 0.308,-0.365 0.254,-0.365L0.187,-0.365Z" style="fill:#595219;fill-rule:nonzero;"/>
                        </g>
                    </g>
                    <g transform="matrix(0.0568721,-0.0327035,0.0152388,0.122051,8779.88,592.522)">
                        <g transform="matrix(239.923,0,0,239.923,9451.83,348.267)">
                            <path d="M0.42,-0.267L0.42,-0L0.566,-0L0.566,-0.66L0.42,-0.66L0.42,-0.395L0.189,-0.395L0.189,-0.66L0.042,-0.66L0.042,-0L0.189,-0L0.189,-0.267L0.42,-0.267Z" style="fill:#595219;fill-rule:nonzero;"/>
                        </g>
                        <g transform="matrix(239.923,0,0,239.923,9604.9,348.267)">
                            <rect x="0.048" y="-0.66" width="0.148" height="0.66" style="fill:#595219;fill-rule:nonzero;"/>
                        </g>
                        <g transform="matrix(239.923,0,0,239.923,9669.56,348.267)">
                            <path d="M0.021,-0.331C0.021,-0.138 0.157,0.012 0.359,0.012C0.558,0.012 0.698,-0.138 0.698,-0.331C0.698,-0.523 0.554,-0.672 0.359,-0.672C0.167,-0.672 0.021,-0.523 0.021,-0.331ZM0.174,-0.331C0.174,-0.444 0.25,-0.535 0.359,-0.535C0.469,-0.535 0.545,-0.444 0.545,-0.331C0.545,-0.217 0.469,-0.127 0.359,-0.127C0.25,-0.127 0.174,-0.217 0.174,-0.331Z" style="fill:#595219;fill-rule:nonzero;"/>
                        </g>
                        <g transform="matrix(239.923,0,0,239.923,9847.47,348.267)">
                            <path d="M0.042,-0.66L0.042,-0L0.463,-0L0.463,-0.129L0.189,-0.129L0.189,-0.268L0.46,-0.268L0.46,-0.394L0.189,-0.394L0.189,-0.531L0.463,-0.531L0.463,-0.66L0.042,-0.66Z" style="fill:#595219;fill-rule:nonzero;"/>
                        </g>
                    </g>
                    <g transform="matrix(0.0568963,-0.0327174,0.0152453,0.122103,8823.83,567.615)">
                        <g transform="matrix(239.821,0,0,239.821,9451.83,348.267)">
                            <path d="M0.256,-0.66L-0.005,-0L0.153,-0L0.202,-0.134L0.457,-0.134L0.505,-0L0.662,-0L0.402,-0.66L0.256,-0.66ZM0.251,-0.263L0.329,-0.483L0.33,-0.483L0.408,-0.263L0.251,-0.263Z" style="fill:#595219;fill-rule:nonzero;"/>
                        </g>
                        <g transform="matrix(239.821,0,0,239.821,9613.35,348.267)">
                            <path d="M0.448,-0L0.65,-0L0.65,-0.66L0.503,-0.66L0.503,-0.159L0.243,-0.66L0.042,-0.66L0.042,-0L0.189,-0L0.189,-0.504L0.448,-0Z" style="fill:#595219;fill-rule:nonzero;"/>
                        </g>
                        <g transform="matrix(239.821,0,0,239.821,9786.38,348.267)">
                            <path d="M0.021,-0.331C0.021,-0.138 0.157,0.012 0.359,0.012C0.558,0.012 0.698,-0.138 0.698,-0.331C0.698,-0.523 0.554,-0.672 0.359,-0.672C0.167,-0.672 0.021,-0.523 0.021,-0.331ZM0.174,-0.331C0.174,-0.444 0.25,-0.535 0.359,-0.535C0.469,-0.535 0.545,-0.444 0.545,-0.331C0.545,-0.217 0.469,-0.127 0.359,-0.127C0.25,-0.127 0.174,-0.217 0.174,-0.331Z" style="fill:#595219;fill-rule:nonzero;"/>
                        </g>
                        <g transform="matrix(239.821,0,0,239.821,9964.21,348.267)">
                            <path d="M0.448,-0L0.65,-0L0.65,-0.66L0.503,-0.66L0.503,-0.159L0.243,-0.66L0.042,-0.66L0.042,-0L0.189,-0L0.189,-0.504L0.448,-0Z" style="fill:#595219;fill-rule:nonzero;"/>
                        </g>
                        <g transform="matrix(239.821,0,0,239.821,10137.2,348.267)">
                            <path d="M0.211,-0.238L0.211,-0L0.358,-0L0.358,-0.238L0.584,-0.66L0.406,-0.66L0.284,-0.406L0.162,-0.66L-0.017,-0.66L0.211,-0.238Z" style="fill:#595219;fill-rule:nonzero;"/>
                        </g>
                        <g transform="matrix(239.821,0,0,239.821,10280.8,348.267)">
                            <path d="M0.742,-0.66L0.535,-0.66L0.4,-0.217L0.391,-0.166L0.382,-0.217L0.248,-0.66L0.041,-0.66L0.041,-0L0.188,-0L0.188,-0.392L0.182,-0.501L0.207,-0.376L0.319,-0.053L0.463,-0.053L0.576,-0.376L0.601,-0.501L0.595,-0.392L0.595,-0L0.742,-0L0.742,-0.66Z" style="fill:#595219;fill-rule:nonzero;"/>
                        </g>
                        <g transform="matrix(239.821,0,0,239.821,10477.2,348.267)">
                            <path d="M0.021,-0.331C0.021,-0.138 0.157,0.012 0.359,0.012C0.558,0.012 0.698,-0.138 0.698,-0.331C0.698,-0.523 0.554,-0.672 0.359,-0.672C0.167,-0.672 0.021,-0.523 0.021,-0.331ZM0.174,-0.331C0.174,-0.444 0.25,-0.535 0.359,-0.535C0.469,-0.535 0.545,-0.444 0.545,-0.331C0.545,-0.217 0.469,-0.127 0.359,-0.127C0.25,-0.127 0.174,-0.217 0.174,-0.331Z" style="fill:#595219;fill-rule:nonzero;"/>
                        </g>
                        <g transform="matrix(239.821,0,0,239.821,10655,348.267)">
                            <path d="M0.425,-0.66L0.425,-0.263C0.425,-0.171 0.379,-0.122 0.307,-0.122C0.234,-0.122 0.188,-0.171 0.188,-0.263L0.188,-0.66L0.041,-0.66L0.041,-0.255C0.041,-0.091 0.141,0.012 0.307,0.012C0.472,0.012 0.572,-0.091 0.572,-0.255L0.572,-0.66L0.425,-0.66Z" style="fill:#595219;fill-rule:nonzero;"/>
                        </g>
                        <g transform="matrix(239.821,0,0,239.821,10807.5,348.267)">
                            <path d="M0.282,-0.672C0.164,-0.672 0.059,-0.602 0.059,-0.492C0.059,-0.381 0.138,-0.329 0.225,-0.294C0.312,-0.26 0.356,-0.234 0.356,-0.19C0.356,-0.15 0.325,-0.124 0.263,-0.124C0.189,-0.124 0.103,-0.173 0.088,-0.185L0.014,-0.061C0.027,-0.048 0.126,0.012 0.262,0.012C0.39,0.012 0.51,-0.05 0.51,-0.183C0.51,-0.295 0.427,-0.356 0.329,-0.392C0.248,-0.422 0.21,-0.445 0.21,-0.483C0.21,-0.52 0.245,-0.538 0.297,-0.538C0.354,-0.538 0.409,-0.504 0.425,-0.491L0.496,-0.61C0.484,-0.62 0.404,-0.672 0.282,-0.672Z" style="fill:#595219;fill-rule:nonzero;"/>
                        </g>
                    </g>
                </g>
                <g transform="matrix(0.46597,0,0,1,4282.15,50.1758)">
                    <g transform="matrix(50,0,0,50,11510.5,2558.82)">
                        <path d="M0.556,-0.62C0.583,-0.692 0.618,-0.725 0.653,-0.74L0.653,-0.75L0.446,-0.75L0.446,-0.74C0.488,-0.721 0.528,-0.678 0.507,-0.62L0.371,-0.253L0.232,-0.618C0.209,-0.681 0.233,-0.723 0.271,-0.74L0.271,-0.75L-0.032,-0.75L-0.032,-0.74C0.004,-0.725 0.036,-0.693 0.065,-0.618L0.304,0.005L0.324,0.005L0.556,-0.62Z" style="fill:#595219;fill-rule:nonzero;"/>
                    </g>
                    <g transform="matrix(50,0,0,50,11540.2,2558.82)">
                        <path d="M0.033,-0.375C0.033,-0.163 0.179,0.015 0.358,0.015C0.538,0.015 0.682,-0.162 0.682,-0.375C0.682,-0.589 0.541,-0.765 0.358,-0.765C0.174,-0.765 0.033,-0.588 0.033,-0.375ZM0.203,-0.375C0.203,-0.59 0.253,-0.729 0.358,-0.729C0.463,-0.729 0.511,-0.591 0.511,-0.375C0.511,-0.159 0.459,-0.021 0.358,-0.021C0.256,-0.021 0.203,-0.159 0.203,-0.375Z" style="fill:#595219;fill-rule:nonzero;"/>
                    </g>
                    <g transform="matrix(50,0,0,50,11575.9,2558.82)">
                        <path d="M0.405,-0C0.441,-0 0.468,0.011 0.489,0.033L0.499,0.033L0.555,-0.219L0.546,-0.223C0.473,-0.122 0.39,-0.037 0.31,-0.037C0.268,-0.037 0.243,-0.062 0.243,-0.112L0.243,-0.638C0.243,-0.688 0.266,-0.725 0.309,-0.74L0.309,-0.75L0.024,-0.75L0.024,-0.74C0.066,-0.725 0.089,-0.688 0.089,-0.638L0.089,-0.112C0.089,-0.055 0.06,-0.025 0.024,-0.011L0.024,-0L0.405,-0Z" style="fill:#595219;fill-rule:nonzero;"/>
                    </g>
                    <g transform="matrix(50,0,0,50,11602.8,2558.82)">
                        <path d="M0.229,-0.21L0.229,-0.638C0.229,-0.695 0.252,-0.724 0.295,-0.74L0.295,-0.75L0.02,-0.75L0.02,-0.74C0.059,-0.726 0.078,-0.696 0.078,-0.638L0.078,-0.21C0.078,-0.064 0.191,0.013 0.344,0.013C0.479,0.013 0.589,-0.059 0.589,-0.21L0.589,-0.61C0.589,-0.669 0.609,-0.723 0.654,-0.74L0.654,-0.75L0.466,-0.75L0.466,-0.74C0.517,-0.721 0.542,-0.669 0.542,-0.61L0.542,-0.21C0.542,-0.095 0.473,-0.039 0.382,-0.04C0.288,-0.042 0.229,-0.103 0.229,-0.21Z" style="fill:#595219;fill-rule:nonzero;"/>
                    </g>
                    <g transform="matrix(50,0,0,50,11635.1,2558.82)">
                        <path d="M0.33,-0.75L0.093,-0.75L0.093,-0.74C0.132,-0.727 0.16,-0.688 0.153,-0.637L0.085,-0.113C0.079,-0.066 0.052,-0.029 0.015,-0.011L0.015,-0L0.186,-0L0.186,-0.011C0.15,-0.026 0.126,-0.066 0.132,-0.113L0.2,-0.641L0.389,0.01L0.4,0.01L0.608,-0.638L0.676,-0.102C0.683,-0.055 0.654,-0.026 0.621,-0.011L0.621,-0L0.896,-0L0.896,-0.011C0.861,-0.027 0.834,-0.055 0.828,-0.106L0.763,-0.636C0.756,-0.688 0.779,-0.726 0.821,-0.74L0.821,-0.75L0.596,-0.75L0.455,-0.323L0.33,-0.75Z" style="fill:#595219;fill-rule:nonzero;"/>
                    </g>
                    <g transform="matrix(50,0,0,50,11680.6,2558.82)">
                        <path d="M0.024,-0.75L0.024,-0.74C0.066,-0.725 0.089,-0.688 0.089,-0.638L0.089,-0.112C0.089,-0.055 0.06,-0.025 0.024,-0.011L0.024,-0L0.464,-0C0.499,-0 0.524,0.011 0.545,0.033L0.558,0.033L0.613,-0.219L0.606,-0.222C0.527,-0.113 0.444,-0.037 0.325,-0.037C0.273,-0.037 0.241,-0.062 0.241,-0.113L0.241,-0.387L0.363,-0.387C0.423,-0.387 0.47,-0.354 0.51,-0.297L0.52,-0.297L0.52,-0.516L0.51,-0.516C0.473,-0.45 0.422,-0.429 0.362,-0.429L0.241,-0.429L0.241,-0.639C0.241,-0.689 0.273,-0.714 0.325,-0.714C0.437,-0.714 0.511,-0.644 0.579,-0.542L0.588,-0.546L0.548,-0.783L0.538,-0.783C0.52,-0.763 0.49,-0.75 0.454,-0.75L0.024,-0.75Z" style="fill:#595219;fill-rule:nonzero;"/>
                    </g>
                    <g transform="matrix(50,0,0,50,11721.5,2558.82)">
                        <path d="M0.033,-0.375C0.033,-0.163 0.179,0.015 0.358,0.015C0.538,0.015 0.682,-0.162 0.682,-0.375C0.682,-0.589 0.541,-0.765 0.358,-0.765C0.174,-0.765 0.033,-0.588 0.033,-0.375ZM0.203,-0.375C0.203,-0.59 0.253,-0.729 0.358,-0.729C0.463,-0.729 0.511,-0.591 0.511,-0.375C0.511,-0.159 0.459,-0.021 0.358,-0.021C0.256,-0.021 0.203,-0.159 0.203,-0.375Z" style="fill:#595219;fill-rule:nonzero;"/>
                    </g>
                    <g transform="matrix(50,0,0,50,11757.2,2558.82)">
                        <path d="M0.574,0.02L0.574,-0.613C0.574,-0.663 0.593,-0.724 0.635,-0.74L0.635,-0.75L0.46,-0.75L0.46,-0.74C0.507,-0.723 0.528,-0.663 0.528,-0.613L0.528,-0.291L0.195,-0.75L0.024,-0.75L0.024,-0.74C0.066,-0.724 0.089,-0.681 0.089,-0.64L0.089,-0.137C0.089,-0.076 0.061,-0.027 0.02,-0.011L0.02,-0L0.205,-0L0.205,-0.011C0.163,-0.027 0.135,-0.076 0.135,-0.137L0.135,-0.563L0.56,0.02L0.574,0.02Z" style="fill:#595219;fill-rule:nonzero;"/>
                    </g>
                    <g transform="matrix(50,0,0,50,11790,2558.82)">
                        <path d="M0.024,-0.75L0.024,-0.74C0.066,-0.725 0.089,-0.688 0.089,-0.638L0.089,-0.112C0.089,-0.055 0.06,-0.025 0.024,-0.011L0.024,-0L0.464,-0C0.499,-0 0.524,0.011 0.545,0.033L0.558,0.033L0.613,-0.219L0.606,-0.222C0.527,-0.113 0.444,-0.037 0.325,-0.037C0.273,-0.037 0.241,-0.062 0.241,-0.113L0.241,-0.387L0.363,-0.387C0.423,-0.387 0.47,-0.354 0.51,-0.297L0.52,-0.297L0.52,-0.516L0.51,-0.516C0.473,-0.45 0.422,-0.429 0.362,-0.429L0.241,-0.429L0.241,-0.639C0.241,-0.689 0.273,-0.714 0.325,-0.714C0.437,-0.714 0.511,-0.644 0.579,-0.542L0.588,-0.546L0.548,-0.783L0.538,-0.783C0.52,-0.763 0.49,-0.75 0.454,-0.75L0.024,-0.75Z" style="fill:#595219;fill-rule:nonzero;"/>
                    </g>
                </g>
            </g>
        </g>
        <g id="Names1" serif:id="Names">
        </g>
    </g>
</svg>
