<?xml version="1.0" encoding="UTF-8" standalone="no"?>
<!DOCTYPE svg PUBLIC "-//W3C//DTD SVG 1.1//EN" "http://www.w3.org/Graphics/SVG/1.1/DTD/svg11.dtd">
<svg width="100%" height="100%" viewBox="0 0 263 2700" version="1.1" xmlns="http://www.w3.org/2000/svg" xmlns:xlink="http://www.w3.org/1999/xlink" xml:space="preserve" xmlns:serif="http://www.serif.com/" style="fill-rule:evenodd;clip-rule:evenodd;stroke-linejoin:round;stroke-miterlimit:2;">
    <g transform="matrix(1,0,0,1,-1800,0)">
        <g id="Cover-Wrap" serif:id="Cover Wrap" transform="matrix(2.14606,0,0,1,-17237.9,0)">
            <rect x="8032.33" y="0" width="1800" height="2700" style="fill:none;"/>
            <clipPath id="_clip1">
                <rect x="8032.33" y="0" width="1800" height="2700"/>
            </clipPath>
            <g clip-path="url(#_clip1)">
                <g transform="matrix(0.978639,0,0,1,-2252.58,0)">
                    <rect x="10491.6" y="-37.5" width="1875" height="2775" style="fill:#fae985;"/>
                </g>
                <g transform="matrix(-0.0360517,-0.288745,0.18182,-0.104553,9010.36,1074.59)">
                    <rect x="-37.5" y="-37.5" width="1875" height="2775" style="fill:#f64528;"/>
                </g>
                <g id="Names">
                </g>
                <g transform="matrix(2.85324e-17,-1,0.46597,6.12323e-17,7920.95,4454.05)">
                    <g transform="matrix(112.758,0,0,112.758,1875.62,2205.11)">
                        <path d="M0.117,-0.75C0.088,-0.75 0.065,-0.759 0.052,-0.775L0.043,-0.775L0.005,-0.572L0.016,-0.57C0.071,-0.664 0.12,-0.717 0.178,-0.717C0.221,-0.717 0.239,-0.698 0.239,-0.665L0.239,-0.108C0.239,-0.061 0.219,-0.026 0.178,-0.011L0.178,-0L0.398,-0L0.398,-0.011C0.358,-0.026 0.338,-0.061 0.338,-0.108L0.338,-0.665C0.338,-0.698 0.356,-0.717 0.399,-0.717C0.456,-0.717 0.506,-0.664 0.56,-0.57L0.571,-0.572L0.533,-0.775L0.525,-0.775C0.512,-0.76 0.489,-0.75 0.46,-0.75L0.117,-0.75Z" style="fill:#605723;fill-rule:nonzero;"/>
                    </g>
                    <g transform="matrix(112.758,0,0,112.758,1940.57,2205.11)">
                        <path d="M0.031,-0.011L0.031,-0L0.221,-0L0.221,-0.011C0.191,-0.031 0.173,-0.057 0.173,-0.1L0.173,-0.375C0.231,-0.426 0.283,-0.449 0.317,-0.448C0.357,-0.447 0.376,-0.418 0.376,-0.37L0.376,-0.1C0.376,-0.057 0.359,-0.03 0.325,-0.011L0.325,-0L0.513,-0L0.513,-0.011C0.485,-0.024 0.469,-0.057 0.469,-0.101L0.469,-0.409C0.469,-0.477 0.434,-0.524 0.373,-0.524C0.304,-0.524 0.221,-0.458 0.172,-0.4L0.171,-0.401C0.172,-0.415 0.173,-0.44 0.173,-0.465L0.173,-0.793L0.164,-0.793C0.13,-0.759 0.08,-0.736 0.028,-0.728L0.028,-0.718C0.065,-0.705 0.08,-0.678 0.08,-0.627L0.08,-0.101C0.08,-0.057 0.062,-0.025 0.031,-0.011Z" style="fill:#605723;fill-rule:nonzero;"/>
                    </g>
                    <g transform="matrix(112.758,0,0,112.758,2001.91,2205.11)">
                        <path d="M0.123,-0.286L0.123,-0.298L0.436,-0.298L0.436,-0.319C0.436,-0.438 0.362,-0.524 0.26,-0.524C0.132,-0.524 0.035,-0.394 0.035,-0.235C0.035,-0.073 0.137,0.015 0.243,0.015C0.324,0.015 0.402,-0.041 0.43,-0.135L0.419,-0.141C0.39,-0.089 0.34,-0.059 0.283,-0.059C0.19,-0.059 0.123,-0.145 0.123,-0.286ZM0.239,-0.488C0.3,-0.488 0.34,-0.424 0.341,-0.331L0.125,-0.331C0.136,-0.438 0.186,-0.488 0.239,-0.488Z" style="fill:#605723;fill-rule:nonzero;"/>
                    </g>
                    <g transform="matrix(112.758,0,0,112.758,2076.22,2205.11)">
                        <path d="M0.097,-0.634L0.097,-0.117C0.097,-0.072 0.075,-0.036 0.034,-0.02L0.034,-0.01C0.12,0.001 0.203,0.01 0.293,0.01C0.488,0.01 0.595,-0.077 0.595,-0.203C0.595,-0.329 0.477,-0.401 0.357,-0.421C0.454,-0.441 0.546,-0.5 0.546,-0.602C0.546,-0.7 0.446,-0.76 0.278,-0.76C0.194,-0.76 0.114,-0.751 0.034,-0.74L0.034,-0.73C0.075,-0.714 0.097,-0.679 0.097,-0.634ZM0.294,-0.727C0.379,-0.727 0.443,-0.675 0.443,-0.587C0.443,-0.493 0.378,-0.438 0.273,-0.438L0.195,-0.438L0.195,-0.641C0.195,-0.698 0.23,-0.727 0.294,-0.727ZM0.195,-0.109L0.195,-0.403L0.273,-0.403C0.405,-0.403 0.482,-0.335 0.482,-0.214C0.482,-0.097 0.412,-0.022 0.305,-0.022C0.233,-0.022 0.195,-0.052 0.195,-0.109Z" style="fill:#605723;fill-rule:nonzero;"/>
                    </g>
                    <g transform="matrix(112.758,0,0,112.758,2146.8,2205.11)">
                        <path d="M0.178,-0.466L0.178,-0.527L0.17,-0.527C0.136,-0.494 0.085,-0.47 0.033,-0.462L0.033,-0.452C0.071,-0.439 0.086,-0.415 0.086,-0.361L0.086,-0.103C0.086,-0.059 0.068,-0.027 0.033,-0.011L0.033,-0L0.231,-0L0.231,-0.011C0.199,-0.028 0.178,-0.059 0.178,-0.103L0.178,-0.396C0.2,-0.425 0.218,-0.443 0.239,-0.443C0.271,-0.443 0.282,-0.403 0.32,-0.403C0.345,-0.403 0.369,-0.426 0.369,-0.46C0.369,-0.497 0.341,-0.524 0.307,-0.524C0.258,-0.524 0.206,-0.473 0.178,-0.419L0.176,-0.42C0.177,-0.429 0.178,-0.449 0.178,-0.466Z" style="fill:#605723;fill-rule:nonzero;"/>
                    </g>
                    <g transform="matrix(112.758,0,0,112.758,2188.75,2205.11)">
                        <path d="M0.125,-0.609C0.16,-0.609 0.186,-0.638 0.186,-0.674C0.186,-0.711 0.16,-0.74 0.125,-0.74C0.092,-0.74 0.066,-0.711 0.066,-0.674C0.066,-0.638 0.092,-0.609 0.125,-0.609ZM0.035,-0L0.225,-0L0.225,-0.01C0.197,-0.022 0.18,-0.054 0.18,-0.102L0.18,-0.527L0.171,-0.527C0.137,-0.494 0.087,-0.47 0.034,-0.462L0.034,-0.452C0.077,-0.439 0.086,-0.4 0.086,-0.358L0.086,-0.102C0.086,-0.054 0.067,-0.022 0.035,-0.01L0.035,-0Z" style="fill:#605723;fill-rule:nonzero;"/>
                    </g>
                    <g transform="matrix(112.758,0,0,112.758,2217.84,2205.11)">
                        <path d="M0.281,-0.522C0.138,-0.522 0.034,-0.398 0.034,-0.236C0.034,-0.083 0.132,0.015 0.231,0.015C0.316,0.015 0.392,-0.041 0.416,-0.15L0.406,-0.155C0.379,-0.098 0.332,-0.06 0.274,-0.06C0.175,-0.06 0.118,-0.159 0.118,-0.297C0.118,-0.406 0.164,-0.481 0.235,-0.481C0.288,-0.481 0.334,-0.434 0.347,-0.343L0.357,-0.343L0.409,-0.498C0.372,-0.513 0.329,-0.522 0.281,-0.522Z" style="fill:#605723;fill-rule:nonzero;"/>
                    </g>
                    <g transform="matrix(112.758,0,0,112.758,2266.44,2205.11)">
                        <path d="M0.173,-0.793L0.164,-0.793C0.13,-0.76 0.08,-0.736 0.028,-0.728L0.028,-0.718C0.064,-0.705 0.08,-0.676 0.08,-0.624L0.08,-0.101C0.08,-0.054 0.063,-0.022 0.036,-0.011L0.036,-0L0.22,-0L0.22,-0.011C0.191,-0.023 0.173,-0.055 0.173,-0.102L0.173,-0.207L0.217,-0.256L0.315,-0.095C0.338,-0.056 0.344,-0.023 0.31,-0.011L0.31,-0L0.495,-0L0.495,-0.011C0.474,-0.02 0.449,-0.052 0.423,-0.095L0.281,-0.326L0.35,-0.401C0.398,-0.454 0.438,-0.484 0.475,-0.499L0.475,-0.509L0.299,-0.509L0.299,-0.499C0.334,-0.483 0.346,-0.452 0.312,-0.414L0.173,-0.259L0.173,-0.793Z" style="fill:#605723;fill-rule:nonzero;"/>
                    </g>
                    <g transform="matrix(112.758,0,0,112.758,2344.13,2205.11)">
                        <path d="M0.259,-0L0.259,-0.011C0.221,-0.021 0.196,-0.06 0.196,-0.113L0.196,-0.436L0.496,-0.436L0.496,-0.113C0.496,-0.06 0.47,-0.021 0.434,-0.011L0.434,-0L0.658,-0L0.658,-0.011C0.621,-0.021 0.595,-0.06 0.595,-0.113L0.595,-0.638C0.595,-0.686 0.618,-0.728 0.658,-0.74L0.658,-0.75L0.434,-0.75L0.434,-0.74C0.473,-0.728 0.496,-0.685 0.496,-0.638L0.496,-0.472L0.196,-0.472L0.196,-0.638C0.196,-0.685 0.219,-0.728 0.259,-0.74L0.259,-0.75L0.034,-0.75L0.034,-0.74C0.075,-0.728 0.097,-0.686 0.097,-0.638L0.097,-0.113C0.097,-0.06 0.072,-0.021 0.034,-0.011L0.034,-0L0.259,-0Z" style="fill:#605723;fill-rule:nonzero;"/>
                    </g>
                    <g transform="matrix(112.758,0,0,112.758,2420.8,2205.11)">
                        <path d="M0.035,-0.256C0.035,-0.106 0.135,0.015 0.258,0.015C0.381,0.015 0.482,-0.105 0.482,-0.256C0.482,-0.407 0.384,-0.524 0.258,-0.524C0.133,-0.524 0.035,-0.406 0.035,-0.256ZM0.137,-0.256C0.137,-0.394 0.178,-0.492 0.258,-0.492C0.34,-0.492 0.38,-0.394 0.38,-0.256C0.38,-0.117 0.337,-0.017 0.258,-0.017C0.18,-0.017 0.137,-0.117 0.137,-0.256Z" style="fill:#605723;fill-rule:nonzero;"/>
                    </g>
                    <g transform="matrix(112.758,0,0,112.758,2479.1,2205.11)">
                        <path d="M0.364,-0.045L0.364,0.017L0.373,0.017C0.411,-0.012 0.457,-0.027 0.506,-0.035L0.506,-0.045C0.471,-0.058 0.456,-0.082 0.456,-0.138L0.456,-0.527L0.449,-0.527C0.414,-0.494 0.364,-0.47 0.315,-0.462L0.315,-0.452C0.353,-0.44 0.364,-0.404 0.364,-0.354L0.364,-0.135C0.304,-0.081 0.259,-0.058 0.226,-0.06C0.184,-0.06 0.167,-0.09 0.167,-0.14L0.167,-0.527L0.16,-0.527C0.126,-0.494 0.078,-0.469 0.028,-0.462L0.028,-0.452C0.064,-0.437 0.074,-0.406 0.074,-0.359L0.074,-0.101C0.074,-0.032 0.109,0.014 0.17,0.014C0.238,0.014 0.316,-0.052 0.364,-0.111L0.365,-0.111C0.364,-0.096 0.364,-0.069 0.364,-0.045Z" style="fill:#605723;fill-rule:nonzero;"/>
                    </g>
                    <g transform="matrix(112.758,0,0,112.758,2539.54,2205.11)">
                        <path d="M0.396,-0.153C0.396,-0.244 0.324,-0.278 0.254,-0.304C0.185,-0.33 0.117,-0.349 0.117,-0.409C0.117,-0.452 0.151,-0.489 0.204,-0.489C0.258,-0.489 0.309,-0.449 0.324,-0.379L0.333,-0.379L0.367,-0.502C0.331,-0.515 0.28,-0.524 0.242,-0.524C0.127,-0.524 0.053,-0.457 0.053,-0.37C0.053,-0.276 0.128,-0.244 0.199,-0.218C0.267,-0.193 0.332,-0.174 0.332,-0.112C0.332,-0.06 0.29,-0.023 0.23,-0.023C0.16,-0.023 0.095,-0.066 0.08,-0.157L0.072,-0.157L0.019,-0.02C0.082,0.003 0.141,0.014 0.192,0.014C0.31,0.014 0.396,-0.052 0.396,-0.153Z" style="fill:#605723;fill-rule:nonzero;"/>
                    </g>
                    <g transform="matrix(112.758,0,0,112.758,2587.8,2205.11)">
                        <path d="M0.123,-0.286L0.123,-0.298L0.436,-0.298L0.436,-0.319C0.436,-0.438 0.362,-0.524 0.26,-0.524C0.132,-0.524 0.035,-0.394 0.035,-0.235C0.035,-0.073 0.137,0.015 0.243,0.015C0.324,0.015 0.402,-0.041 0.43,-0.135L0.419,-0.141C0.39,-0.089 0.34,-0.059 0.283,-0.059C0.19,-0.059 0.123,-0.145 0.123,-0.286ZM0.239,-0.488C0.3,-0.488 0.34,-0.424 0.341,-0.331L0.125,-0.331C0.136,-0.438 0.186,-0.488 0.239,-0.488Z" style="fill:#605723;fill-rule:nonzero;"/>
                    </g>
                    <g transform="matrix(112.758,0,0,112.758,2659.17,2205.11)">
                        <path d="M0.065,-0.129C0.043,-0.07 0.002,-0.023 -0.03,-0.011L-0.03,-0L0.174,-0L0.174,-0.011C0.14,-0.027 0.091,-0.069 0.114,-0.13L0.149,-0.225L0.364,-0.225L0.399,-0.132C0.424,-0.066 0.396,-0.027 0.361,-0.011L0.361,-0L0.659,-0L0.659,-0.011C0.626,-0.025 0.601,-0.055 0.571,-0.131L0.324,-0.755L0.305,-0.755L0.065,-0.129ZM0.166,-0.272L0.256,-0.511L0.346,-0.272L0.166,-0.272Z" style="fill:#605723;fill-rule:nonzero;"/>
                    </g>
                    <g transform="matrix(112.758,0,0,112.758,2730.55,2205.11)">
                        <path d="M0.019,0.2L0.264,0.2L0.264,0.189C0.234,0.174 0.213,0.152 0.213,0.098L0.213,-0.005C0.231,0.002 0.25,0.009 0.276,0.009C0.434,0.009 0.537,-0.138 0.537,-0.301C0.537,-0.43 0.463,-0.53 0.368,-0.53C0.307,-0.53 0.25,-0.481 0.213,-0.439L0.211,-0.44C0.212,-0.453 0.212,-0.467 0.212,-0.479L0.212,-0.536L0.203,-0.536C0.162,-0.498 0.085,-0.464 0.017,-0.459L0.017,-0.448C0.053,-0.434 0.068,-0.408 0.068,-0.355L0.068,0.098C0.068,0.152 0.048,0.175 0.019,0.189L0.019,0.2ZM0.386,-0.246C0.388,-0.128 0.337,-0.027 0.268,-0.027C0.234,-0.027 0.213,-0.055 0.213,-0.093L0.213,-0.413C0.235,-0.429 0.258,-0.44 0.28,-0.44C0.346,-0.44 0.386,-0.373 0.386,-0.246Z" style="fill:#605723;fill-rule:nonzero;"/>
                    </g>
                    <g transform="matrix(112.758,0,0,112.758,2794.48,2205.11)">
                        <path d="M0.019,0.2L0.264,0.2L0.264,0.189C0.234,0.174 0.213,0.152 0.213,0.098L0.213,-0.005C0.231,0.002 0.25,0.009 0.276,0.009C0.434,0.009 0.537,-0.138 0.537,-0.301C0.537,-0.43 0.463,-0.53 0.368,-0.53C0.307,-0.53 0.25,-0.481 0.213,-0.439L0.211,-0.44C0.212,-0.453 0.212,-0.467 0.212,-0.479L0.212,-0.536L0.203,-0.536C0.162,-0.498 0.085,-0.464 0.017,-0.459L0.017,-0.448C0.053,-0.434 0.068,-0.408 0.068,-0.355L0.068,0.098C0.068,0.152 0.048,0.175 0.019,0.189L0.019,0.2ZM0.386,-0.246C0.388,-0.128 0.337,-0.027 0.268,-0.027C0.234,-0.027 0.213,-0.055 0.213,-0.093L0.213,-0.413C0.235,-0.429 0.258,-0.44 0.28,-0.44C0.346,-0.44 0.386,-0.373 0.386,-0.246Z" style="fill:#605723;fill-rule:nonzero;"/>
                    </g>
                    <g transform="matrix(112.758,0,0,112.758,2858.42,2205.11)">
                        <path d="M0.024,-0.106C0.024,-0.031 0.078,0.014 0.141,0.014C0.192,0.014 0.242,-0.007 0.297,-0.063L0.299,-0.063C0.304,-0.007 0.35,0.014 0.398,0.014C0.443,0.014 0.498,-0.007 0.522,-0.043L0.515,-0.055C0.505,-0.047 0.493,-0.042 0.479,-0.042C0.459,-0.042 0.441,-0.058 0.441,-0.088C0.441,-0.182 0.446,-0.324 0.446,-0.412C0.446,-0.491 0.384,-0.529 0.274,-0.529C0.16,-0.529 0.048,-0.474 0.048,-0.394C0.048,-0.356 0.074,-0.331 0.108,-0.331C0.197,-0.331 0.198,-0.491 0.266,-0.491C0.291,-0.491 0.302,-0.473 0.302,-0.449C0.302,-0.414 0.301,-0.359 0.3,-0.3C0.114,-0.278 0.024,-0.199 0.024,-0.106ZM0.173,-0.139C0.173,-0.2 0.2,-0.258 0.3,-0.271C0.299,-0.207 0.298,-0.14 0.298,-0.088C0.277,-0.072 0.251,-0.062 0.226,-0.062C0.193,-0.062 0.173,-0.089 0.173,-0.139Z" style="fill:#605723;fill-rule:nonzero;"/>
                    </g>
                    <g transform="matrix(112.758,0,0,112.758,2916.49,2205.11)">
                        <path d="M0.22,-0.479L0.22,-0.536L0.209,-0.536C0.169,-0.498 0.091,-0.464 0.024,-0.459L0.024,-0.448C0.06,-0.434 0.076,-0.408 0.076,-0.355L0.076,-0.102C0.076,-0.062 0.057,-0.03 0.024,-0.011L0.024,-0L0.272,-0L0.272,-0.011C0.241,-0.031 0.22,-0.062 0.22,-0.102L0.22,-0.391C0.233,-0.406 0.245,-0.42 0.261,-0.42C0.294,-0.42 0.312,-0.374 0.355,-0.374C0.385,-0.374 0.417,-0.403 0.417,-0.449C0.417,-0.496 0.384,-0.53 0.347,-0.53C0.297,-0.53 0.241,-0.472 0.22,-0.418L0.217,-0.42C0.218,-0.432 0.22,-0.457 0.22,-0.479Z" style="fill:#605723;fill-rule:nonzero;"/>
                    </g>
                    <g transform="matrix(112.758,0,0,112.758,2962.27,2205.11)">
                        <path d="M0.458,-0.152L0.447,-0.158C0.419,-0.113 0.371,-0.087 0.319,-0.087C0.233,-0.087 0.17,-0.153 0.167,-0.295L0.461,-0.295L0.461,-0.319C0.461,-0.445 0.377,-0.53 0.267,-0.53C0.131,-0.53 0.03,-0.4 0.03,-0.242C0.03,-0.072 0.143,0.015 0.253,0.015C0.344,0.015 0.431,-0.044 0.458,-0.152ZM0.245,-0.489C0.288,-0.489 0.312,-0.433 0.312,-0.334L0.167,-0.334C0.172,-0.441 0.205,-0.489 0.245,-0.489Z" style="fill:#605723;fill-rule:nonzero;"/>
                    </g>
                    <g transform="matrix(112.758,0,0,112.758,3017.18,2205.11)">
                        <path d="M0.024,-0.011L0.024,-0L0.27,-0L0.27,-0.011C0.24,-0.035 0.221,-0.061 0.221,-0.102L0.221,-0.396C0.261,-0.422 0.301,-0.436 0.328,-0.435C0.358,-0.434 0.371,-0.411 0.371,-0.367L0.371,-0.102C0.371,-0.061 0.354,-0.035 0.322,-0.011L0.322,-0L0.559,-0L0.559,-0.011C0.531,-0.027 0.515,-0.061 0.515,-0.102L0.515,-0.42C0.515,-0.486 0.481,-0.53 0.419,-0.53C0.352,-0.53 0.264,-0.468 0.221,-0.422L0.218,-0.423C0.22,-0.435 0.221,-0.458 0.221,-0.479L0.221,-0.536L0.21,-0.536C0.169,-0.498 0.091,-0.464 0.024,-0.459L0.024,-0.449C0.061,-0.435 0.076,-0.408 0.076,-0.355L0.076,-0.102C0.076,-0.061 0.056,-0.029 0.024,-0.011Z" style="fill:#605723;fill-rule:nonzero;"/>
                    </g>
                    <g transform="matrix(112.758,0,0,112.758,3082.69,2205.11)">
                        <path d="M0.07,-0.089C0.07,-0.02 0.129,0.015 0.191,0.015C0.268,0.015 0.325,-0.025 0.37,-0.078L0.363,-0.09C0.331,-0.071 0.304,-0.061 0.281,-0.061C0.245,-0.061 0.223,-0.083 0.223,-0.121L0.223,-0.47L0.35,-0.47L0.35,-0.515L0.223,-0.515L0.223,-0.691L0.213,-0.691C0.154,-0.608 0.085,-0.536 -0.005,-0.479L-0.005,-0.47L0.07,-0.47L0.07,-0.089Z" style="fill:#605723;fill-rule:nonzero;"/>
                    </g>
                    <g transform="matrix(112.758,0,0,112.758,3144.26,2205.11)">
                        <path d="M0.033,-0.375C0.033,-0.163 0.179,0.015 0.358,0.015C0.385,0.015 0.411,0.011 0.436,0.004C0.497,0.07 0.568,0.12 0.637,0.148L0.64,0.145C0.598,0.086 0.56,0.022 0.529,-0.044C0.621,-0.113 0.682,-0.236 0.682,-0.375C0.682,-0.589 0.541,-0.765 0.358,-0.765C0.174,-0.765 0.033,-0.588 0.033,-0.375ZM0.321,-0.163C0.344,-0.116 0.373,-0.072 0.405,-0.032C0.39,-0.025 0.375,-0.021 0.358,-0.021C0.256,-0.021 0.203,-0.159 0.203,-0.375C0.203,-0.59 0.253,-0.729 0.358,-0.729C0.463,-0.729 0.511,-0.591 0.511,-0.375C0.511,-0.285 0.502,-0.209 0.484,-0.151C0.483,-0.155 0.481,-0.159 0.48,-0.163L0.321,-0.163Z" style="fill:#605723;fill-rule:nonzero;"/>
                    </g>
                    <g transform="matrix(112.758,0,0,112.758,3225.1,2205.11)">
                        <path d="M0.353,-0.044L0.353,0.02L0.364,0.02C0.418,-0.006 0.48,-0.02 0.547,-0.024L0.547,-0.035C0.511,-0.049 0.498,-0.079 0.498,-0.136L0.498,-0.536L0.489,-0.536C0.448,-0.498 0.37,-0.464 0.303,-0.459L0.303,-0.449C0.341,-0.435 0.353,-0.4 0.353,-0.345L0.353,-0.126C0.312,-0.099 0.278,-0.078 0.252,-0.08C0.223,-0.081 0.208,-0.104 0.208,-0.149L0.208,-0.536L0.199,-0.536C0.16,-0.498 0.083,-0.463 0.016,-0.459L0.016,-0.449C0.052,-0.434 0.066,-0.401 0.066,-0.348L0.066,-0.095C0.066,-0.03 0.098,0.014 0.159,0.014C0.226,0.014 0.31,-0.054 0.353,-0.101L0.355,-0.101C0.355,-0.089 0.353,-0.065 0.353,-0.044Z" style="fill:#605723;fill-rule:nonzero;"/>
                    </g>
                    <g transform="matrix(112.758,0,0,112.758,3288.92,2205.11)">
                        <path d="M0.024,-0.106C0.024,-0.031 0.078,0.014 0.141,0.014C0.192,0.014 0.242,-0.007 0.297,-0.063L0.299,-0.063C0.304,-0.007 0.35,0.014 0.398,0.014C0.443,0.014 0.498,-0.007 0.522,-0.043L0.515,-0.055C0.505,-0.047 0.493,-0.042 0.479,-0.042C0.459,-0.042 0.441,-0.058 0.441,-0.088C0.441,-0.182 0.446,-0.324 0.446,-0.412C0.446,-0.491 0.384,-0.529 0.274,-0.529C0.16,-0.529 0.048,-0.474 0.048,-0.394C0.048,-0.356 0.074,-0.331 0.108,-0.331C0.197,-0.331 0.198,-0.491 0.266,-0.491C0.291,-0.491 0.302,-0.473 0.302,-0.449C0.302,-0.414 0.301,-0.359 0.3,-0.3C0.114,-0.278 0.024,-0.199 0.024,-0.106ZM0.173,-0.139C0.173,-0.2 0.2,-0.258 0.3,-0.271C0.299,-0.207 0.298,-0.14 0.298,-0.088C0.277,-0.072 0.251,-0.062 0.226,-0.062C0.193,-0.062 0.173,-0.089 0.173,-0.139Z" style="fill:#605723;fill-rule:nonzero;"/>
                    </g>
                    <g transform="matrix(112.758,0,0,112.758,3346.99,2205.11)">
                        <path d="M0.22,-0.479L0.22,-0.536L0.209,-0.536C0.169,-0.498 0.091,-0.464 0.024,-0.459L0.024,-0.448C0.06,-0.434 0.076,-0.408 0.076,-0.355L0.076,-0.102C0.076,-0.062 0.057,-0.03 0.024,-0.011L0.024,-0L0.272,-0L0.272,-0.011C0.241,-0.031 0.22,-0.062 0.22,-0.102L0.22,-0.391C0.233,-0.406 0.245,-0.42 0.261,-0.42C0.294,-0.42 0.312,-0.374 0.355,-0.374C0.385,-0.374 0.417,-0.403 0.417,-0.449C0.417,-0.496 0.384,-0.53 0.347,-0.53C0.297,-0.53 0.241,-0.472 0.22,-0.418L0.217,-0.42C0.218,-0.432 0.22,-0.457 0.22,-0.479Z" style="fill:#605723;fill-rule:nonzero;"/>
                    </g>
                    <g transform="matrix(112.758,0,0,112.758,3394.47,2205.11)">
                        <path d="M0.07,-0.089C0.07,-0.02 0.129,0.015 0.191,0.015C0.268,0.015 0.325,-0.025 0.37,-0.078L0.363,-0.09C0.331,-0.071 0.304,-0.061 0.281,-0.061C0.245,-0.061 0.223,-0.083 0.223,-0.121L0.223,-0.47L0.35,-0.47L0.35,-0.515L0.223,-0.515L0.223,-0.691L0.213,-0.691C0.154,-0.608 0.085,-0.536 -0.005,-0.479L-0.005,-0.47L0.07,-0.47L0.07,-0.089Z" style="fill:#605723;fill-rule:nonzero;"/>
                    </g>
                    <g transform="matrix(112.758,0,0,112.758,3433.48,2205.11)">
                        <path d="M0.458,-0.152L0.447,-0.158C0.419,-0.113 0.371,-0.087 0.319,-0.087C0.233,-0.087 0.17,-0.153 0.167,-0.295L0.461,-0.295L0.461,-0.319C0.461,-0.445 0.377,-0.53 0.267,-0.53C0.131,-0.53 0.03,-0.4 0.03,-0.242C0.03,-0.072 0.143,0.015 0.253,0.015C0.344,0.015 0.431,-0.044 0.458,-0.152ZM0.245,-0.489C0.288,-0.489 0.312,-0.433 0.312,-0.334L0.167,-0.334C0.172,-0.441 0.205,-0.489 0.245,-0.489Z" style="fill:#605723;fill-rule:nonzero;"/>
                    </g>
                    <g transform="matrix(112.758,0,0,112.758,3488.39,2205.11)">
                        <path d="M0.22,-0.479L0.22,-0.536L0.209,-0.536C0.169,-0.498 0.091,-0.464 0.024,-0.459L0.024,-0.448C0.06,-0.434 0.076,-0.408 0.076,-0.355L0.076,-0.102C0.076,-0.062 0.057,-0.03 0.024,-0.011L0.024,-0L0.272,-0L0.272,-0.011C0.241,-0.031 0.22,-0.062 0.22,-0.102L0.22,-0.391C0.233,-0.406 0.245,-0.42 0.261,-0.42C0.294,-0.42 0.312,-0.374 0.355,-0.374C0.385,-0.374 0.417,-0.403 0.417,-0.449C0.417,-0.496 0.384,-0.53 0.347,-0.53C0.297,-0.53 0.241,-0.472 0.22,-0.418L0.217,-0.42C0.218,-0.432 0.22,-0.457 0.22,-0.479Z" style="fill:#605723;fill-rule:nonzero;"/>
                    </g>
                    <g transform="matrix(112.758,0,0,112.758,3534.17,2205.11)">
                        <path d="M0.217,-0.796L0.206,-0.796C0.165,-0.758 0.085,-0.724 0.017,-0.719L0.017,-0.709C0.053,-0.694 0.07,-0.655 0.07,-0.615L0.07,-0.102C0.07,-0.057 0.052,-0.026 0.023,-0.011L0.023,-0L0.267,-0L0.267,-0.011C0.236,-0.026 0.217,-0.057 0.217,-0.102L0.217,-0.796Z" style="fill:#605723;fill-rule:nonzero;"/>
                    </g>
                    <g transform="matrix(112.758,0,0,112.758,3566.31,2205.11)">
                        <path d="M0.059,0.216C0.139,0.216 0.189,0.147 0.231,0.053L0.426,-0.395C0.449,-0.447 0.478,-0.492 0.505,-0.505L0.505,-0.515L0.346,-0.515L0.346,-0.505C0.377,-0.492 0.402,-0.45 0.378,-0.395L0.298,-0.205L0.219,-0.396C0.194,-0.456 0.218,-0.489 0.252,-0.505L0.252,-0.515L-0.022,-0.515L-0.022,-0.505C0.009,-0.489 0.033,-0.453 0.058,-0.395L0.22,-0.022L0.196,0.036C0.178,0.077 0.155,0.128 0.118,0.129C0.086,0.129 0.074,0.064 0.021,0.064C-0.012,0.064 -0.042,0.089 -0.042,0.133C-0.042,0.186 0.007,0.216 0.059,0.216Z" style="fill:#605723;fill-rule:nonzero;"/>
                    </g>
                </g>
                <g transform="matrix(2.85324e-17,-1,0.46597,6.12323e-17,7920.95,2220.06)">
                    <g transform="matrix(112.758,0,0,112.758,1875.62,2205.11)">
                        <path d="M0.541,-0.617C0.565,-0.685 0.598,-0.726 0.631,-0.74L0.631,-0.75L0.439,-0.75L0.439,-0.74C0.484,-0.72 0.516,-0.672 0.496,-0.616L0.34,-0.159L0.177,-0.614C0.154,-0.677 0.176,-0.721 0.218,-0.74L0.218,-0.75L-0.018,-0.75L-0.018,-0.74C0.014,-0.726 0.043,-0.687 0.07,-0.614L0.297,0.005L0.32,0.005L0.541,-0.617Z" style="fill:#605723;fill-rule:nonzero;"/>
                    </g>
                    <g transform="matrix(112.758,0,0,112.758,1935.61,2205.11)">
                        <path d="M0.035,-0.256C0.035,-0.106 0.135,0.015 0.258,0.015C0.381,0.015 0.482,-0.105 0.482,-0.256C0.482,-0.407 0.384,-0.524 0.258,-0.524C0.133,-0.524 0.035,-0.406 0.035,-0.256ZM0.137,-0.256C0.137,-0.394 0.178,-0.492 0.258,-0.492C0.34,-0.492 0.38,-0.394 0.38,-0.256C0.38,-0.117 0.337,-0.017 0.258,-0.017C0.18,-0.017 0.137,-0.117 0.137,-0.256Z" style="fill:#605723;fill-rule:nonzero;"/>
                    </g>
                    <g transform="matrix(112.758,0,0,112.758,1993.68,2205.11)">
                        <path d="M0.174,-0.793L0.165,-0.793C0.131,-0.76 0.08,-0.736 0.028,-0.728L0.028,-0.718C0.067,-0.705 0.08,-0.668 0.08,-0.624L0.08,-0.103C0.08,-0.055 0.064,-0.022 0.036,-0.011L0.036,-0L0.221,-0L0.221,-0.011C0.192,-0.023 0.174,-0.055 0.174,-0.103L0.174,-0.793Z" style="fill:#605723;fill-rule:nonzero;"/>
                    </g>
                    <g transform="matrix(112.758,0,0,112.758,2021.98,2205.11)">
                        <path d="M0.118,0.009C0.155,0.009 0.185,-0.024 0.185,-0.063C0.185,-0.104 0.155,-0.136 0.118,-0.136C0.081,-0.136 0.052,-0.104 0.052,-0.063C0.052,-0.024 0.081,0.009 0.118,0.009Z" style="fill:#605723;fill-rule:nonzero;"/>
                    </g>
                    <g transform="matrix(112.758,0,0,112.758,2069,2205.11)">
                        <path d="M0.036,-0.011L0.036,-0L0.258,-0L0.258,-0.011C0.224,-0.02 0.197,-0.05 0.197,-0.108L0.197,-0.765L0.193,-0.765C0.154,-0.73 0.091,-0.706 0.036,-0.697L0.036,-0.686C0.075,-0.675 0.098,-0.64 0.098,-0.598L0.098,-0.108C0.098,-0.05 0.071,-0.021 0.036,-0.011Z" style="fill:#605723;fill-rule:nonzero;"/>
                    </g>
                </g>
            </g>
        </g>
        <g id="Names1" serif:id="Names">
        </g>
    </g>
</svg>
