<?xml version="1.0" encoding="UTF-8" standalone="no"?>
<!DOCTYPE svg PUBLIC "-//W3C//DTD SVG 1.1//EN" "http://www.w3.org/Graphics/SVG/1.1/DTD/svg11.dtd">
<svg width="100%" height="100%" viewBox="0 0 263 2700" version="1.1" xmlns="http://www.w3.org/2000/svg" xmlns:xlink="http://www.w3.org/1999/xlink" xml:space="preserve" xmlns:serif="http://www.serif.com/" style="fill-rule:evenodd;clip-rule:evenodd;stroke-linecap:round;stroke-linejoin:round;stroke-miterlimit:1.5;">
    <g transform="matrix(1,0,0,1,-1800,0)">
        <g id="Cover-Wrap-Digital" serif:id="Cover Wrap Digital" transform="matrix(2.14606,0,0,1,-17237.9,0)">
            <rect x="8032.33" y="0" width="1800" height="2700" style="fill:none;"/>
            <clipPath id="_clip1">
                <rect x="8032.33" y="0" width="1800" height="2700"/>
            </clipPath>
            <g clip-path="url(#_clip1)">
                <g transform="matrix(0.46597,0,0,1,7920.64,4.54747e-13)">
                    <rect x="202.204" y="-37.5" width="3937.91" height="2775" style="fill:#f9f9f9;"/>
                </g>
                <g transform="matrix(0.179218,0,0,0.384612,8932.33,2530.41)">
                    <g transform="matrix(1,0,0,1,-252,-118.952)">
                        <clipPath id="_clip2">
                            <rect x="0" y="0" width="504" height="237.904"/>
                        </clipPath>
                        <g clip-path="url(#_clip2)">
                            <g id="Artboard1" transform="matrix(1,0,0,1.00867,-18,-8.13994)">
                                <rect x="18" y="8.07" width="504" height="235.86" style="fill:none;"/>
                                <clipPath id="_clip3">
                                    <rect x="18" y="8.07" width="504" height="235.86"/>
                                </clipPath>
                                <g clip-path="url(#_clip3)">
                                    <g transform="matrix(1,0,0,0.991408,0,0.138738)">
                                        <circle cx="172.12" cy="189.5" r="55.52" style="fill:#5a5322;"/>
                                    </g>
                                    <g transform="matrix(1,0,0,0.991408,0,0.138738)">
                                        <path d="M288.68,135.07L288.68,185.94L283.77,185.94L283.77,135.07L239.35,135.07L239.35,201.52C239.854,225.031 259.333,244.097 282.85,244.097C306.367,244.097 325.846,225.031 326.35,201.52L326.35,135.07L288.68,135.07Z" style="fill:#5a5322;fill-rule:nonzero;"/>
                                    </g>
                                    <g transform="matrix(1,0,0,0.991408,0,0.138738)">
                                        <path d="M490.73,197.02L490.73,186.4L505.49,186.4L505.49,168.75L488.25,168.75L488.25,163.84L521.17,163.84L521.17,135.07L430.44,135.07L430.44,243.93L522,243.93L522,197.02L490.73,197.02Z" style="fill:#5a5322;fill-rule:nonzero;"/>
                                    </g>
                                    <g transform="matrix(1,0,0,0.991408,0,0.138738)">
                                        <path d="M399.14,173.36L415.66,156.84C409.825,143.021 396.215,133.993 381.214,133.993C360.703,133.993 343.824,150.872 343.824,171.383C343.824,182.415 348.707,192.9 357.15,200L340.9,216.22C345.425,233.155 360.884,245.026 378.414,245.026C399.715,245.026 417.244,227.497 417.244,206.196C417.244,192.883 410.398,180.466 399.14,173.36Z" style="fill:#5a5322;fill-rule:nonzero;"/>
                                    </g>
                                    <g transform="matrix(1,0,0,0.991408,0,0.138738)">
                                        <path d="M18,135.07L18,243.93L39.91,243.93L39.91,215.68L49.59,215.68L49.59,243.93L103.59,243.93L103.59,135.07L18,135.07ZM89.5,173.93L77.57,173.93L77.57,152.74L89.5,152.74L89.5,173.93Z" style="fill:#ef4429;fill-rule:nonzero;"/>
                                    </g>
                                    <g transform="matrix(1,0,0,0.991408,0,0.138738)">
                                        <path d="M90.18,58.37C96.597,52.956 100.305,44.975 100.305,36.58C100.305,20.94 87.435,8.07 71.795,8.07C71.787,8.07 71.778,8.07 71.77,8.07L18,8.07L18,116.93L76.71,116.93C76.723,116.93 76.737,116.93 76.75,116.93C93.657,116.93 107.57,103.017 107.57,86.11C107.57,74.314 100.797,63.51 90.18,58.37Z" style="fill:#5a5322;fill-rule:nonzero;"/>
                                    </g>
                                    <g transform="matrix(1,0,0,0.991408,0,0.138738)">
                                        <path d="M205.4,40.93C205.4,22.904 190.566,8.07 172.54,8.07L122,8.07L122,116.93L205.4,116.93L185.58,71.09C197.587,65.899 205.399,54.011 205.4,40.93Z" style="fill:#5a5322;fill-rule:nonzero;"/>
                                    </g>
                                    <g transform="matrix(1,0,0,0.991408,0,0.138738)">
                                        <rect x="220.99" y="8.07" width="39.54" height="108.86" style="fill:#5a5322;"/>
                                    </g>
                                    <g transform="matrix(1,0,0,0.991408,0,0.138738)">
                                        <path d="M463.83,60.71L490.28,8.07L406.32,8.07L406.32,116.93L495.27,116.93L463.83,60.71Z" style="fill:#5a5322;fill-rule:nonzero;"/>
                                    </g>
                                    <g transform="matrix(1,0,0,0.991408,0,0.138738)">
                                        <path d="M367.49,64.06L367.49,56.2L386.72,56.2C383.616,28.117 359.611,6.62 331.357,6.62C300.801,6.62 275.657,31.764 275.657,62.32C275.657,92.876 300.801,118.02 331.357,118.02C361.257,118.02 386.096,93.945 387.03,64.06L367.49,64.06Z" style="fill:#5a5322;fill-rule:nonzero;"/>
                                    </g>
                                </g>
                            </g>
                        </g>
                    </g>
                </g>
                <g transform="matrix(0.215837,0,0,1,9005.96,0)">
                    <rect x="-57.223" y="178.62" width="3938.62" height="12.676" style="fill:#797674;"/>
                </g>
                <g transform="matrix(-5.39977e-17,0.630834,-0.136972,-5.39977e-17,9090.85,-5340.27)">
                    <g transform="matrix(-1.06961,2.81112e-16,-2.10638e-15,-36.912,14157.3,18636.1)">
                        <rect x="4076.42" y="292.058" width="641.374" height="191.568" style="fill:#263166;"/>
                    </g>
                    <g transform="matrix(-1.01828,2.6762e-16,-1.24703e-16,-2.18528,13433,990.235)">
                        <path d="M3620.49,6.395L3607.52,6.395L3607.52,-16.383L3668.64,-16.383L3668.64,6.395L3655.67,6.395L3655.67,-5.332L3645.41,-5.332L3645.41,53.978L3655.22,53.978L3655.22,65.028L3620.94,65.028L3620.94,53.978L3630.75,53.978L3630.75,-5.332L3620.49,-5.332L3620.49,6.395Z" style="fill:#fff;fill-rule:nonzero;"/>
                        <path d="M3712.16,65.028L3680.14,65.028L3680.14,53.978L3688.82,53.978L3688.82,-5.332L3680.14,-5.332L3680.14,-16.383L3712.16,-16.383L3712.16,-5.332L3703.48,-5.332L3703.48,15.19L3732.57,15.19L3732.57,-5.332L3723.89,-5.332L3723.89,-16.383L3755.91,-16.383L3755.91,-5.332L3747.23,-5.332L3747.23,53.978L3755.91,53.978L3755.91,65.028L3723.89,65.028L3723.89,53.978L3732.57,53.978L3732.57,28.044L3703.48,28.044L3703.48,53.978L3712.16,53.978L3712.16,65.028Z" style="fill:#fff;fill-rule:nonzero;"/>
                        <path d="M3829.2,65.028L3766.51,65.028L3766.51,53.978L3775.19,53.978L3775.19,-5.332L3766.51,-5.332L3766.51,-16.383L3829.2,-16.383L3829.2,5.154L3816.24,5.154L3816.24,-5.332L3789.85,-5.332L3789.85,15.19L3812.52,15.19L3812.52,28.044L3789.85,28.044L3789.85,53.978L3816.24,53.978L3816.24,40.673L3829.2,40.673L3829.2,65.028Z" style="fill:#fff;fill-rule:nonzero;"/>
                        <path d="M3902.27,65.028L3878.03,65.028L3878.03,53.978L3886.6,53.978L3886.6,-5.332L3878.03,-5.332L3878.03,-16.383L3907.01,-16.383C3916.63,-16.307 3923.71,-14.691 3928.26,-11.534C3932.81,-8.377 3935.08,-3.152 3935.08,4.139C3935.08,8.123 3934.03,11.469 3931.93,14.175C3929.82,16.881 3927,19.023 3923.47,20.602C3928.21,22.481 3931.85,25.037 3934.41,28.269C3936.96,31.502 3938.24,35.749 3938.24,41.011C3938.24,47.777 3936.34,53.114 3932.55,57.023C3928.75,60.932 3923.62,63.45 3917.16,64.577C3916.1,64.728 3914.92,64.841 3913.6,64.916C3912.29,64.991 3910.95,65.028 3909.6,65.028C3908.25,65.104 3906.95,65.122 3905.71,65.085C3904.47,65.047 3903.32,65.028 3902.27,65.028ZM3901.26,26.465L3901.26,53.978L3907.35,53.978C3912.23,54.053 3916.16,53.151 3919.13,51.272C3922.1,49.393 3923.58,45.822 3923.58,40.56C3923.58,36.952 3922.83,34.189 3921.33,32.272C3919.82,30.355 3918.17,28.946 3916.37,28.044C3915.09,27.443 3913.85,27.048 3912.64,26.86C3911.44,26.672 3910.54,26.578 3909.94,26.578L3901.26,26.465ZM3901.26,-5.558L3901.26,15.415L3907.12,15.415C3907.5,15.49 3907.85,15.528 3908.19,15.528C3908.53,15.528 3908.89,15.49 3909.26,15.415C3912.04,15.265 3914.6,14.438 3916.93,12.934C3919.26,11.431 3920.43,8.65 3920.43,4.59C3920.43,1.584 3919.71,-0.615 3918.28,-2.006C3916.86,-3.397 3915.28,-4.317 3913.55,-4.768C3912.57,-5.069 3911.63,-5.257 3910.73,-5.332C3909.83,-5.407 3909.04,-5.445 3908.36,-5.445L3901.26,-5.558Z" style="fill:#fff;fill-rule:nonzero;"/>
                        <path d="M3990.11,66.833C3977.03,66.833 3967.09,63.187 3960.29,55.895C3953.48,48.603 3949.37,40.56 3947.94,31.765C3947.79,30.562 3947.66,29.359 3947.54,28.157C3947.43,26.954 3947.37,25.751 3947.37,24.548C3947.37,12.747 3951.43,2.692 3959.55,-5.614C3967.67,-13.921 3977.86,-18.074 3990.11,-18.074C4002.44,-18.074 4012.66,-13.921 4020.78,-5.614C4028.9,2.692 4032.96,12.747 4032.96,24.548C4032.96,36.576 4028.73,46.63 4020.27,54.711C4011.82,62.792 4001.76,66.833 3990.11,66.833ZM3990.56,-4.656C3981.62,-4.581 3974.62,-1.592 3969.59,4.308C3964.55,10.209 3962.03,17.482 3962.03,26.127C3962.03,33.719 3964.68,40.165 3969.98,45.465C3975.28,50.765 3981.73,53.414 3989.32,53.414C3997.74,53.414 4004.67,50.577 4010.12,44.901C4015.57,39.226 4018.3,32.254 4018.3,23.985C4018.3,16.167 4015.65,9.458 4010.35,3.857C4005.05,-1.743 3998.45,-4.543 3990.56,-4.543L3990.56,-4.656Z" style="fill:#fff;fill-rule:nonzero;"/>
                        <path d="M4084.04,66.833C4070.96,66.833 4061.01,63.187 4054.21,55.895C4047.41,48.603 4043.29,40.56 4041.87,31.765C4041.72,30.562 4041.58,29.359 4041.47,28.157C4041.36,26.954 4041.3,25.751 4041.3,24.548C4041.3,12.747 4045.36,2.692 4053.48,-5.614C4061.6,-13.921 4071.78,-18.074 4084.04,-18.074C4096.36,-18.074 4106.59,-13.921 4114.71,-5.614C4122.82,2.692 4126.88,12.747 4126.88,24.548C4126.88,36.576 4122.66,46.63 4114.2,54.711C4105.74,62.792 4095.69,66.833 4084.04,66.833ZM4084.49,-4.656C4075.54,-4.581 4068.55,-1.592 4063.51,4.308C4058.48,10.209 4055.96,17.482 4055.96,26.127C4055.96,33.719 4058.61,40.165 4063.91,45.465C4069.21,50.765 4075.66,53.414 4083.25,53.414C4091.67,53.414 4098.6,50.577 4104.05,44.901C4109.5,39.226 4112.23,32.254 4112.23,23.985C4112.23,16.167 4109.58,9.458 4104.28,3.857C4098.98,-1.743 4092.38,-4.543 4084.49,-4.543L4084.49,-4.656Z" style="fill:#fff;fill-rule:nonzero;"/>
                        <path d="M4172.33,53.978L4180.44,53.978L4157.78,23.083L4157.55,23.083L4157.55,53.978L4166.12,53.978L4166.12,65.028L4134.78,65.028L4134.78,53.978L4142.9,53.978L4142.9,-5.332L4135,-5.332L4135,-16.383L4166.12,-16.383L4166.12,-5.332L4157.55,-5.332L4157.55,21.279L4180.56,-5.332L4172.66,-5.332L4172.66,-16.383L4203.22,-16.383L4203.22,-5.332L4197.47,-5.332L4174.47,21.955L4174.47,22.181L4197.47,53.978L4203.67,53.978L4203.67,65.028L4172.33,65.028L4172.33,53.978Z" style="fill:#fff;fill-rule:nonzero;"/>
                    </g>
                </g>
                <g transform="matrix(0.46597,0,0,1,8057.17,462.531)">
                    <g transform="matrix(2.1956,0,0,2.14232,-7050.15,-1125.71)">
                        <rect x="4076.42" y="292.058" width="641.374" height="191.568" style="fill:#263166;"/>
                    </g>
                </g>
                <g transform="matrix(1.83282e-17,0.642363,-0.299322,3.93334e-17,8969.85,-2293.67)">
                    <path d="M3620.49,6.395L3607.52,6.395L3607.52,-16.383L3668.64,-16.383L3668.64,6.395L3655.67,6.395L3655.67,-5.332L3645.41,-5.332L3645.41,53.978L3655.22,53.978L3655.22,65.028L3620.94,65.028L3620.94,53.978L3630.75,53.978L3630.75,-5.332L3620.49,-5.332L3620.49,6.395Z" style="fill:#fff;fill-rule:nonzero;"/>
                    <path d="M3712.16,65.028L3680.14,65.028L3680.14,53.978L3688.82,53.978L3688.82,-5.332L3680.14,-5.332L3680.14,-16.383L3712.16,-16.383L3712.16,-5.332L3703.48,-5.332L3703.48,15.19L3732.57,15.19L3732.57,-5.332L3723.89,-5.332L3723.89,-16.383L3755.91,-16.383L3755.91,-5.332L3747.23,-5.332L3747.23,53.978L3755.91,53.978L3755.91,65.028L3723.89,65.028L3723.89,53.978L3732.57,53.978L3732.57,28.044L3703.48,28.044L3703.48,53.978L3712.16,53.978L3712.16,65.028Z" style="fill:#fff;fill-rule:nonzero;"/>
                    <path d="M3829.2,65.028L3766.51,65.028L3766.51,53.978L3775.19,53.978L3775.19,-5.332L3766.51,-5.332L3766.51,-16.383L3829.2,-16.383L3829.2,5.154L3816.24,5.154L3816.24,-5.332L3789.85,-5.332L3789.85,15.19L3812.52,15.19L3812.52,28.044L3789.85,28.044L3789.85,53.978L3816.24,53.978L3816.24,40.673L3829.2,40.673L3829.2,65.028Z" style="fill:#fff;fill-rule:nonzero;"/>
                    <path d="M3890.88,65.028L3861.68,65.028L3861.68,53.978L3868.33,53.978L3888.63,-5.332L3879.72,-5.332L3879.72,-16.383L3921.78,-16.383L3921.78,-5.332L3912.98,-5.332L3932.72,53.978L3938.92,53.978L3938.92,65.028L3908.92,65.028L3908.92,53.978L3917.83,53.978L3912.31,38.079L3887.61,38.079L3882.09,53.978L3890.88,53.978L3890.88,65.028ZM3890.77,27.029L3909.49,27.029L3900.35,-0.484L3900.13,-0.484L3890.77,27.029Z" style="fill:#fff;fill-rule:nonzero;"/>
                    <path d="M3933.39,-5.332L3933.39,-16.383L3961.58,-16.383L3961.58,-5.332L3953.91,-5.332L3967.78,40.447L3968.01,40.447L3980.86,-5.332L3973.53,-5.332L3973.53,-16.383L4002.51,-16.383L4002.51,-5.332L3995.07,-5.332L4008.71,40.447L4008.94,40.447L4022.36,-5.332L4014.8,-5.332L4014.8,-16.383L4041.64,-16.383L4041.64,-5.332L4035.66,-5.332L4013.56,65.028L4003.53,65.028L3987.85,15.077L3987.63,15.077L3972.63,65.028L3962.6,65.028L3939.37,-5.332L3933.39,-5.332Z" style="fill:#fff;fill-rule:nonzero;"/>
                    <path d="M4108.51,65.028L4052.35,65.028L4052.35,53.978L4061.49,53.978L4061.49,-5.332L4052.35,-5.332L4052.35,-16.383L4086.07,-16.383L4086.07,-5.332L4076.14,-5.332L4076.14,53.978L4095.54,53.978L4095.54,40.898L4108.51,40.898L4108.51,65.028Z" style="fill:#fff;fill-rule:nonzero;"/>
                </g>
                <g transform="matrix(1,0,0,1,9.42588,1.13687e-12)">
                    <g transform="matrix(2.85324e-17,1,-0.46597,6.12323e-17,8972.94,-6895.43)">
                        <path d="M9104.96,60.417L9104.96,154.322C9104.96,161.706 9098.97,167.7 9091.58,167.7L8034.81,167.7C8027.43,167.7 8021.43,161.706 8021.43,154.322L8021.43,60.417C8021.43,53.033 8027.43,47.039 8034.81,47.039L9091.58,47.039C9098.97,47.039 9104.96,53.033 9104.96,60.417Z" style="fill:#fff;stroke:#cecccb;stroke-width:8.33px;"/>
                    </g>
                    <g transform="matrix(3.22135e-17,-1.12901,0.526087,6.91322e-17,7811.74,4594.83)">
                        <g transform="matrix(75,0,0,75,2136.75,2140.2)">
                            <path d="M0.46,-0.601C0.457,-0.595 0.453,-0.591 0.45,-0.589C0.446,-0.586 0.441,-0.585 0.436,-0.585C0.43,-0.585 0.423,-0.587 0.415,-0.593C0.407,-0.598 0.398,-0.604 0.386,-0.611C0.375,-0.618 0.361,-0.624 0.345,-0.63C0.329,-0.635 0.31,-0.638 0.288,-0.638C0.267,-0.638 0.248,-0.635 0.232,-0.63C0.216,-0.624 0.203,-0.617 0.193,-0.607C0.182,-0.598 0.174,-0.587 0.168,-0.574C0.163,-0.561 0.16,-0.547 0.16,-0.532C0.16,-0.513 0.165,-0.497 0.175,-0.484C0.185,-0.471 0.198,-0.46 0.214,-0.452C0.23,-0.443 0.248,-0.435 0.268,-0.428C0.288,-0.421 0.309,-0.414 0.331,-0.407C0.352,-0.4 0.373,-0.392 0.393,-0.383C0.413,-0.373 0.432,-0.361 0.448,-0.347C0.464,-0.333 0.476,-0.316 0.486,-0.295C0.496,-0.275 0.501,-0.25 0.501,-0.22C0.501,-0.188 0.496,-0.159 0.485,-0.131C0.474,-0.103 0.458,-0.079 0.438,-0.059C0.417,-0.038 0.391,-0.022 0.361,-0.01C0.331,0.002 0.297,0.008 0.259,0.008C0.236,0.008 0.213,0.006 0.192,0.001C0.17,-0.003 0.149,-0.01 0.13,-0.018C0.111,-0.026 0.093,-0.036 0.076,-0.047C0.059,-0.059 0.044,-0.072 0.031,-0.086L0.061,-0.137C0.064,-0.141 0.068,-0.144 0.072,-0.147C0.076,-0.15 0.081,-0.151 0.086,-0.151C0.093,-0.151 0.101,-0.147 0.11,-0.14C0.119,-0.133 0.131,-0.125 0.144,-0.116C0.158,-0.107 0.174,-0.099 0.193,-0.092C0.212,-0.084 0.235,-0.081 0.262,-0.081C0.284,-0.081 0.303,-0.083 0.321,-0.089C0.338,-0.095 0.352,-0.103 0.364,-0.114C0.376,-0.125 0.385,-0.138 0.392,-0.154C0.398,-0.169 0.401,-0.186 0.401,-0.205C0.401,-0.226 0.396,-0.243 0.387,-0.256C0.377,-0.269 0.364,-0.281 0.348,-0.29C0.332,-0.299 0.314,-0.306 0.294,-0.313C0.273,-0.319 0.252,-0.325 0.231,-0.332C0.21,-0.339 0.189,-0.347 0.169,-0.356C0.148,-0.365 0.13,-0.377 0.114,-0.391C0.098,-0.406 0.085,-0.424 0.076,-0.446C0.066,-0.468 0.061,-0.495 0.061,-0.527C0.061,-0.552 0.066,-0.577 0.076,-0.601C0.086,-0.625 0.101,-0.646 0.12,-0.665C0.139,-0.683 0.163,-0.698 0.191,-0.709C0.219,-0.72 0.251,-0.726 0.287,-0.726C0.327,-0.726 0.364,-0.72 0.398,-0.707C0.432,-0.694 0.461,-0.676 0.486,-0.652L0.46,-0.601Z" style="fill:#a29d97;fill-rule:nonzero;"/>
                        </g>
                        <g transform="matrix(75,0,0,75,2177.55,2140.2)">
                            <path d="M0.534,-0.087L0.534,-0L0.089,-0L0.089,-0.718L0.534,-0.718L0.534,-0.632L0.196,-0.632L0.196,-0.404L0.468,-0.404L0.468,-0.321L0.196,-0.321L0.196,-0.087L0.534,-0.087Z" style="fill:#a29d97;fill-rule:nonzero;"/>
                        </g>
                        <g transform="matrix(75,0,0,75,2220.83,2140.2)">
                            <path d="M0.47,-0.268L0.364,-0.546C0.356,-0.565 0.348,-0.589 0.341,-0.618C0.337,-0.604 0.333,-0.59 0.329,-0.578C0.325,-0.566 0.322,-0.555 0.318,-0.545L0.212,-0.268L0.47,-0.268ZM0.681,-0L0.599,-0C0.589,-0 0.582,-0.002 0.576,-0.007C0.57,-0.012 0.565,-0.018 0.563,-0.025L0.499,-0.192L0.183,-0.192L0.119,-0.025C0.117,-0.019 0.112,-0.013 0.106,-0.008C0.1,-0.003 0.092,-0 0.083,-0L0.001,-0L0.287,-0.718L0.395,-0.718L0.681,-0Z" style="fill:#a29d97;fill-rule:nonzero;"/>
                        </g>
                        <g transform="matrix(75,0,0,75,2271.94,2140.2)">
                            <path d="M0.292,-0.372C0.319,-0.372 0.343,-0.375 0.364,-0.382C0.385,-0.389 0.403,-0.398 0.417,-0.41C0.431,-0.422 0.441,-0.437 0.448,-0.454C0.455,-0.471 0.459,-0.489 0.459,-0.51C0.459,-0.551 0.445,-0.582 0.418,-0.603C0.391,-0.624 0.35,-0.635 0.296,-0.635L0.195,-0.635L0.195,-0.372L0.292,-0.372ZM0.627,-0L0.532,-0C0.513,-0 0.499,-0.008 0.491,-0.023L0.313,-0.272C0.307,-0.28 0.301,-0.286 0.295,-0.289C0.288,-0.293 0.278,-0.295 0.265,-0.295L0.195,-0.295L0.195,-0L0.089,-0L0.089,-0.718L0.296,-0.718C0.342,-0.718 0.382,-0.713 0.415,-0.704C0.449,-0.694 0.476,-0.681 0.498,-0.663C0.52,-0.646 0.536,-0.625 0.547,-0.6C0.557,-0.575 0.563,-0.548 0.563,-0.517C0.563,-0.492 0.559,-0.468 0.551,-0.447C0.543,-0.425 0.532,-0.405 0.517,-0.387C0.502,-0.37 0.484,-0.355 0.463,-0.342C0.442,-0.329 0.418,-0.32 0.391,-0.313C0.404,-0.305 0.415,-0.294 0.425,-0.28L0.627,-0Z" style="fill:#a29d97;fill-rule:nonzero;"/>
                        </g>
                        <g transform="matrix(75,0,0,75,2318.63,2140.2)">
                            <path d="M0.59,-0.154C0.596,-0.154 0.601,-0.152 0.606,-0.147L0.648,-0.101C0.618,-0.066 0.582,-0.04 0.54,-0.021C0.498,-0.002 0.447,0.008 0.388,0.008C0.336,0.008 0.289,-0.001 0.247,-0.019C0.205,-0.037 0.169,-0.062 0.139,-0.095C0.109,-0.127 0.086,-0.166 0.07,-0.211C0.053,-0.256 0.045,-0.305 0.045,-0.359C0.045,-0.413 0.054,-0.463 0.071,-0.508C0.088,-0.553 0.112,-0.591 0.143,-0.624C0.174,-0.656 0.211,-0.681 0.254,-0.699C0.297,-0.717 0.345,-0.726 0.398,-0.726C0.449,-0.726 0.494,-0.718 0.534,-0.701C0.573,-0.684 0.608,-0.662 0.637,-0.635L0.602,-0.585C0.6,-0.581 0.597,-0.578 0.593,-0.576C0.59,-0.574 0.585,-0.573 0.58,-0.573C0.573,-0.573 0.566,-0.576 0.557,-0.582C0.549,-0.588 0.538,-0.595 0.524,-0.603C0.51,-0.611 0.493,-0.618 0.473,-0.625C0.452,-0.631 0.427,-0.634 0.397,-0.634C0.361,-0.634 0.328,-0.628 0.299,-0.615C0.269,-0.603 0.243,-0.585 0.222,-0.561C0.2,-0.538 0.184,-0.509 0.172,-0.475C0.16,-0.441 0.154,-0.402 0.154,-0.359C0.154,-0.315 0.16,-0.276 0.173,-0.243C0.185,-0.209 0.202,-0.18 0.224,-0.156C0.245,-0.132 0.271,-0.114 0.3,-0.102C0.329,-0.09 0.361,-0.084 0.395,-0.084C0.416,-0.084 0.434,-0.085 0.451,-0.087C0.467,-0.09 0.482,-0.093 0.496,-0.099C0.51,-0.103 0.523,-0.11 0.536,-0.118C0.548,-0.126 0.56,-0.135 0.572,-0.146C0.575,-0.148 0.578,-0.15 0.581,-0.152C0.584,-0.153 0.587,-0.154 0.59,-0.154Z" style="fill:#a29d97;fill-rule:nonzero;"/>
                        </g>
                        <g transform="matrix(75,0,0,75,2368.62,2140.2)">
                            <path d="M0.677,-0.718L0.677,-0L0.57,-0L0.57,-0.324L0.196,-0.324L0.196,-0L0.089,-0L0.089,-0.718L0.196,-0.718L0.196,-0.401L0.57,-0.401L0.57,-0.718L0.677,-0.718Z" style="fill:#a29d97;fill-rule:nonzero;"/>
                        </g>
                    </g>
                </g>
            </g>
        </g>
    </g>
</svg>
